<svg width="64" height="64" viewBox="0 0 64 64" fill="none" xmlns="http://www.w3.org/2000/svg">
    <path d="M16 46C19.3137 46 22 43.3137 22 40C22 36.6863 19.3137 34 16 34C12.6863 34 10 36.6863 10 40C10 43.3137 12.6863 46 16 46Z" fill="#F4B34A"/>
    <path d="M26 62H6V56C6 50.477 10.477 46 16 46C21.523 46 26 50.477 26 56V62Z" fill="#F4B34A"/>
    <path d="M58 62H38V56C38 50.477 42.477 46 48 46C53.523 46 58 50.477 58 56V62Z" fill="#4AC3ED"/>
    <path d="M48 46C51.3137 46 54 43.3137 54 40C54 36.6863 51.3137 34 48 34C44.6863 34 42 36.6863 42 40C42 43.3137 44.6863 46 48 46Z" fill="#4AC3ED"/>
    <path d="M48 34C45.389 34 43.173 35.671 42.349 38H38V40H54C54 36.686 51.314 34 48 34Z" fill="#304B68"/>
    <path d="M35.592 19.858C37.096 17.977 38 15.596 38 13C38 10.404 37.096 8.023 35.592 6.142C34.198 6.426 32.958 7.127 32 8.106C33.236 9.368 34 11.094 34 13C34 14.906 33.236 16.632 32 17.894C31.042 18.873 29.802 19.573 28.408 19.858C27.953 19.951 27.482 20 27 20H13C9.134 20 6 16.866 6 13C6 9.134 9.134 6 13 6H27C27.482 6 27.953 6.049 28.408 6.142C29.38 4.926 30.603 3.925 32 3.21C30.499 2.442 28.802 2 27 2H13C6.925 2 2 6.925 2 13C2 19.075 6.925 24 13 24H27C28.802 24 30.499 23.558 32 22.79C33.397 22.075 34.62 21.074 35.592 19.858Z" fill="#F4B34A"/>
    <path d="M36.795 8.02109C36.454 7.35409 36.056 6.72209 35.592 6.14209C34.198 6.42609 32.958 7.12709 32 8.10609C32.481 8.59809 32.888 9.16109 33.209 9.77709C33.285 9.68809 33.346 9.58909 33.428 9.50509C34.133 8.78609 35.019 8.30009 35.99 8.10209C36.254 8.04809 36.525 8.03209 36.795 8.02109Z" fill="#E58842"/>
    <path d="M51 2H37C35.198 2 33.501 2.442 32 3.21C30.603 3.925 29.38 4.926 28.408 6.141C26.904 8.023 26 10.404 26 13C26 15.596 26.904 17.977 28.408 19.858C29.801 19.573 31.042 18.873 32 17.894C30.764 16.632 30 14.906 30 13C30 11.094 30.764 9.368 32 8.106C32.958 7.127 34.198 6.427 35.592 6.142C36.047 6.049 36.518 6 37 6H51C54.866 6 58 9.134 58 13C58 16.866 54.866 20 51 20H37C36.518 20 36.047 19.951 35.592 19.858C34.62 21.074 33.397 22.075 32 22.79C33.501 23.558 35.198 24 37 24H51C57.075 24 62 19.075 62 13C62 6.925 57.075 2 51 2Z" fill="#4AC3ED"/>
    <path d="M37.941 19.9999H37C36.518 19.9999 36.047 19.9509 35.592 19.8579C34.62 21.0739 33.397 22.0749 32 22.7899C32.748 23.1729 33.544 23.4739 34.377 23.6799C35.419 22.9619 36.355 22.1079 37.154 21.1079C37.44 20.7499 37.697 20.3779 37.941 19.9999Z" fill="#31A9D4"/>
    <path d="M16 38C14.895 38 14 37.105 14 36V20C14 18.895 14.895 18 16 18C17.105 18 18 18.895 18 20V36C18 37.105 17.105 38 16 38Z" fill="#4AC3ED"/>
    <path d="M48 38C46.895 38 46 37.105 46 36V20C46 18.895 46.895 18 48 18C49.105 18 50 18.895 50 20V36C50 37.105 49.105 38 48 38Z" fill="#F4B34A"/>
    <path d="M15 51V56C15 58.209 16.791 60 19 60H32V56H19V51H15Z" fill="#E58842"/>
    <path d="M49 51V56C49 58.209 47.209 60 45 60H32V56H45V51H49Z" fill="#31A9D4"/>
</svg>
