<svg width="74" height="74" viewBox="0 0 74 74" fill="none" xmlns="http://www.w3.org/2000/svg">
<rect x="0.603516" y="0.257812" width="73.0167" height="73.075" rx="1.50208" fill="white"/>
<rect x="19.0869" y="6.2666" width="36.05" height="36.05" rx="6.00833" fill="#F8F8F8"/>
<g clip-path="url(#clip0)">
<path d="M29.6016 17.5322H34.1078C34.9046 17.5322 35.6687 17.8487 36.2321 18.4121C36.7955 18.9755 37.112 19.7396 37.112 20.5364V31.051C37.112 30.4534 36.8746 29.8803 36.4521 29.4578C36.0295 29.0352 35.4564 28.7979 34.8589 28.7979H29.6016V17.5322Z" stroke="#2B1C1C" stroke-width="1.50208" stroke-linecap="round" stroke-linejoin="round"/>
<path d="M44.6222 17.5322H40.116C39.3192 17.5322 38.5551 17.8487 37.9917 18.4121C37.4283 18.9755 37.1118 19.7396 37.1118 20.5364V31.051C37.1118 30.4534 37.3492 29.8803 37.7717 29.4578C38.1943 29.0352 38.7674 28.7979 39.3649 28.7979H44.6222V17.5322Z" stroke="#2B1C1C" stroke-width="1.50208" stroke-linecap="round" stroke-linejoin="round"/>
</g>
<path d="M12.5826 61.3242L11.794 59.0035H8.6171L7.8285 61.3242H6.87093L9.61974 53.4608H10.8252L13.574 61.3242H12.5826ZM10.2281 54.3395H10.1718L8.84241 58.1698H11.5574L10.2281 54.3395ZM16.6453 61.4594C16.1045 61.4594 15.6501 61.358 15.2821 61.1552C14.9216 60.9449 14.6099 60.6671 14.3471 60.3216L14.9892 59.8034C15.2145 60.0888 15.4661 60.3103 15.744 60.468C16.0219 60.6182 16.3448 60.6933 16.7129 60.6933C17.0959 60.6933 17.3926 60.6107 17.6028 60.4455C17.8206 60.2803 17.9295 60.0474 17.9295 59.747C17.9295 59.5217 17.8544 59.3302 17.7042 59.1725C17.5615 59.0073 17.2987 58.8946 16.9156 58.8345L16.4537 58.7669C16.1834 58.7294 15.9355 58.673 15.7102 58.5979C15.4849 58.5153 15.2859 58.4102 15.1131 58.2825C14.9479 58.1473 14.8165 57.9821 14.7188 57.7868C14.6287 57.5915 14.5837 57.3587 14.5837 57.0883C14.5837 56.8029 14.6362 56.5551 14.7414 56.3448C14.8465 56.127 14.9892 55.9468 15.1695 55.8041C15.3572 55.6614 15.5788 55.5562 15.8341 55.4886C16.0895 55.4135 16.3636 55.376 16.6565 55.376C17.1297 55.376 17.524 55.4586 17.8394 55.6238C18.1624 55.789 18.444 56.0181 18.6843 56.311L18.0873 56.8518C17.9596 56.6715 17.7718 56.51 17.524 56.3673C17.2761 56.2171 16.9645 56.142 16.5889 56.142C16.2134 56.142 15.928 56.2246 15.7327 56.3899C15.545 56.5476 15.4511 56.7654 15.4511 57.0433C15.4511 57.3287 15.545 57.5352 15.7327 57.6629C15.928 57.7906 16.2059 57.8844 16.5664 57.9445L17.017 58.0121C17.6629 58.1098 18.1211 58.2975 18.3914 58.5754C18.6618 58.8458 18.797 59.2025 18.797 59.6456C18.797 60.2089 18.6055 60.652 18.2225 60.975C17.8394 61.2979 17.3137 61.4594 16.6453 61.4594ZM22.1817 61.4594C21.641 61.4594 21.1866 61.358 20.8186 61.1552C20.4581 60.9449 20.1464 60.6671 19.8835 60.3216L20.5257 59.8034C20.751 60.0888 21.0026 60.3103 21.2805 60.468C21.5583 60.6182 21.8813 60.6933 22.2493 60.6933C22.6323 60.6933 22.929 60.6107 23.1393 60.4455C23.3571 60.2803 23.466 60.0474 23.466 59.747C23.466 59.5217 23.3909 59.3302 23.2407 59.1725C23.098 59.0073 22.8351 58.8946 22.4521 58.8345L21.9902 58.7669C21.7198 58.7294 21.472 58.673 21.2467 58.5979C21.0213 58.5153 20.8223 58.4102 20.6496 58.2825C20.4843 58.1473 20.3529 57.9821 20.2553 57.7868C20.1652 57.5915 20.1201 57.3587 20.1201 57.0883C20.1201 56.8029 20.1727 56.5551 20.2778 56.3448C20.383 56.127 20.5257 55.9468 20.7059 55.8041C20.8937 55.6614 21.1152 55.5562 21.3706 55.4886C21.6259 55.4135 21.9001 55.376 22.193 55.376C22.6661 55.376 23.0604 55.4586 23.3759 55.6238C23.6988 55.789 23.9804 56.0181 24.2208 56.311L23.6237 56.8518C23.496 56.6715 23.3083 56.51 23.0604 56.3673C22.8126 56.2171 22.5009 56.142 22.1254 56.142C21.7499 56.142 21.4645 56.2246 21.2692 56.3899C21.0814 56.5476 20.9875 56.7654 20.9875 57.0433C20.9875 57.3287 21.0814 57.5352 21.2692 57.6629C21.4645 57.7906 21.7423 57.8844 22.1028 57.9445L22.5535 58.0121C23.1994 58.1098 23.6575 58.2975 23.9279 58.5754C24.1983 58.8458 24.3334 59.2025 24.3334 59.6456C24.3334 60.2089 24.1419 60.652 23.7589 60.975C23.3759 61.2979 22.8501 61.4594 22.1817 61.4594ZM26.4886 54.148C26.2933 54.148 26.1506 54.103 26.0605 54.0128C25.9779 53.9152 25.9366 53.7913 25.9366 53.6411V53.4946C25.9366 53.3444 25.9779 53.2242 26.0605 53.1341C26.1506 53.0365 26.2933 52.9877 26.4886 52.9877C26.6839 52.9877 26.8228 53.0365 26.9054 53.1341C26.9956 53.2242 27.0406 53.3444 27.0406 53.4946V53.6411C27.0406 53.7913 26.9956 53.9152 26.9054 54.0128C26.8228 54.103 26.6839 54.148 26.4886 54.148ZM26.038 55.5112H26.9392V61.3242H26.038V55.5112ZM33.8676 61.9664C33.8676 62.5672 33.631 63.0066 33.1579 63.2844C32.6922 63.5698 31.99 63.7125 31.0512 63.7125C30.1424 63.7125 29.489 63.5886 29.091 63.3408C28.6929 63.0929 28.4939 62.7399 28.4939 62.2818C28.4939 61.9664 28.5765 61.7185 28.7417 61.5383C28.907 61.3655 29.1323 61.2378 29.4177 61.1552V61.0313C29.0722 60.8661 28.8994 60.5957 28.8994 60.2202C28.8994 59.9273 28.9933 59.7057 29.1811 59.5555C29.3688 59.3978 29.6092 59.2814 29.9021 59.2063V59.1612C29.5566 58.996 29.2862 58.7594 29.091 58.4515C28.9032 58.1436 28.8093 57.7868 28.8093 57.3812C28.8093 57.0883 28.8619 56.818 28.967 56.5701C29.0722 56.3223 29.2186 56.112 29.4064 55.9392C29.6017 55.759 29.8307 55.6201 30.0936 55.5224C30.364 55.4248 30.6644 55.376 30.9949 55.376C31.4079 55.376 31.7759 55.4511 32.0989 55.6013V55.4999C32.0989 55.2746 32.1515 55.0906 32.2566 54.9479C32.3618 54.7977 32.5345 54.7226 32.7748 54.7226H33.6423V55.5112H32.5382V55.8829C32.7485 56.0632 32.91 56.281 33.0227 56.5363C33.1428 56.7842 33.2029 57.0658 33.2029 57.3812C33.2029 57.6742 33.1503 57.9445 33.0452 58.1924C32.9401 58.4402 32.7898 58.6543 32.5946 58.8345C32.4068 59.0073 32.1777 59.1424 31.9074 59.2401C31.637 59.3377 31.3366 59.3865 31.0061 59.3865C30.8184 59.3865 30.6306 59.3678 30.4428 59.3302C30.2476 59.3828 30.0711 59.4616 29.9134 59.5668C29.7556 59.6644 29.6768 59.8034 29.6768 59.9836C29.6768 60.1563 29.7594 60.2728 29.9246 60.3328C30.0898 60.3929 30.3039 60.423 30.5668 60.423H31.806C32.527 60.423 33.049 60.5619 33.3719 60.8398C33.7024 61.1102 33.8676 61.4857 33.8676 61.9664ZM33.0227 62.034C33.0227 61.8011 32.9325 61.6134 32.7523 61.4707C32.5796 61.3355 32.2679 61.2679 31.8172 61.2679H29.8796C29.5191 61.4331 29.3388 61.696 29.3388 62.0565C29.3388 62.3118 29.4327 62.5296 29.6204 62.7099C29.8157 62.8901 30.1424 62.9803 30.6006 62.9803H31.4342C31.9374 62.9803 32.328 62.9014 32.6058 62.7437C32.8837 62.586 33.0227 62.3494 33.0227 62.034ZM31.0061 58.6655C31.3892 58.6655 31.6933 58.5754 31.9186 58.3952C32.1439 58.2074 32.2566 57.922 32.2566 57.539V57.2235C32.2566 56.8405 32.1439 56.5589 31.9186 56.3786C31.6933 56.1908 31.3892 56.097 31.0061 56.097C30.6231 56.097 30.3189 56.1908 30.0936 56.3786C29.8683 56.5589 29.7556 56.8405 29.7556 57.2235V57.539C29.7556 57.922 29.8683 58.2074 30.0936 58.3952C30.3189 58.5754 30.6231 58.6655 31.0061 58.6655ZM35.0316 61.3242V55.5112H35.9328V56.4575H35.9779C36.1206 56.127 36.3196 55.8641 36.5749 55.6689C36.8378 55.4736 37.187 55.376 37.6227 55.376C38.2235 55.376 38.6966 55.5712 39.0421 55.9618C39.3951 56.3448 39.5716 56.8893 39.5716 57.5953V61.3242H38.6704V57.753C38.6704 56.7091 38.231 56.1871 37.3523 56.1871C37.172 56.1871 36.9955 56.2096 36.8228 56.2547C36.6576 56.2997 36.5074 56.3673 36.3722 56.4575C36.237 56.5476 36.1281 56.664 36.0455 56.8067C35.9704 56.9419 35.9328 57.1034 35.9328 57.2911V61.3242H35.0316ZM41.5471 61.3242V55.5112H42.4484V56.4575H42.4935C42.561 56.3073 42.6362 56.1683 42.7188 56.0406C42.8089 55.9055 42.914 55.789 43.0342 55.6914C43.1619 55.5938 43.3083 55.5187 43.4736 55.4661C43.6388 55.406 43.8341 55.376 44.0594 55.376C44.4424 55.376 44.7954 55.4698 45.1183 55.6576C45.4413 55.8379 45.6816 56.1383 45.8393 56.5589H45.8619C45.967 56.2434 46.1623 55.9693 46.4477 55.7365C46.7406 55.4961 47.1349 55.376 47.6306 55.376C48.2239 55.376 48.6858 55.5712 49.0162 55.9618C49.3542 56.3448 49.5232 56.8893 49.5232 57.5953V61.3242H48.622V57.753C48.622 57.2348 48.5206 56.8443 48.3178 56.5814C48.115 56.3185 47.7921 56.1871 47.3489 56.1871C47.1687 56.1871 46.9959 56.2096 46.8307 56.2547C46.673 56.2997 46.5303 56.3673 46.4026 56.4575C46.2749 56.5476 46.1736 56.664 46.0985 56.8067C46.0233 56.9419 45.9858 57.1034 45.9858 57.2911V61.3242H45.0845V57.753C45.0845 57.2348 44.9832 56.8443 44.7804 56.5814C44.5776 56.3185 44.2622 56.1871 43.8341 56.1871C43.6538 56.1871 43.4811 56.2096 43.3158 56.2547C43.1506 56.2997 43.0042 56.3673 42.8765 56.4575C42.7488 56.5476 42.6437 56.664 42.561 56.8067C42.4859 56.9419 42.4484 57.1034 42.4484 57.2911V61.3242H41.5471ZM53.6807 61.4594C53.2827 61.4594 52.9222 61.3881 52.5992 61.2454C52.2838 61.1027 52.0097 60.8999 51.7769 60.637C51.5515 60.3666 51.375 60.0474 51.2474 59.6794C51.1272 59.3039 51.0671 58.8833 51.0671 58.4177C51.0671 57.9596 51.1272 57.5427 51.2474 57.1672C51.375 56.7917 51.5515 56.4725 51.7769 56.2096C52.0097 55.9392 52.2838 55.7327 52.5992 55.59C52.9222 55.4473 53.2827 55.376 53.6807 55.376C54.0713 55.376 54.4205 55.4473 54.7284 55.59C55.0364 55.7327 55.2992 55.9317 55.517 56.1871C55.7348 56.4349 55.9001 56.7316 56.0127 57.0771C56.1329 57.4226 56.193 57.8018 56.193 58.2149V58.643H52.0134V58.9134C52.0134 59.1612 52.051 59.394 52.1261 59.6118C52.2087 59.8221 52.3214 60.0061 52.4641 60.1639C52.6143 60.3216 52.7945 60.4455 53.0048 60.5356C53.2226 60.6257 53.4667 60.6708 53.7371 60.6708C54.1051 60.6708 54.4243 60.5844 54.6947 60.4117C54.9725 60.239 55.1866 59.9911 55.3368 59.6682L55.9789 60.1301C55.7912 60.5281 55.4983 60.8511 55.1002 61.0989C54.7022 61.3392 54.229 61.4594 53.6807 61.4594ZM53.6807 56.1308C53.4329 56.1308 53.2076 56.1758 53.0048 56.266C52.802 56.3486 52.6255 56.4687 52.4753 56.6265C52.3326 56.7842 52.22 56.9719 52.1374 57.1897C52.0547 57.4 52.0134 57.6328 52.0134 57.8882V57.9671H55.2241V57.8431C55.2241 57.3249 55.0814 56.9118 54.796 56.6039C54.5182 56.2885 54.1464 56.1308 53.6807 56.1308ZM57.7908 61.3242V55.5112H58.692V56.4575H58.7371C58.8798 56.127 59.0788 55.8641 59.3342 55.6689C59.597 55.4736 59.9463 55.376 60.3819 55.376C60.9827 55.376 61.4558 55.5712 61.8013 55.9618C62.1543 56.3448 62.3308 56.8893 62.3308 57.5953V61.3242H61.4296V57.753C61.4296 56.7091 60.9902 56.1871 60.1115 56.1871C59.9312 56.1871 59.7547 56.2096 59.582 56.2547C59.4168 56.2997 59.2666 56.3673 59.1314 56.4575C58.9962 56.5476 58.8873 56.664 58.8047 56.8067C58.7296 56.9419 58.692 57.1034 58.692 57.2911V61.3242H57.7908ZM65.5906 61.3242C65.2752 61.3242 65.0349 61.2378 64.8696 61.0651C64.7119 60.8849 64.633 60.652 64.633 60.3666V56.2997H63.6755V55.5112H64.2162C64.4115 55.5112 64.5429 55.4736 64.6105 55.3985C64.6856 55.3159 64.7232 55.1769 64.7232 54.9817V53.9002H65.5343V55.5112H66.8073V56.2997H65.5343V60.5356H66.7172V61.3242H65.5906Z" fill="#645262"/>
<defs>
<clipPath id="clip0">
<rect width="18.025" height="18.025" fill="white" transform="translate(28.0996 15.2793)"/>
</clipPath>
</defs>
</svg>
