<svg width="49" height="74" viewBox="0 0 49 74" fill="none" xmlns="http://www.w3.org/2000/svg">
<rect x="0.763672" y="0.308594" width="48.0667" height="73.075" rx="1.50208" fill="white"/>
<rect x="6.77246" y="6.31689" width="36.05" height="36.05" rx="6.00833" fill="#F8F8F8"/>
<path d="M18.0381 28.8481V24.3419C18.0381 22.5492 18.7502 20.8299 20.0179 19.5623C21.2855 18.2947 23.0048 17.5825 24.7975 17.5825C26.5902 17.5825 28.3094 18.2947 29.5771 19.5623C30.8447 20.8299 31.5568 22.5492 31.5568 24.3419V28.8481" stroke="#2B1C1C" stroke-width="1.50208" stroke-linecap="round" stroke-linejoin="round"/>
<path d="M31.5568 29.5994C31.5568 29.9978 31.3986 30.3799 31.1169 30.6616C30.8352 30.9433 30.4531 31.1015 30.0548 31.1015H29.3037C28.9053 31.1015 28.5233 30.9433 28.2416 30.6616C27.9599 30.3799 27.8016 29.9978 27.8016 29.5994V27.3463C27.8016 26.9479 27.9599 26.5659 28.2416 26.2842C28.5233 26.0025 28.9053 25.8442 29.3037 25.8442H31.5568V29.5994ZM18.0381 29.5994C18.0381 29.9978 18.1963 30.3799 18.478 30.6616C18.7597 30.9433 19.1418 31.1015 19.5402 31.1015H20.2912C20.6896 31.1015 21.0716 30.9433 21.3533 30.6616C21.635 30.3799 21.7933 29.9978 21.7933 29.5994V27.3463C21.7933 26.9479 21.635 26.5659 21.3533 26.2842C21.0716 26.0025 20.6896 25.8442 20.2912 25.8442H18.0381V29.5994Z" stroke="#2B1C1C" stroke-width="1.50208" stroke-linecap="round" stroke-linejoin="round"/>
<path d="M15.7677 61.3755L14.9791 59.0548H11.8022L11.0136 61.3755H10.056L12.8048 53.5121H14.0102L16.759 61.3755H15.7677ZM13.4131 54.3908H13.3568L12.0275 58.2211H14.7425L13.4131 54.3908ZM21.6666 60.4292H21.6216C21.5615 60.5644 21.4864 60.6996 21.3962 60.8347C21.3136 60.9624 21.2085 61.0788 21.0808 61.184C20.9531 61.2816 20.7992 61.3605 20.6189 61.4206C20.4387 61.4806 20.2284 61.5107 19.988 61.5107C19.3872 61.5107 18.9103 61.3192 18.5573 60.9361C18.2043 60.5456 18.0278 59.9973 18.0278 59.2913V55.5624H18.9291V59.1336C18.9291 60.1776 19.3722 60.6996 20.2584 60.6996C20.4387 60.6996 20.6114 60.677 20.7766 60.632C20.9494 60.5869 21.0996 60.5193 21.2273 60.4292C21.3624 60.3391 21.4676 60.2264 21.5427 60.0912C21.6253 59.9485 21.6666 59.7795 21.6666 59.5843V55.5624H22.5679V61.3755H21.6666V60.4292ZM28.3174 60.4292H28.2723C27.9193 61.1502 27.3523 61.5107 26.5712 61.5107C26.2107 61.5107 25.884 61.4393 25.5911 61.2966C25.2982 61.1539 25.0466 60.9511 24.8363 60.6883C24.6335 60.4254 24.4758 60.1062 24.3632 59.7307C24.258 59.3552 24.2054 58.9346 24.2054 58.469C24.2054 58.0033 24.258 57.5827 24.3632 57.2072C24.4758 56.8317 24.6335 56.5125 24.8363 56.2496C25.0466 55.9868 25.2982 55.784 25.5911 55.6413C25.884 55.4986 26.2107 55.4272 26.5712 55.4272C26.9768 55.4272 27.3223 55.5174 27.6077 55.6976C27.9006 55.8704 28.1221 56.1407 28.2723 56.5087H28.3174V53.0389H29.2186V61.3755H28.3174V60.4292ZM26.8191 60.6996C27.0218 60.6996 27.2134 60.6733 27.3936 60.6207C27.5814 60.5681 27.7428 60.493 27.878 60.3954C28.0132 60.2902 28.1184 60.1663 28.1935 60.0236C28.2761 59.8734 28.3174 59.7044 28.3174 59.5167V57.3537C28.3174 57.1959 28.2761 57.0495 28.1935 56.9143C28.1184 56.7716 28.0132 56.6514 27.878 56.5538C27.7428 56.4562 27.5814 56.3811 27.3936 56.3285C27.2134 56.2684 27.0218 56.2384 26.8191 56.2384C26.3084 56.2384 25.9065 56.3998 25.6136 56.7228C25.3207 57.0382 25.1743 57.4551 25.1743 57.9733V58.9646C25.1743 59.4829 25.3207 59.9034 25.6136 60.2264C25.9065 60.5418 26.3084 60.6996 26.8191 60.6996ZM31.698 54.1993C31.5027 54.1993 31.36 54.1542 31.2699 54.0641C31.1872 53.9665 31.1459 53.8425 31.1459 53.6923V53.5459C31.1459 53.3957 31.1872 53.2755 31.2699 53.1854C31.36 53.0877 31.5027 53.0389 31.698 53.0389C31.8932 53.0389 32.0322 53.0877 32.1148 53.1854C32.2049 53.2755 32.25 53.3957 32.25 53.5459V53.6923C32.25 53.8425 32.2049 53.9665 32.1148 54.0641C32.0322 54.1542 31.8932 54.1993 31.698 54.1993ZM31.2473 55.5624H32.1486V61.3755H31.2473V55.5624ZM36.3732 61.5107C35.9826 61.5107 35.6259 61.4393 35.303 61.2966C34.98 61.1539 34.7021 60.9511 34.4693 60.6883C34.244 60.4179 34.0675 60.0987 33.9398 59.7307C33.8121 59.3552 33.7483 58.9346 33.7483 58.469C33.7483 58.0108 33.8121 57.594 33.9398 57.2185C34.0675 56.843 34.244 56.5238 34.4693 56.2609C34.7021 55.9905 34.98 55.784 35.303 55.6413C35.6259 55.4986 35.9826 55.4272 36.3732 55.4272C36.7637 55.4272 37.1167 55.4986 37.4322 55.6413C37.7551 55.784 38.033 55.9905 38.2658 56.2609C38.4986 56.5238 38.6789 56.843 38.8066 57.2185C38.9342 57.594 38.9981 58.0108 38.9981 58.469C38.9981 58.9346 38.9342 59.3552 38.8066 59.7307C38.6789 60.0987 38.4986 60.4179 38.2658 60.6883C38.033 60.9511 37.7551 61.1539 37.4322 61.2966C37.1167 61.4393 36.7637 61.5107 36.3732 61.5107ZM36.3732 60.7108C36.8614 60.7108 37.2594 60.5606 37.5673 60.2602C37.8753 59.9598 38.0292 59.5016 38.0292 58.8858V58.0521C38.0292 57.4363 37.8753 56.9781 37.5673 56.6777C37.2594 56.3773 36.8614 56.2271 36.3732 56.2271C35.885 56.2271 35.487 56.3773 35.179 56.6777C34.8711 56.9781 34.7171 57.4363 34.7171 58.0521V58.8858C34.7171 59.5016 34.8711 59.9598 35.179 60.2602C35.487 60.5606 35.885 60.7108 36.3732 60.7108Z" fill="#645262"/>
</svg>
