<svg width="49" height="74" viewBox="0 0 49 74" fill="none" xmlns="http://www.w3.org/2000/svg">
<rect x="0.325195" y="0.257812" width="48.0667" height="73.075" rx="1.50208" fill="white"/>
<rect x="6.3335" y="6.2666" width="36.05" height="36.05" rx="6.00833" fill="#E5EEFA"/>
<path d="M17.5991 28.7979V24.2916C17.5991 22.4989 18.3113 20.7796 19.5789 19.512C20.8465 18.2444 22.5658 17.5322 24.3585 17.5322C26.1512 17.5322 27.8705 18.2444 29.1381 19.512C30.4057 20.7796 31.1179 22.4989 31.1179 24.2916V28.7979" stroke="#431288" stroke-width="1.50208" stroke-linecap="round" stroke-linejoin="round"/>
<path d="M31.1179 29.5492C31.1179 29.9475 30.9596 30.3296 30.6779 30.6113C30.3962 30.893 30.0142 31.0512 29.6158 31.0512H28.8647C28.4664 31.0512 28.0843 30.893 27.8026 30.6113C27.5209 30.3296 27.3627 29.9475 27.3627 29.5492V27.296C27.3627 26.8977 27.5209 26.5156 27.8026 26.2339C28.0843 25.9522 28.4664 25.7939 28.8647 25.7939H31.1179V29.5492ZM17.5991 29.5492C17.5991 29.9475 17.7574 30.3296 18.0391 30.6113C18.3208 30.893 18.7028 31.0512 19.1012 31.0512H19.8522C20.2506 31.0512 20.6327 30.893 20.9144 30.6113C21.1961 30.3296 21.3543 29.9475 21.3543 29.5492V27.296C21.3543 26.8977 21.1961 26.5156 20.9144 26.2339C20.6327 25.9522 20.2506 25.7939 19.8522 25.7939H17.5991V29.5492Z" stroke="#431288" stroke-width="1.50208" stroke-linecap="round" stroke-linejoin="round"/>
<path d="M14.7391 61.3242L14.0293 59.195H11.089L10.4018 61.3242H9.10624L11.7875 53.4608H13.3872L16.0684 61.3242H14.7391ZM12.5873 54.6324H12.531L11.3932 58.1022H13.7139L12.5873 54.6324ZM20.8575 60.3554H20.8125C20.7599 60.4981 20.6885 60.637 20.5984 60.7722C20.5158 60.9074 20.4069 61.0276 20.2717 61.1327C20.144 61.2303 19.9863 61.3092 19.7986 61.3693C19.6183 61.4294 19.408 61.4594 19.1677 61.4594C18.5593 61.4594 18.0862 61.2641 17.7482 60.8736C17.4178 60.4831 17.2525 59.9235 17.2525 59.195V55.4661H18.4805V59.0373C18.4805 59.9461 18.856 60.4004 19.607 60.4004C19.7648 60.4004 19.9187 60.3817 20.0689 60.3441C20.2191 60.299 20.3506 60.2352 20.4632 60.1526C20.5834 60.07 20.6773 59.9648 20.7449 59.8372C20.82 59.7095 20.8575 59.5593 20.8575 59.3865V55.4661H22.0855V61.3242H20.8575V60.3554ZM27.6403 60.3554H27.584C27.4563 60.7009 27.246 60.9712 26.9531 61.1665C26.6677 61.3618 26.3297 61.4594 25.9392 61.4594C25.1957 61.4594 24.6211 61.1928 24.2156 60.6595C23.81 60.1188 23.6072 59.364 23.6072 58.3952C23.6072 57.4263 23.81 56.6753 24.2156 56.142C24.6211 55.6013 25.1957 55.3309 25.9392 55.3309C26.3297 55.3309 26.6677 55.4285 26.9531 55.6238C27.246 55.8116 27.4563 56.0819 27.584 56.4349H27.6403V52.9877H28.8683V61.3242H27.6403V60.3554ZM26.311 60.4004C26.6865 60.4004 27.0019 60.3103 27.2573 60.1301C27.5126 59.9423 27.6403 59.6982 27.6403 59.3978V57.3925C27.6403 57.0921 27.5126 56.8518 27.2573 56.6715C27.0019 56.4838 26.6865 56.3899 26.311 56.3899C25.8829 56.3899 25.5411 56.5288 25.2858 56.8067C25.0304 57.0771 24.9028 57.4376 24.9028 57.8882V58.9021C24.9028 59.3527 25.0304 59.717 25.2858 59.9949C25.5411 60.2652 25.8829 60.4004 26.311 60.4004ZM31.3557 54.4184C31.1003 54.4184 30.9126 54.3583 30.7924 54.2381C30.6797 54.118 30.6234 53.964 30.6234 53.7762V53.5847C30.6234 53.397 30.6797 53.243 30.7924 53.1228C30.9126 53.0027 31.1003 52.9426 31.3557 52.9426C31.611 52.9426 31.795 53.0027 31.9077 53.1228C32.0203 53.243 32.0767 53.397 32.0767 53.5847V53.7762C32.0767 53.964 32.0203 54.118 31.9077 54.2381C31.795 54.3583 31.611 54.4184 31.3557 54.4184ZM30.7361 55.4661H31.964V61.3242H30.7361V55.4661ZM36.1283 61.4594C35.7228 61.4594 35.351 61.3881 35.013 61.2454C34.6826 61.1027 34.4009 60.8999 34.1681 60.637C33.9353 60.3666 33.755 60.0437 33.6274 59.6682C33.4997 59.2851 33.4359 58.8608 33.4359 58.3952C33.4359 57.9295 33.4997 57.5089 33.6274 57.1334C33.755 56.7504 33.9353 56.4274 34.1681 56.1646C34.4009 55.8942 34.6826 55.6877 35.013 55.545C35.351 55.4023 35.7228 55.3309 36.1283 55.3309C36.5339 55.3309 36.9019 55.4023 37.2324 55.545C37.5703 55.6877 37.8557 55.8942 38.0886 56.1646C38.3214 56.4274 38.5016 56.7504 38.6293 57.1334C38.757 57.5089 38.8208 57.9295 38.8208 58.3952C38.8208 58.8608 38.757 59.2851 38.6293 59.6682C38.5016 60.0437 38.3214 60.3666 38.0886 60.637C37.8557 60.8999 37.5703 61.1027 37.2324 61.2454C36.9019 61.3881 36.5339 61.4594 36.1283 61.4594ZM36.1283 60.4455C36.5489 60.4455 36.8869 60.3178 37.1422 60.0625C37.3976 59.7996 37.5253 59.4091 37.5253 58.8908V57.8995C37.5253 57.3812 37.3976 56.9945 37.1422 56.7391C36.8869 56.4762 36.5489 56.3448 36.1283 56.3448C35.7078 56.3448 35.3698 56.4762 35.1144 56.7391C34.8591 56.9945 34.7314 57.3812 34.7314 57.8995V58.8908C34.7314 59.4091 34.8591 59.7996 35.1144 60.0625C35.3698 60.3178 35.7078 60.4455 36.1283 60.4455Z" fill="#431288"/>
</svg>
