<svg width="700" height="401" viewBox="0 0 784 401" fill="none" xmlns="http://www.w3.org/2000/svg">
<g id="desk-illo">
<g id="Group">
<path id="Vector" d="M572.589 21.6679L573.653 20.5077C574.62 19.3474 576.36 19.2507 577.52 20.2176L578.68 21.2812L580.421 19.2507L579.261 18.1871C578.1 17.2203 578.004 15.4799 578.971 14.3196L580.034 13.1593L578.004 11.4189L576.94 12.5792C575.973 13.7395 574.233 13.8362 573.073 12.8693L571.912 11.8057L570.172 13.8362L571.332 14.8997C572.492 15.8666 572.589 17.607 571.622 18.7673L570.559 19.9275L572.589 21.6679Z" fill="#2B1C1C"/>
<path id="Vector_2" d="M512.932 72.236L513.512 71.5592C514.092 70.8824 515.059 70.8824 515.736 71.3658L516.413 71.946L517.476 70.7857L516.799 70.2056C516.122 69.6254 516.122 68.6585 516.606 67.9817L517.186 67.3049L516.026 66.2413L515.446 66.9181C514.866 67.595 513.899 67.595 513.222 67.1115L512.545 66.5314L511.481 67.6917L512.158 68.2718C512.835 68.8519 512.835 69.8188 512.352 70.4956L511.771 71.1724L512.932 72.236Z" fill="#2B1C1C"/>
<path id="Vector_3" d="M607.493 111.782L607.977 111.298C608.363 110.815 609.137 110.718 609.62 111.201L610.104 111.685L610.877 110.815L610.394 110.331C609.91 109.944 609.814 109.171 610.297 108.687L610.781 108.204L609.91 107.431L609.427 107.914C609.04 108.397 608.267 108.494 607.783 108.011L607.3 107.527L606.526 108.397L607.01 108.881C607.493 109.268 607.59 110.041 607.107 110.525L606.623 111.008L607.493 111.782Z" fill="#2B1C1C"/>
<path id="Vector_4" d="M560.793 80.9379L561.373 80.2611C561.953 79.5843 562.92 79.5843 563.597 80.0677L564.274 80.6479L565.337 79.4876L564.661 78.9075C563.984 78.3273 563.984 77.3604 564.467 76.6836L565.047 76.0068L563.887 74.9432L563.307 75.6201C562.727 76.2969 561.76 76.2969 561.083 75.8134L560.406 75.2333L559.343 76.3936L560.02 76.9737C560.696 77.5538 560.696 78.5207 560.213 79.1975L559.633 79.8743L560.793 80.9379Z" fill="#2B1C1C"/>
<path id="Vector_5" d="M548.224 139.241L548.514 138.854C548.804 138.564 549.287 138.467 549.577 138.758L549.964 139.048L550.448 138.467L550.061 138.177C549.771 137.887 549.674 137.404 549.964 137.114L550.254 136.727L549.674 136.244L549.384 136.63C549.094 136.92 548.61 137.017 548.32 136.727L547.934 136.437L547.45 137.017L547.837 137.307C548.127 137.597 548.224 138.081 547.934 138.371L547.644 138.758L548.224 139.241Z" fill="#2B1C1C"/>
<path id="Vector_6" d="M521.44 192.226L521.634 192.033C521.731 191.84 522.021 191.84 522.214 192.033L522.407 192.226L522.697 191.936L522.504 191.743C522.311 191.646 522.311 191.356 522.504 191.163L522.697 190.969L522.407 190.679L522.214 190.873C522.117 191.066 521.827 191.066 521.634 190.873L521.44 190.679L521.15 190.969L521.344 191.163C521.537 191.259 521.537 191.55 521.344 191.743L521.15 191.936L521.44 192.226Z" fill="#2B1C1C"/>
<path id="Vector_7" d="M574.909 124.351L575.199 123.964C575.489 123.674 575.973 123.577 576.263 123.868L576.65 124.158L577.133 123.577L576.746 123.287C576.456 122.997 576.36 122.514 576.65 122.224L576.94 121.837L576.36 121.354L576.07 121.74C575.779 122.03 575.296 122.127 575.006 121.837L574.619 121.547L574.136 122.127L574.523 122.417C574.813 122.707 574.909 123.191 574.619 123.481L574.329 123.868L574.909 124.351Z" fill="#2B1C1C"/>
<path id="Vector_8" d="M593.474 160.126L593.764 159.739C594.054 159.449 594.537 159.352 594.827 159.642L595.214 159.932L595.698 159.352L595.311 159.062C595.021 158.772 594.924 158.289 595.214 157.999L595.504 157.612L594.924 157.128L594.634 157.515C594.344 157.805 593.86 157.902 593.57 157.612L593.184 157.322L592.7 157.902L593.087 158.192C593.377 158.482 593.474 158.965 593.184 159.256L592.894 159.642L593.474 160.126Z" fill="#2B1C1C"/>
<path id="Vector_9" d="M575.876 167.764L576.166 167.377C576.456 167.087 576.94 166.991 577.23 167.281L577.616 167.571L578.1 166.991L577.713 166.701C577.423 166.411 577.326 165.927 577.616 165.637L577.907 165.25L577.326 164.767L577.036 165.154C576.746 165.444 576.263 165.54 575.973 165.25L575.586 164.96L575.103 165.54L575.489 165.83C575.779 166.12 575.876 166.604 575.586 166.894L575.296 167.281L575.876 167.764Z" fill="#2B1C1C"/>
<path id="Vector_10" d="M555.185 46.5169L555.378 46.3235C555.475 46.1301 555.765 46.1301 555.958 46.3235L556.151 46.5169L556.441 46.2268L556.248 46.0334C556.055 45.9367 556.055 45.6467 556.248 45.4533L556.441 45.2599L556.151 44.9698L555.958 45.1632C555.861 45.3566 555.571 45.3566 555.378 45.1632L555.185 44.9698L554.895 45.2599L555.088 45.4533C555.281 45.55 555.281 45.84 555.088 46.0334L554.895 46.2268L555.185 46.5169Z" fill="#2B1C1C"/>
<path id="Vector_11" d="M508.001 26.1156L508.291 25.7289C508.581 25.4388 509.065 25.3421 509.355 25.6322L509.741 25.9222L510.225 25.3421L509.838 25.0521C509.548 24.762 509.451 24.2785 509.741 23.9885L510.032 23.6017L509.451 23.1183L509.161 23.505C508.871 23.7951 508.388 23.8918 508.098 23.6017L507.711 23.3117L507.228 23.8918L507.614 24.1819C507.904 24.4719 508.001 24.9554 507.711 25.2454L507.421 25.6322L508.001 26.1156Z" fill="#2B1C1C"/>
<path id="Vector_12" d="M526.469 48.7408L526.759 48.354C527.049 48.0639 527.532 47.9672 527.822 48.2573L528.209 48.5474L528.693 47.9672L528.306 47.6772C528.016 47.3871 527.919 46.9037 528.209 46.6136L528.499 46.2269L527.919 45.7434L527.629 46.1302C527.339 46.4202 526.856 46.5169 526.565 46.2269L526.179 45.9368L525.695 46.5169L526.082 46.807C526.372 47.097 526.469 47.5805 526.179 47.8706L525.889 48.2573L526.469 48.7408Z" fill="#2B1C1C"/>
<path id="Vector_13" d="M537.685 14.6096L537.878 14.4163C537.975 14.2229 538.265 14.2229 538.458 14.4163L538.651 14.6096L538.942 14.3196L538.748 14.1262C538.555 14.0295 538.555 13.7394 538.748 13.5461L538.942 13.3527L538.651 13.0626L538.458 13.256C538.361 13.4494 538.071 13.4494 537.878 13.256L537.685 13.0626L537.395 13.3527L537.588 13.5461C537.781 13.6428 537.781 13.9328 537.588 14.1262L537.395 14.3196L537.685 14.6096Z" fill="#2B1C1C"/>
<path id="Vector_14" d="M593.86 67.4015L594.054 67.2081C594.15 67.0148 594.44 67.0148 594.634 67.2081L594.827 67.4015L595.117 67.1114L594.924 66.9181C594.731 66.8214 594.731 66.5313 594.924 66.3379L595.117 66.1446L594.827 65.8545L594.634 66.0479C594.537 66.2413 594.247 66.2413 594.054 66.0479L593.86 65.8545L593.57 66.1446L593.764 66.3379C593.957 66.4346 593.957 66.7247 593.764 66.9181L593.57 67.1114L593.86 67.4015Z" fill="#2B1C1C"/>
<path id="Vector_15" d="M622.093 144.752L622.286 144.559C622.383 144.366 622.673 144.366 622.866 144.559L623.06 144.752L623.35 144.462L623.156 144.269C622.963 144.172 622.963 143.882 623.156 143.689L623.35 143.495L623.06 143.205L622.866 143.399C622.77 143.592 622.48 143.592 622.286 143.399L622.093 143.205L621.803 143.495L621.996 143.689C622.19 143.785 622.19 144.076 621.996 144.269L621.803 144.462L622.093 144.752Z" fill="#2B1C1C"/>
<path id="Vector_16" d="M604.206 194.063L604.399 193.87C604.496 193.677 604.786 193.677 604.98 193.87L605.173 194.063L605.463 193.773L605.27 193.58C605.076 193.483 605.076 193.193 605.27 193L605.463 192.806L605.173 192.516L604.98 192.71C604.883 192.903 604.593 192.903 604.399 192.71L604.206 192.516L603.916 192.806L604.109 193C604.303 193.096 604.303 193.387 604.109 193.58L603.916 193.773L604.206 194.063Z" fill="#2B1C1C"/>
<path id="Vector_17" d="M551.124 223.36L551.317 223.167C551.414 222.973 551.704 222.973 551.898 223.167L552.091 223.36L552.381 223.07L552.091 222.877C551.898 222.78 551.898 222.49 552.091 222.296L552.284 222.103L551.994 221.813L551.801 222.006C551.704 222.2 551.414 222.2 551.221 222.006L551.027 221.813L550.737 222.103L550.931 222.296C551.124 222.393 551.124 222.683 550.931 222.877L550.737 223.07L551.124 223.36Z" fill="#2B1C1C"/>
<path id="Vector_18" d="M531.109 104.046L531.399 103.66C531.69 103.37 532.173 103.273 532.463 103.563L532.85 103.853L533.333 103.273L532.947 102.983C532.656 102.693 532.56 102.209 532.85 101.919L533.14 101.533L532.753 101.049L532.463 101.436C532.173 101.726 531.69 101.823 531.399 101.533L531.013 101.242L530.529 101.823L530.916 102.113C531.206 102.403 531.303 102.886 531.013 103.176L530.723 103.563L531.109 104.046Z" fill="#2B1C1C"/>
<path id="Vector_19" d="M528.016 159.836L528.306 159.449C528.596 159.159 529.079 159.062 529.369 159.352L529.756 159.642L530.24 159.062L529.853 158.772C529.563 158.482 529.466 157.999 529.756 157.709L530.046 157.322L529.466 156.838L529.176 157.225C528.886 157.515 528.402 157.612 528.112 157.322L527.726 157.032L527.242 157.612L527.629 157.902C527.919 158.192 528.016 158.675 527.726 158.966L527.436 159.352L528.016 159.836Z" fill="#2B1C1C"/>
</g>
<path id="Vector_20" d="M564.66 219.686H553.058V398.559H564.66V219.686Z" stroke="#382929" stroke-width="2" stroke-miterlimit="10"/>
<path id="Vector_21" d="M218.516 398.495L230.118 398.495L230.118 219.621L218.516 219.621L218.516 398.495Z" stroke="#382929" stroke-width="2" stroke-miterlimit="10"/>
<path id="Vector_22" d="M427.846 156.161H355.33V204.506H427.846V156.161Z" fill="#FFF0CE" stroke="#382929" stroke-width="2" stroke-miterlimit="10"/>
<path id="Vector_23" d="M451.052 196.481H332.125V204.216H451.052V196.481Z" fill="#FFF0CE" stroke="#382929" stroke-width="2" stroke-miterlimit="10"/>
<g id="Group_2">
<path id="Vector_24" d="M783.176 396.626H0V400.493H783.176V396.626Z" fill="#2B1C1C"/>
</g>
<path id="Vector_25" d="M492.145 156.162H291.033C282.524 156.162 275.562 149.2 275.562 140.691V16.9302C275.562 8.42165 282.524 1.46008 291.033 1.46008H492.145C500.653 1.46008 507.615 8.42165 507.615 16.9302V140.691C507.615 149.2 500.653 156.162 492.145 156.162Z" fill="#FFF0CE" stroke="#382929" stroke-width="2" stroke-miterlimit="10"/>
<path id="Vector_26" d="M507.615 125.221H275.562V16.9302C275.562 8.42165 282.524 1.46008 291.033 1.46008H492.145C500.653 1.46008 507.615 8.42165 507.615 16.9302V125.221Z" fill="#2B1C1C"/>
<path id="Vector_27" d="M48.151 397.206L102.103 274.315L92.6277 271.898C90.5972 270.157 87.9866 271.317 86.9231 274.315L44.7669 394.208C43.6066 397.496 46.7974 400.3 48.151 397.206Z" stroke="#382929" stroke-width="2" stroke-miterlimit="10"/>
<path id="Vector_28" d="M177.133 397.206L123.181 274.315L132.656 271.898C134.687 270.157 137.297 271.317 138.361 274.315L180.517 394.208C181.677 397.496 178.486 400.3 177.133 397.206Z" stroke="#382929" stroke-width="2" stroke-miterlimit="10"/>
<path id="Vector_29" d="M391.589 147.363C395.433 147.363 398.55 144.246 398.55 140.401C398.55 136.556 395.433 133.44 391.589 133.44C387.744 133.44 384.627 136.556 384.627 140.401C384.627 144.246 387.744 147.363 391.589 147.363Z" fill="#E5CCA3"/>
<path id="Vector_30" d="M608.75 215.818H174.329V223.553H608.75V215.818Z" fill="#2B1C1C"/>
<path id="Vector_31" d="M154.701 274.798H92.6273C66.038 274.798 44.4765 253.237 44.4765 226.647V220.072C44.4765 204.409 42.2526 188.745 37.805 173.759L34.8076 163.606" stroke="#2B1C1C" stroke-width="12" stroke-miterlimit="10"/>
<g id="Group_3">
<path id="Vector_32" d="M95.1416 290.172L135.654 302.741" stroke="#382929" stroke-miterlimit="10"/>
<path id="Vector_33" d="M131.399 294.136L87.8896 307.576" stroke="#382929" stroke-miterlimit="10"/>
</g>
<g id="Group_4">
<path id="Vector_34" d="M87.6963 307.672L146.386 325.753" stroke="#382929" stroke-miterlimit="10"/>
<path id="Vector_35" d="M140.198 313.28L77.1572 332.811" stroke="#382929" stroke-miterlimit="10"/>
</g>
<g id="Group_5">
<g id="Group_6">
<path id="Vector_36" d="M408.122 85.4823C411.806 85.4823 414.793 82.4954 414.793 78.8108C414.793 75.1262 411.806 72.1393 408.122 72.1393C404.437 72.1393 401.45 75.1262 401.45 78.8108C401.45 82.4954 404.437 85.4823 408.122 85.4823Z" fill="white"/>
</g>
<g id="Group_7">
<path id="Vector_37" d="M414.793 88.7698H401.547V102.016H414.793V88.7698Z" fill="white"/>
</g>
<path id="Vector_38" d="M408.122 62.2771L401.547 55.6056V68.8519H414.793V55.6056L408.122 62.2771Z" fill="white"/>
<g id="Group_8">
<path id="Vector_39" d="M395.553 95.3445C395.553 97.5683 393.812 99.3087 391.588 99.3087C389.365 99.3087 387.624 97.5683 387.624 95.3445C387.624 93.1206 389.365 91.3803 391.588 91.3803C393.812 91.3803 395.553 93.2173 395.553 95.3445ZM398.26 95.3445C398.26 91.6703 395.263 88.673 391.588 88.673C387.914 88.673 384.917 91.6703 384.917 95.3445C384.917 99.0186 387.914 102.016 391.588 102.016C395.263 102.016 398.26 99.0186 398.26 95.3445Z" fill="white"/>
</g>
<g id="Group_9">
<path id="Vector_40" d="M384.917 85.4823V72.1393L398.26 85.4823H384.917Z" fill="white"/>
</g>
<g id="Group_10">
<g id="Group_11">
<path id="Vector_41" d="M368.383 72.1393V85.3856C371.864 85.3856 375.248 84.032 377.762 81.5181C380.275 79.0042 381.629 75.6201 381.629 72.1393H368.383Z" fill="white"/>
</g>
</g>
<g id="Group_12">
<g id="Group_13">
<path id="Vector_42" d="M368.383 68.175V56.2823L374.378 62.277L368.383 68.175Z" fill="white"/>
</g>
<g id="Group_14">
<path id="Vector_43" d="M381.629 68.175L375.635 62.277L381.629 56.2823V68.175Z" fill="white"/>
</g>
</g>
<g id="Group_15">
<g id="Group_16">
<path id="Vector_44" d="M395.263 61.6003C396.918 61.6003 398.26 60.2583 398.26 58.6029C398.26 56.9475 396.918 55.6056 395.263 55.6056C393.608 55.6056 392.266 56.9475 392.266 58.6029C392.266 60.2583 393.608 61.6003 395.263 61.6003Z" fill="white"/>
</g>
<g id="Group_17">
<path id="Vector_45" d="M387.914 61.6003C389.57 61.6003 390.912 60.2583 390.912 58.6029C390.912 56.9475 389.57 55.6056 387.914 55.6056C386.259 55.6056 384.917 56.9475 384.917 58.6029C384.917 60.2583 386.259 61.6003 387.914 61.6003Z" fill="white"/>
</g>
<g id="Group_18">
<path id="Vector_46" d="M395.263 68.8519C396.918 68.8519 398.26 67.5099 398.26 65.8545C398.26 64.1991 396.918 62.8572 395.263 62.8572C393.608 62.8572 392.266 64.1991 392.266 65.8545C392.266 67.5099 393.608 68.8519 395.263 68.8519Z" fill="white"/>
</g>
<g id="Group_19">
<path id="Vector_47" d="M387.914 68.8519C389.57 68.8519 390.912 67.5099 390.912 65.8545C390.912 64.1991 389.57 62.8572 387.914 62.8572C386.259 62.8572 384.917 64.1991 384.917 65.8545C384.917 67.5099 386.259 68.8519 387.914 68.8519Z" fill="white"/>
</g>
</g>
<g id="Group_20">
<g id="Group_21">
<g id="Group_22">
<path id="Vector_48" d="M378.922 88.7698C378.632 90.6069 376.988 92.0572 374.958 92.0572C373.024 92.0572 371.38 90.6069 370.993 88.7698H368.383C368.673 92.1539 371.574 94.7645 374.958 94.7645C378.438 94.7645 381.242 92.1539 381.532 88.7698H378.922Z" fill="white"/>
</g>
</g>
<g id="Group_23">
<g id="Group_24">
<path id="Vector_49" d="M375.054 96.0214C371.574 96.0214 368.77 98.6319 368.479 102.016H371.187C371.477 100.179 373.121 98.7286 375.151 98.7286C377.085 98.7286 378.728 100.179 379.115 102.016H381.822C381.242 98.6319 378.438 96.0214 375.054 96.0214Z" fill="white"/>
</g>
</g>
</g>
</g>
<path id="Vector_50" d="M628.474 204.216H154.701V215.818H628.474V204.216Z" fill="#2B1C1C"/>
<g id="Group_25">
<g id="Group_26">
<g id="Big Ass Leaf 2">
<path id="leaf 2" fill-rule="evenodd" clip-rule="evenodd" d="M668.89 241.054C670.631 240.861 672.468 240.957 674.112 241.634C677.592 243.084 678.559 247.145 678.463 250.433C678.366 254.01 677.689 257.878 680.396 260.778C681.653 262.132 683.2 263.099 684.36 264.453C685.617 265.903 686.681 267.547 687.455 269.287C688.808 272.478 689.485 276.345 688.228 279.729C687.068 282.727 684.264 285.434 684.941 288.818C685.617 292.396 689.195 295.103 691.419 297.713C693.933 300.711 696.253 304.482 696.64 308.446C697.027 312.217 695.383 315.987 692.869 318.791C687.841 324.496 680.3 327.203 672.758 327.203C669.567 327.203 665.893 327.01 663.089 325.27C662.219 324.689 661.735 324.109 661.252 323.336C660.769 322.562 660.188 322.079 659.512 321.595C657.965 320.435 656.901 318.888 656.127 317.148C653.324 310.283 655.547 301.871 659.415 295.78C660.285 294.329 661.059 292.976 660.672 291.235C660.188 289.495 659.028 287.851 658.061 286.304C657.094 284.757 655.934 283.307 655.161 281.663C654.387 279.923 654.097 278.182 654.29 276.249C654.581 272.671 656.127 269.48 658.255 266.58C660.382 263.872 662.799 261.262 662.799 257.684C662.799 253.913 660.285 250.529 661.349 246.662C661.832 245.018 662.702 243.374 664.153 242.504C665.41 241.537 667.247 241.247 668.89 241.054Z" fill="#2B1C1C"/>
<path id="middle thing 2" fill-rule="evenodd" clip-rule="evenodd" d="M667.827 247.145C667.827 246.662 668.504 246.372 668.987 246.468C669.568 246.662 669.567 247.242 669.567 247.725C669.471 249.369 669.761 250.916 670.148 252.463C670.921 255.654 672.468 258.651 673.628 261.842C674.789 264.936 675.369 268.127 674.692 271.414C674.015 274.508 673.048 277.505 672.372 280.599C671.791 283.307 671.211 286.207 672.081 288.915C672.952 291.525 674.789 293.652 676.239 296.07C679.043 301.001 680.3 306.415 680.493 312.023C680.59 314.634 680.493 317.244 679.913 319.855C679.526 321.305 679.14 323.336 677.883 324.303C677.303 324.786 676.336 324.979 675.852 324.206C675.369 323.529 675.756 322.562 675.949 321.885C676.626 318.888 676.722 315.794 676.529 312.797C676.336 309.799 676.046 306.899 675.079 304.095C674.209 301.484 672.952 299.164 671.405 296.843C669.858 294.523 668.214 292.202 667.537 289.398C666.86 286.594 667.44 283.694 668.117 280.986C668.891 278.086 669.858 275.282 670.921 272.381C671.888 269.577 672.275 266.966 671.695 264.066C670.341 258.458 667.44 253.043 667.827 247.145Z" fill="#FFF0CE"/>
</g>
<g id="Group_27">
<path id="Vector_51" fill-rule="evenodd" clip-rule="evenodd" d="M714.913 247.919C717.041 248.596 719.168 249.659 720.715 251.303C724.002 254.784 722.939 260.102 721.198 264.066C719.264 268.223 716.364 272.478 718.007 277.215C718.781 279.439 720.038 281.373 720.811 283.597C721.585 286.014 721.875 288.431 721.875 290.945C721.778 295.489 720.618 300.324 717.331 303.708C714.43 306.705 709.692 308.349 708.629 312.7C707.468 317.244 710.272 322.272 711.529 326.526C712.883 331.361 713.657 337.066 712.013 341.9C710.466 346.541 706.502 350.215 702.054 352.246C693.159 356.306 682.91 355.726 674.014 351.762C670.243 350.118 665.989 347.991 663.669 344.511C662.895 343.447 662.702 342.48 662.605 341.223C662.508 340.063 662.025 339.193 661.445 338.226C660.285 336.002 659.801 333.585 659.898 331.168C660.285 321.692 667.343 312.797 675.078 307.672C676.915 306.415 678.559 305.158 678.945 302.934C679.332 300.614 678.849 298.1 678.462 295.78C678.075 293.459 677.495 291.139 677.495 288.818C677.495 286.401 678.172 284.08 679.332 281.953C681.556 277.892 685.037 274.895 689.098 272.574C692.965 270.447 697.219 268.61 699.153 264.356C701.184 259.908 700.023 254.59 703.311 250.529C704.664 248.886 706.598 247.435 708.822 247.049C710.562 246.759 712.883 247.339 714.913 247.919Z" fill="#2B1C1C"/>
<path id="Vector_52" fill-rule="evenodd" clip-rule="evenodd" d="M710.465 255.364C710.756 254.784 711.626 254.687 712.109 255.17C712.786 255.751 712.399 256.427 712.109 257.007C711.239 258.845 710.659 260.875 710.272 262.905C709.499 267.16 709.692 271.511 709.402 275.765C709.112 280.019 708.145 284.177 705.534 287.658C703.117 290.945 700.41 294.039 697.993 297.327C695.866 300.227 693.642 303.321 693.255 307.092C692.868 310.67 693.932 314.15 694.319 317.728C695.092 325.076 693.642 332.134 690.934 338.903C689.677 341.997 688.227 345.091 686.197 347.798C685.036 349.345 683.393 351.472 681.459 352.052C680.492 352.342 679.332 351.955 679.042 350.892C678.848 349.925 679.815 348.861 680.395 348.185C682.716 344.994 684.456 341.416 685.907 337.742C687.26 334.165 688.421 330.491 688.807 326.623C689.194 323.046 688.904 319.565 688.227 316.084C687.647 312.507 686.97 308.832 687.647 305.255C688.324 301.581 690.451 298.487 692.772 295.586C695.189 292.492 697.799 289.688 700.507 286.884C703.117 284.177 704.954 281.276 705.728 277.505C707.565 270.157 706.888 262.229 710.465 255.364Z" fill="#FFF0CE"/>
</g>
<g id="Group_28">
<path id="Vector_53" fill-rule="evenodd" clip-rule="evenodd" d="M649.553 279.826C653.13 279.826 656.321 281.76 658.448 284.37C660.962 287.561 661.542 291.332 662.509 295.103C662.992 296.94 663.862 298.874 665.409 300.131C666.86 301.291 668.6 301.484 670.244 302.064C673.628 303.225 676.335 305.932 677.399 309.219C678.752 313.28 677.302 317.341 677.592 321.402C677.786 325.173 681.556 327.493 684.554 329.331C687.454 331.071 690.162 332.811 691.032 336.195C691.999 339.87 692.289 343.93 691.032 347.605C688.905 353.696 682.523 356.307 676.335 356.693C670.727 357.08 663.766 356.5 659.608 352.439C657.094 350.022 656.224 346.638 656.321 343.254C656.417 341.126 656.804 339.096 657.384 337.066C657.771 335.615 658.254 334.165 658.448 332.715C658.835 328.75 655.16 327.977 652.066 326.913C648.102 325.56 645.395 322.949 643.461 319.372C641.721 315.987 640.947 312.217 642.011 308.543C642.591 306.609 643.558 304.965 644.911 303.515C645.492 302.838 646.362 302.354 646.845 301.678C647.329 301.001 647.232 300.227 647.039 299.454C646.265 296.07 643.751 293.169 642.881 289.785C642.108 286.691 642.591 282.92 645.395 280.89C646.555 280.213 648.006 279.826 649.553 279.826Z" fill="#FFF0CE" stroke="#382929" stroke-width="2" stroke-miterlimit="10"/>
<path id="Vector_54" fill-rule="evenodd" clip-rule="evenodd" d="M654.387 288.721C658.158 292.782 659.222 298.294 659.512 303.611C659.705 306.609 659.512 309.703 660.382 312.603C661.155 315.117 662.896 316.954 664.733 318.791C668.407 322.369 672.468 326.043 673.532 331.264C674.112 334.358 673.725 337.452 674.595 340.546C675.369 343.254 676.722 345.961 678.463 348.281C679.816 350.119 681.557 351.569 683.104 353.309C683.587 353.793 684.167 354.663 683.974 355.34C683.781 356.21 682.62 356.5 681.847 356.403C680.01 356.113 678.463 354.276 677.206 353.019C675.465 351.182 673.918 349.152 672.661 346.831C671.308 344.317 670.244 341.61 669.761 338.806C669.277 335.905 669.471 332.811 668.407 330.007C666.57 325.27 662.026 322.466 658.738 318.791C654.677 314.15 655.257 308.446 655.644 302.838C655.838 299.744 656.128 296.263 654.484 293.362C653.904 292.299 652.55 291.235 652.26 290.075C652.163 288.818 653.42 287.658 654.387 288.721Z" fill="#2B1C1C"/>
</g>
</g>
<path id="Vector_55" d="M707.759 398.559H656.514C640.464 398.559 628.861 383.283 633.019 367.812L638.143 349.248H726.129L731.254 367.812C735.508 383.283 723.809 398.559 707.759 398.559Z" fill="#2B1C1C"/>
<path id="Vector_56" d="M735.799 341.513H628.475V349.248H735.799V341.513Z" fill="#2B1C1C"/>
</g>
</g>
</svg>
