<svg width="784" height="401" viewBox="0 0 784 401" fill="none" xmlns="http://www.w3.org/2000/svg">
<path d="M572.589 22.1621L573.653 21.0018C574.62 19.8416 576.36 19.7449 577.52 20.7118L578.68 21.7753L580.421 19.7449L579.261 18.6813C578.1 17.7144 578.004 15.974 578.971 14.8138L580.034 13.6535L578.004 11.9131L576.94 13.0734C575.973 14.2336 574.233 14.3303 573.073 13.3634L571.912 12.2999L570.172 14.3303L571.332 15.3939C572.492 16.3608 572.589 18.1012 571.622 19.2614L570.559 20.4217L572.589 22.1621Z" fill="#2B1C1C"/>
<path d="M512.932 72.7301L513.512 72.0533C514.092 71.3765 515.059 71.3765 515.736 71.8599L516.413 72.44L517.476 71.2798L516.799 70.6996C516.122 70.1195 516.122 69.1526 516.606 68.4758L517.186 67.799L516.026 66.7354L515.446 67.4122C514.866 68.089 513.899 68.0891 513.222 67.6056L512.545 67.0255L511.481 68.1857L512.158 68.7659C512.835 69.346 512.835 70.3129 512.352 70.9897L511.771 71.6665L512.932 72.7301Z" fill="#2B1C1C"/>
<path d="M607.493 112.276L607.977 111.792C608.363 111.309 609.137 111.212 609.62 111.696L610.104 112.179L610.877 111.309L610.394 110.825C609.91 110.439 609.814 109.665 610.297 109.182L610.781 108.698L609.91 107.925L609.427 108.408C609.04 108.892 608.267 108.988 607.783 108.505L607.3 108.021L606.526 108.892L607.01 109.375C607.493 109.762 607.59 110.535 607.107 111.019L606.623 111.502L607.493 112.276Z" fill="#2B1C1C"/>
<path d="M560.793 81.4321L561.373 80.7552C561.953 80.0784 562.92 80.0784 563.597 80.5619L564.274 81.142L565.337 79.9817L564.661 79.4016C563.984 78.8215 563.984 77.8546 564.467 77.1778L565.047 76.5009L563.887 75.4374L563.307 76.1142C562.727 76.791 561.76 76.791 561.083 76.3076L560.406 75.7274L559.343 76.8877L560.02 77.4678C560.696 78.048 560.696 79.0148 560.213 79.6917L559.633 80.3685L560.793 81.4321Z" fill="#2B1C1C"/>
<path d="M548.224 139.735L548.514 139.348C548.804 139.058 549.287 138.962 549.577 139.252L549.964 139.542L550.448 138.962L550.061 138.672C549.771 138.382 549.674 137.898 549.964 137.608L550.254 137.221L549.674 136.738L549.384 137.125C549.094 137.415 548.61 137.511 548.32 137.221L547.934 136.931L547.45 137.511L547.837 137.801C548.127 138.091 548.224 138.575 547.934 138.865L547.644 139.252L548.224 139.735Z" fill="#2B1C1C"/>
<path d="M521.44 192.72L521.634 192.527C521.731 192.334 522.021 192.334 522.214 192.527L522.407 192.72L522.697 192.43L522.504 192.237C522.311 192.14 522.311 191.85 522.504 191.657L522.697 191.463L522.407 191.173L522.214 191.367C522.117 191.56 521.827 191.56 521.634 191.367L521.44 191.173L521.15 191.463L521.344 191.657C521.537 191.754 521.537 192.044 521.344 192.237L521.15 192.43L521.44 192.72Z" fill="#2B1C1C"/>
<path d="M574.909 124.845L575.199 124.458C575.489 124.168 575.973 124.072 576.263 124.362L576.65 124.652L577.133 124.072L576.746 123.782C576.456 123.492 576.36 123.008 576.65 122.718L576.94 122.331L576.36 121.848L576.07 122.235C575.779 122.525 575.296 122.621 575.006 122.331L574.619 122.041L574.136 122.621L574.523 122.911C574.813 123.201 574.909 123.685 574.619 123.975L574.329 124.362L574.909 124.845Z" fill="#2B1C1C"/>
<path d="M593.474 160.62L593.764 160.233C594.054 159.943 594.537 159.846 594.827 160.136L595.214 160.427L595.698 159.846L595.311 159.556C595.021 159.266 594.924 158.783 595.214 158.493L595.504 158.106L594.924 157.623L594.634 158.009C594.344 158.299 593.86 158.396 593.57 158.106L593.184 157.816L592.7 158.396L593.087 158.686C593.377 158.976 593.474 159.46 593.184 159.75L592.894 160.136L593.474 160.62Z" fill="#2B1C1C"/>
<path d="M575.876 168.258L576.166 167.872C576.456 167.581 576.94 167.485 577.23 167.775L577.616 168.065L578.1 167.485L577.713 167.195C577.423 166.905 577.326 166.421 577.616 166.131L577.907 165.744L577.326 165.261L577.036 165.648C576.746 165.938 576.263 166.034 575.973 165.744L575.586 165.454L575.103 166.034L575.489 166.325C575.779 166.615 575.876 167.098 575.586 167.388L575.296 167.775L575.876 168.258Z" fill="#2B1C1C"/>
<path d="M555.185 47.011L555.378 46.8176C555.475 46.6243 555.765 46.6243 555.958 46.8176L556.151 47.011L556.441 46.7209L556.248 46.5276C556.055 46.4309 556.055 46.1408 556.248 45.9474L556.441 45.7541L556.151 45.464L555.958 45.6574C555.861 45.8507 555.571 45.8507 555.378 45.6574L555.185 45.464L554.895 45.7541L555.088 45.9474C555.281 46.0441 555.281 46.3342 555.088 46.5276L554.895 46.7209L555.185 47.011Z" fill="#2B1C1C"/>
<path d="M508.001 26.6097L508.291 26.223C508.581 25.9329 509.065 25.8362 509.355 26.1263L509.741 26.4164L510.225 25.8362L509.838 25.5462C509.548 25.2561 509.451 24.7727 509.741 24.4826L510.032 24.0958L509.451 23.6124L509.161 23.9991C508.871 24.2892 508.388 24.3859 508.098 24.0958L507.711 23.8058L507.228 24.3859L507.614 24.676C507.904 24.966 508.001 25.4495 507.711 25.7395L507.421 26.1263L508.001 26.6097Z" fill="#2B1C1C"/>
<path d="M526.469 49.2348L526.759 48.8481C527.049 48.558 527.532 48.4613 527.822 48.7514L528.209 49.0415L528.693 48.4613L528.306 48.1713C528.016 47.8812 527.919 47.3978 528.209 47.1077L528.499 46.7209L527.919 46.2375L527.629 46.6242C527.339 46.9143 526.856 47.011 526.565 46.7209L526.179 46.4309L525.695 47.011L526.082 47.3011C526.372 47.5911 526.469 48.0746 526.179 48.3646L525.889 48.7514L526.469 49.2348Z" fill="#2B1C1C"/>
<path d="M537.685 15.1038L537.878 14.9104C537.975 14.7171 538.265 14.7171 538.458 14.9104L538.651 15.1038L538.942 14.8137L538.748 14.6204C538.555 14.5237 538.555 14.2336 538.748 14.0402L538.942 13.8469L538.651 13.5568L538.458 13.7502C538.361 13.9435 538.071 13.9435 537.878 13.7502L537.685 13.5568L537.395 13.8469L537.588 14.0402C537.781 14.1369 537.781 14.427 537.588 14.6204L537.395 14.8137L537.685 15.1038Z" fill="#2B1C1C"/>
<path d="M593.86 67.8957L594.054 67.7023C594.15 67.5089 594.44 67.5089 594.634 67.7023L594.827 67.8957L595.117 67.6056L594.924 67.4122C594.731 67.3155 594.731 67.0255 594.924 66.8321L595.117 66.6387L594.827 66.3487L594.634 66.542C594.537 66.7354 594.247 66.7354 594.054 66.542L593.86 66.3487L593.57 66.6387L593.764 66.8321C593.957 66.9288 593.957 67.2189 593.764 67.4122L593.57 67.6056L593.86 67.8957Z" fill="#2B1C1C"/>
<path d="M622.093 145.246L622.286 145.053C622.383 144.86 622.673 144.86 622.866 145.053L623.06 145.246L623.35 144.956L623.156 144.763C622.963 144.666 622.963 144.376 623.156 144.183L623.35 143.989L623.06 143.699L622.866 143.893C622.77 144.086 622.48 144.086 622.286 143.893L622.093 143.699L621.803 143.989L621.996 144.183C622.19 144.28 622.19 144.57 621.996 144.763L621.803 144.956L622.093 145.246Z" fill="#2B1C1C"/>
<path d="M604.206 194.558L604.399 194.364C604.496 194.171 604.786 194.171 604.98 194.364L605.173 194.558L605.463 194.267L605.27 194.074C605.076 193.977 605.076 193.687 605.27 193.494L605.463 193.301L605.173 193.01L604.98 193.204C604.883 193.397 604.593 193.397 604.399 193.204L604.206 193.01L603.916 193.301L604.109 193.494C604.303 193.591 604.303 193.881 604.109 194.074L603.916 194.267L604.206 194.558Z" fill="#2B1C1C"/>
<path d="M551.124 223.854L551.317 223.661C551.414 223.467 551.704 223.467 551.898 223.661L552.091 223.854L552.381 223.564L552.091 223.371C551.898 223.274 551.898 222.984 552.091 222.791L552.284 222.597L551.994 222.307L551.801 222.5C551.704 222.694 551.414 222.694 551.221 222.5L551.027 222.307L550.737 222.597L550.931 222.791C551.124 222.887 551.124 223.177 550.931 223.371L550.737 223.564L551.124 223.854Z" fill="#2B1C1C"/>
<path d="M531.109 104.541L531.399 104.154C531.69 103.864 532.173 103.767 532.463 104.057L532.85 104.347L533.333 103.767L532.947 103.477C532.656 103.187 532.56 102.704 532.85 102.413L533.14 102.027L532.753 101.543L532.463 101.93C532.173 102.22 531.69 102.317 531.399 102.027L531.013 101.737L530.529 102.317L530.916 102.607C531.206 102.897 531.303 103.38 531.013 103.67L530.723 104.057L531.109 104.541Z" fill="#2B1C1C"/>
<path d="M528.016 160.33L528.306 159.943C528.596 159.653 529.079 159.556 529.369 159.846L529.756 160.136L530.24 159.556L529.853 159.266C529.563 158.976 529.466 158.493 529.756 158.203L530.046 157.816L529.466 157.332L529.176 157.719C528.886 158.009 528.402 158.106 528.112 157.816L527.726 157.526L527.242 158.106L527.629 158.396C527.919 158.686 528.016 159.17 527.726 159.46L527.436 159.846L528.016 160.33Z" fill="#2B1C1C"/>
<path d="M564.66 220.18H553.058V399.054H564.66V220.18Z" stroke="#382929" stroke-width="2" stroke-miterlimit="10"/>
<path d="M218.516 398.989L230.118 398.989L230.118 220.115L218.516 220.115L218.516 398.989Z" stroke="#382929" stroke-width="2" stroke-miterlimit="10"/>
<path d="M427.846 156.656H355.33V205H427.846V156.656Z" fill="#FFF0CE" stroke="#382929" stroke-width="2" stroke-miterlimit="10"/>
<path d="M451.052 196.975H332.125V204.71H451.052V196.975Z" fill="#FFF0CE" stroke="#382929" stroke-width="2" stroke-miterlimit="10"/>
<path d="M783.176 397.12H0V400.987H783.176V397.12Z" fill="#2B1C1C"/>
<path d="M492.145 156.656H291.033C282.524 156.656 275.562 149.694 275.562 141.185V17.4243C275.562 8.91573 282.524 1.95416 291.033 1.95416H492.145C500.653 1.95416 507.615 8.91573 507.615 17.4243V141.185C507.615 149.694 500.653 156.656 492.145 156.656Z" fill="#FFF0CE" stroke="#382929" stroke-width="2" stroke-miterlimit="10"/>
<path d="M507.615 125.715H275.562V17.4243C275.562 8.91573 282.524 1.95416 291.033 1.95416H492.145C500.653 1.95416 507.615 8.91573 507.615 17.4243V125.715Z" fill="#2B1C1C"/>
<path d="M48.151 397.7L102.103 274.809L92.6277 272.392C90.5972 270.651 87.9866 271.812 86.9231 274.809L44.7669 394.703C43.6066 397.99 46.7974 400.794 48.151 397.7Z" stroke="#382929" stroke-width="2" stroke-miterlimit="10"/>
<path d="M177.133 397.7L123.181 274.809L132.656 272.392C134.687 270.651 137.297 271.812 138.361 274.809L180.517 394.703C181.677 397.99 178.486 400.794 177.133 397.7Z" stroke="#382929" stroke-width="2" stroke-miterlimit="10"/>
<path d="M391.589 147.857C395.433 147.857 398.55 144.74 398.55 140.895C398.55 137.051 395.433 133.934 391.589 133.934C387.744 133.934 384.627 137.051 384.627 140.895C384.627 144.74 387.744 147.857 391.589 147.857Z" fill="#E5CCA3"/>
<path d="M608.75 216.312H174.329V224.047H608.75V216.312Z" fill="#2B1C1C"/>
<path d="M154.701 275.292H92.6273C66.038 275.292 44.4765 253.731 44.4765 227.141V220.567C44.4765 204.903 42.2526 189.24 37.805 174.253L34.8076 164.101" stroke="#2B1C1C" stroke-width="12" stroke-miterlimit="10"/>
<path d="M95.1416 290.666L135.654 303.235" stroke="#382929" stroke-miterlimit="10"/>
<path d="M131.399 294.63L87.8896 308.07" stroke="#382929" stroke-miterlimit="10"/>
<path d="M87.6963 308.166L146.386 326.247" stroke="#382929" stroke-miterlimit="10"/>
<path d="M140.198 313.774L77.1572 333.305" stroke="#382929" stroke-miterlimit="10"/>
<path d="M408.122 85.9764C411.806 85.9764 414.793 82.9895 414.793 79.3049C414.793 75.6204 411.806 72.6334 408.122 72.6334C404.437 72.6334 401.45 75.6204 401.45 79.3049C401.45 82.9895 404.437 85.9764 408.122 85.9764Z" fill="white"/>
<path d="M414.793 89.2639H401.547V102.51H414.793V89.2639Z" fill="white"/>
<path d="M408.122 62.7712L401.547 56.0997V69.346H414.793V56.0997L408.122 62.7712Z" fill="white"/>
<path d="M395.553 95.8386C395.553 98.0625 393.812 99.8029 391.588 99.8029C389.365 99.8029 387.624 98.0625 387.624 95.8386C387.624 93.6148 389.365 91.8744 391.588 91.8744C393.812 91.8744 395.553 93.7115 395.553 95.8386ZM398.26 95.8386C398.26 92.1645 395.263 89.1671 391.588 89.1671C387.914 89.1671 384.917 92.1645 384.917 95.8386C384.917 99.5128 387.914 102.51 391.588 102.51C395.263 102.51 398.26 99.5128 398.26 95.8386Z" fill="white"/>
<path d="M384.917 85.9764V72.6334L398.26 85.9764H384.917Z" fill="white"/>
<path d="M368.383 72.6334V85.8797C371.864 85.8797 375.248 84.5261 377.762 82.0122C380.275 79.4983 381.629 76.1142 381.629 72.6334H368.383Z" fill="white"/>
<path d="M368.383 68.6692V56.7765L374.378 62.7712L368.383 68.6692Z" fill="white"/>
<path d="M381.629 68.6692L375.635 62.7712L381.629 56.7765V68.6692Z" fill="white"/>
<path d="M395.263 62.0944C396.918 62.0944 398.26 60.7524 398.26 59.097C398.26 57.4417 396.918 56.0997 395.263 56.0997C393.608 56.0997 392.266 57.4417 392.266 59.097C392.266 60.7524 393.608 62.0944 395.263 62.0944Z" fill="white"/>
<path d="M387.914 62.0944C389.57 62.0944 390.912 60.7524 390.912 59.097C390.912 57.4417 389.57 56.0997 387.914 56.0997C386.259 56.0997 384.917 57.4417 384.917 59.097C384.917 60.7524 386.259 62.0944 387.914 62.0944Z" fill="white"/>
<path d="M395.263 69.346C396.918 69.346 398.26 68.004 398.26 66.3487C398.26 64.6933 396.918 63.3513 395.263 63.3513C393.608 63.3513 392.266 64.6933 392.266 66.3487C392.266 68.004 393.608 69.346 395.263 69.346Z" fill="white"/>
<path d="M387.914 69.346C389.57 69.346 390.912 68.004 390.912 66.3487C390.912 64.6933 389.57 63.3513 387.914 63.3513C386.259 63.3513 384.917 64.6933 384.917 66.3487C384.917 68.004 386.259 69.346 387.914 69.346Z" fill="white"/>
<path d="M378.922 89.2639C378.632 91.1009 376.988 92.5513 374.958 92.5513C373.024 92.5513 371.38 91.1009 370.993 89.2639H368.383C368.673 92.648 371.574 95.2585 374.958 95.2585C378.438 95.2585 381.242 92.648 381.532 89.2639H378.922Z" fill="white"/>
<path d="M375.054 96.5155C371.574 96.5155 368.77 99.1261 368.479 102.51H371.187C371.477 100.673 373.121 99.2228 375.151 99.2228C377.085 99.2228 378.728 100.673 379.115 102.51H381.822C381.242 99.1261 378.438 96.5155 375.054 96.5155Z" fill="white"/>
<path d="M628.474 204.71H154.701V216.312H628.474V204.71Z" fill="#2B1C1C"/>
<path fill-rule="evenodd" clip-rule="evenodd" d="M668.89 241.548C670.631 241.355 672.468 241.451 674.112 242.128C677.592 243.579 678.559 247.639 678.463 250.927C678.366 254.504 677.689 258.372 680.396 261.273C681.653 262.626 683.2 263.593 684.36 264.947C685.617 266.397 686.681 268.041 687.455 269.781C688.808 272.972 689.485 276.839 688.228 280.223C687.068 283.221 684.264 285.928 684.941 289.312C685.617 292.89 689.195 295.597 691.419 298.207C693.933 301.205 696.253 304.976 696.64 308.94C697.027 312.711 695.383 316.482 692.869 319.286C687.841 324.99 680.3 327.697 672.758 327.697C669.567 327.697 665.893 327.504 663.089 325.764C662.219 325.184 661.735 324.603 661.252 323.83C660.769 323.056 660.188 322.573 659.512 322.09C657.965 320.929 656.901 319.382 656.127 317.642C653.324 310.777 655.547 302.365 659.415 296.274C660.285 294.823 661.059 293.47 660.672 291.729C660.188 289.989 659.028 288.345 658.061 286.798C657.094 285.251 655.934 283.801 655.161 282.157C654.387 280.417 654.097 278.676 654.29 276.743C654.581 273.165 656.127 269.974 658.255 267.074C660.382 264.367 662.799 261.756 662.799 258.178C662.799 254.408 660.285 251.024 661.349 247.156C661.832 245.512 662.702 243.869 664.153 242.998C665.41 242.032 667.247 241.741 668.89 241.548Z" fill="#2B1C1C"/>
<path fill-rule="evenodd" clip-rule="evenodd" d="M667.827 247.639C667.827 247.156 668.504 246.866 668.987 246.963C669.568 247.156 669.567 247.736 669.567 248.22C669.471 249.863 669.761 251.41 670.148 252.957C670.921 256.148 672.468 259.145 673.628 262.336C674.789 265.43 675.369 268.621 674.692 271.908C674.015 275.002 673.048 278 672.372 281.094C671.791 283.801 671.211 286.702 672.081 289.409C672.952 292.019 674.789 294.147 676.239 296.564C679.043 301.495 680.3 306.909 680.493 312.517C680.59 315.128 680.493 317.739 679.913 320.349C679.526 321.799 679.14 323.83 677.883 324.797C677.303 325.28 676.336 325.474 675.852 324.7C675.369 324.023 675.756 323.056 675.949 322.38C676.626 319.382 676.722 316.288 676.529 313.291C676.336 310.294 676.046 307.393 675.079 304.589C674.209 301.978 672.952 299.658 671.405 297.337C669.858 295.017 668.214 292.696 667.537 289.892C666.86 287.088 667.44 284.188 668.117 281.48C668.891 278.58 669.858 275.776 670.921 272.875C671.888 270.071 672.275 267.461 671.695 264.56C670.341 258.952 667.44 253.537 667.827 247.639Z" fill="#FFF0CE"/>
<path fill-rule="evenodd" clip-rule="evenodd" d="M714.913 248.413C717.041 249.09 719.168 250.153 720.715 251.797C724.002 255.278 722.939 260.596 721.198 264.56C719.264 268.718 716.364 272.972 718.007 277.71C718.781 279.933 720.038 281.867 720.811 284.091C721.585 286.508 721.875 288.925 721.875 291.439C721.778 295.984 720.618 300.818 717.331 304.202C714.43 307.199 709.692 308.843 708.629 313.194C707.468 317.739 710.272 322.766 711.529 327.021C712.883 331.855 713.657 337.56 712.013 342.394C710.466 347.035 706.502 350.709 702.054 352.74C693.159 356.801 682.91 356.221 674.014 352.256C670.243 350.613 665.989 348.485 663.669 345.005C662.895 343.941 662.702 342.974 662.605 341.717C662.508 340.557 662.025 339.687 661.445 338.72C660.285 336.496 659.801 334.079 659.898 331.662C660.285 322.186 667.343 313.291 675.078 308.166C676.915 306.909 678.559 305.652 678.945 303.429C679.332 301.108 678.849 298.594 678.462 296.274C678.075 293.953 677.495 291.633 677.495 289.312C677.495 286.895 678.172 284.574 679.332 282.447C681.556 278.386 685.037 275.389 689.098 273.068C692.965 270.941 697.219 269.104 699.153 264.85C701.184 260.402 700.023 255.084 703.311 251.024C704.664 249.38 706.598 247.929 708.822 247.543C710.562 247.253 712.883 247.833 714.913 248.413Z" fill="#2B1C1C"/>
<path fill-rule="evenodd" clip-rule="evenodd" d="M710.465 255.858C710.756 255.278 711.626 255.181 712.109 255.665C712.786 256.245 712.399 256.922 712.109 257.502C711.239 259.339 710.659 261.369 710.272 263.4C709.499 267.654 709.692 272.005 709.402 276.259C709.112 280.514 708.145 284.671 705.534 288.152C703.117 291.439 700.41 294.533 697.993 297.821C695.866 300.721 693.642 303.815 693.255 307.586C692.868 311.164 693.932 314.645 694.319 318.222C695.092 325.57 693.642 332.629 690.934 339.397C689.677 342.491 688.227 345.585 686.197 348.292C685.036 349.839 683.393 351.966 681.459 352.546C680.492 352.836 679.332 352.45 679.042 351.386C678.848 350.419 679.815 349.356 680.395 348.679C682.716 345.488 684.456 341.911 685.907 338.236C687.26 334.659 688.421 330.985 688.807 327.117C689.194 323.54 688.904 320.059 688.227 316.578C687.647 313.001 686.97 309.327 687.647 305.749C688.324 302.075 690.451 298.981 692.772 296.08C695.189 292.986 697.799 290.182 700.507 287.378C703.117 284.671 704.954 281.77 705.728 278C707.565 270.651 706.888 262.723 710.465 255.858Z" fill="#FFF0CE"/>
<path fill-rule="evenodd" clip-rule="evenodd" d="M649.553 280.32C653.13 280.32 656.321 282.254 658.448 284.865C660.962 288.055 661.542 291.826 662.509 295.597C662.992 297.434 663.862 299.368 665.409 300.625C666.86 301.785 668.6 301.978 670.244 302.558C673.628 303.719 676.335 306.426 677.399 309.713C678.752 313.774 677.302 317.835 677.592 321.896C677.786 325.667 681.556 327.988 684.554 329.825C687.454 331.565 690.162 333.305 691.032 336.689C691.999 340.364 692.289 344.425 691.032 348.099C688.905 354.19 682.523 356.801 676.335 357.187C670.727 357.574 663.766 356.994 659.608 352.933C657.094 350.516 656.224 347.132 656.321 343.748C656.417 341.621 656.804 339.59 657.384 337.56C657.771 336.109 658.254 334.659 658.448 333.209C658.835 329.244 655.16 328.471 652.066 327.407C648.102 326.054 645.395 323.443 643.461 319.866C641.721 316.482 640.947 312.711 642.011 309.037C642.591 307.103 643.558 305.459 644.911 304.009C645.492 303.332 646.362 302.849 646.845 302.172C647.329 301.495 647.232 300.721 647.039 299.948C646.265 296.564 643.751 293.663 642.881 290.279C642.108 287.185 642.591 283.414 645.395 281.384C646.555 280.707 648.006 280.32 649.553 280.32Z" fill="#FFF0CE" stroke="#382929" stroke-width="2" stroke-miterlimit="10"/>
<path fill-rule="evenodd" clip-rule="evenodd" d="M654.387 289.215C658.158 293.276 659.222 298.788 659.512 304.105C659.705 307.103 659.512 310.197 660.382 313.098C661.155 315.611 662.896 317.449 664.733 319.286C668.407 322.863 672.468 326.537 673.532 331.758C674.112 334.852 673.725 337.946 674.595 341.04C675.369 343.748 676.722 346.455 678.463 348.776C679.816 350.613 681.557 352.063 683.104 353.803C683.587 354.287 684.167 355.157 683.974 355.834C683.781 356.704 682.62 356.994 681.847 356.897C680.01 356.607 678.463 354.77 677.206 353.513C675.465 351.676 673.918 349.646 672.661 347.325C671.308 344.811 670.244 342.104 669.761 339.3C669.277 336.399 669.471 333.305 668.407 330.501C666.57 325.764 662.026 322.96 658.738 319.286C654.677 314.645 655.257 308.94 655.644 303.332C655.838 300.238 656.128 296.757 654.484 293.857C653.904 292.793 652.55 291.729 652.26 290.569C652.163 289.312 653.42 288.152 654.387 289.215Z" fill="#2B1C1C"/>
<path d="M707.759 399.054H656.514C640.464 399.054 628.861 383.777 633.019 368.307L638.143 349.742H726.129L731.254 368.307C735.508 383.777 723.809 399.054 707.759 399.054Z" fill="#2B1C1C"/>
<path d="M735.799 342.007H628.475V349.742H735.799V342.007Z" fill="#2B1C1C"/>
</svg>
