<svg width="67" height="74" viewBox="0 0 67 74" fill="none" xmlns="http://www.w3.org/2000/svg">
<rect x="0.853516" y="0.399414" width="66.0167" height="73.075" rx="1.50208" fill="white"/>
<rect x="15.8369" y="6.4082" width="36.05" height="36.05" rx="6.00833" fill="#F8F8F8"/>
<path d="M40.6213 26.6865V29.6907C40.6213 30.0891 40.463 30.4711 40.1813 30.7528C39.8996 31.0345 39.5176 31.1928 39.1192 31.1928H28.6046C28.2062 31.1928 27.8242 31.0345 27.5425 30.7528C27.2608 30.4711 27.1025 30.0891 27.1025 29.6907V26.6865" stroke="#2B1C1C" stroke-width="1.50208" stroke-linecap="round" stroke-linejoin="round"/>
<path d="M30.1069 22.9316L33.8621 26.6868L37.6174 22.9316" stroke="#2B1C1C" stroke-width="1.50208" stroke-linecap="round" stroke-linejoin="round"/>
<path d="M33.8618 26.6863V17.6738" stroke="#2B1C1C" stroke-width="1.50208" stroke-linecap="round" stroke-linejoin="round"/>
<path d="M9.0179 61.4658H8.07159V53.6024H11.2034C11.8944 53.6024 12.4314 53.7939 12.8144 54.177C13.205 54.56 13.4002 55.112 13.4002 55.833C13.4002 56.4113 13.265 56.8882 12.9947 57.2637C12.7318 57.6318 12.3413 57.8758 11.823 57.996L13.6255 61.4658H12.5553L10.8542 58.0861H9.0179V61.4658ZM11.2034 57.275C11.579 57.275 11.8681 57.1774 12.0709 56.9821C12.2812 56.7868 12.3863 56.5089 12.3863 56.1484V55.5626C12.3863 55.2021 12.2812 54.9242 12.0709 54.729C11.8681 54.5337 11.579 54.4361 11.2034 54.4361H9.0179V57.275H11.2034ZM17.3207 61.601C16.9226 61.601 16.5621 61.5297 16.2392 61.387C15.9237 61.2443 15.6496 61.0415 15.4168 60.7786C15.1915 60.5082 15.015 60.189 14.8873 59.821C14.7671 59.4455 14.707 59.0249 14.707 58.5593C14.707 58.1012 14.7671 57.6843 14.8873 57.3088C15.015 56.9333 15.1915 56.6141 15.4168 56.3512C15.6496 56.0809 15.9237 55.8743 16.2392 55.7316C16.5621 55.5889 16.9226 55.5176 17.3207 55.5176C17.7112 55.5176 18.0604 55.5889 18.3684 55.7316C18.6763 55.8743 18.9392 56.0733 19.157 56.3287C19.3748 56.5765 19.54 56.8732 19.6527 57.2187C19.7728 57.5642 19.8329 57.9434 19.8329 58.3565V58.7846H15.6534V59.055C15.6534 59.3028 15.6909 59.5356 15.766 59.7534C15.8486 59.9637 15.9613 60.1477 16.104 60.3055C16.2542 60.4632 16.4344 60.5871 16.6447 60.6772C16.8625 60.7674 17.1066 60.8124 17.377 60.8124C17.745 60.8124 18.0642 60.726 18.3346 60.5533C18.6125 60.3806 18.8265 60.1327 18.9767 59.8098L19.6189 60.2717C19.4311 60.6697 19.1382 60.9927 18.7401 61.2405C18.3421 61.4808 17.8689 61.601 17.3207 61.601ZM17.3207 56.2724C17.0728 56.2724 16.8475 56.3174 16.6447 56.4076C16.4419 56.4902 16.2655 56.6103 16.1152 56.7681C15.9725 56.9258 15.8599 57.1135 15.7773 57.3313C15.6947 57.5416 15.6534 57.7745 15.6534 58.0298V58.1087H18.8641V57.9847C18.8641 57.4665 18.7214 57.0534 18.436 56.7455C18.1581 56.4301 17.7863 56.2724 17.3207 56.2724ZM23.1769 61.601C22.6361 61.601 22.1817 61.4996 21.8137 61.2968C21.4532 61.0865 21.1415 60.8087 20.8787 60.4632L21.5208 59.945C21.7461 60.2304 21.9977 60.4519 22.2756 60.6096C22.5535 60.7598 22.8764 60.8349 23.2444 60.8349C23.6275 60.8349 23.9241 60.7523 24.1344 60.5871C24.3522 60.4219 24.4611 60.189 24.4611 59.8886C24.4611 59.6633 24.386 59.4718 24.2358 59.3141C24.0931 59.1489 23.8303 59.0362 23.4472 58.9761L22.9853 58.9085C22.715 58.871 22.4671 58.8146 22.2418 58.7395C22.0165 58.6569 21.8175 58.5518 21.6447 58.4241C21.4795 58.2889 21.3481 58.1237 21.2504 57.9284C21.1603 57.7331 21.1152 57.5003 21.1152 57.2299C21.1152 56.9445 21.1678 56.6967 21.273 56.4864C21.3781 56.2686 21.5208 56.0884 21.7011 55.9457C21.8888 55.803 22.1104 55.6978 22.3657 55.6302C22.6211 55.5551 22.8952 55.5176 23.1881 55.5176C23.6613 55.5176 24.0556 55.6002 24.371 55.7654C24.694 55.9306 24.9756 56.1597 25.2159 56.4526L24.6189 56.9934C24.4912 56.8131 24.3034 56.6516 24.0556 56.5089C23.8077 56.3587 23.496 56.2836 23.1205 56.2836C22.745 56.2836 22.4596 56.3662 22.2643 56.5315C22.0766 56.6892 21.9827 56.907 21.9827 57.1849C21.9827 57.4703 22.0766 57.6768 22.2643 57.8045C22.4596 57.9322 22.7375 58.026 23.098 58.0861L23.5486 58.1537C24.1945 58.2514 24.6527 58.4391 24.923 58.717C25.1934 58.9874 25.3286 59.3441 25.3286 59.7872C25.3286 60.3505 25.1371 60.7936 24.754 61.1166C24.371 61.4395 23.8453 61.601 23.1769 61.601ZM29.2299 61.601C28.8394 61.601 28.4826 61.5297 28.1597 61.387C27.8367 61.2443 27.5589 61.0415 27.326 60.7786C27.1007 60.5082 26.9242 60.189 26.7966 59.821C26.6689 59.4455 26.605 59.0249 26.605 58.5593C26.605 58.1012 26.6689 57.6843 26.7966 57.3088C26.9242 56.9333 27.1007 56.6141 27.326 56.3512C27.5589 56.0809 27.8367 55.8743 28.1597 55.7316C28.4826 55.5889 28.8394 55.5176 29.2299 55.5176C29.6205 55.5176 29.9735 55.5889 30.2889 55.7316C30.6118 55.8743 30.8897 56.0809 31.1226 56.3512C31.3554 56.6141 31.5356 56.9333 31.6633 57.3088C31.791 57.6843 31.8548 58.1012 31.8548 58.5593C31.8548 59.0249 31.791 59.4455 31.6633 59.821C31.5356 60.189 31.3554 60.5082 31.1226 60.7786C30.8897 61.0415 30.6118 61.2443 30.2889 61.387C29.9735 61.5297 29.6205 61.601 29.2299 61.601ZM29.2299 60.8011C29.7181 60.8011 30.1162 60.6509 30.4241 60.3505C30.732 60.0501 30.886 59.592 30.886 58.9761V58.1425C30.886 57.5266 30.732 57.0685 30.4241 56.7681C30.1162 56.4676 29.7181 56.3174 29.2299 56.3174C28.7418 56.3174 28.3437 56.4676 28.0358 56.7681C27.7278 57.0685 27.5739 57.5266 27.5739 58.1425V58.9761C27.5739 59.592 27.7278 60.0501 28.0358 60.3505C28.3437 60.6509 28.7418 60.8011 29.2299 60.8011ZM37.0322 60.5195H36.9871C36.927 60.6547 36.8519 60.7899 36.7618 60.9251C36.6792 61.0527 36.574 61.1692 36.4464 61.2743C36.3187 61.3719 36.1647 61.4508 35.9845 61.5109C35.8042 61.571 35.5939 61.601 35.3536 61.601C34.7528 61.601 34.2758 61.4095 33.9229 61.0265C33.5699 60.6359 33.3934 60.0877 33.3934 59.3817V55.6528H34.2946V59.224C34.2946 60.2679 34.7377 60.7899 35.624 60.7899C35.8042 60.7899 35.977 60.7674 36.1422 60.7223C36.3149 60.6772 36.4651 60.6096 36.5928 60.5195C36.728 60.4294 36.8331 60.3167 36.9082 60.1815C36.9909 60.0388 37.0322 59.8699 37.0322 59.6746V55.6528H37.9334V61.4658H37.0322V60.5195ZM39.9653 61.4658V55.6528H40.8665V56.723H40.9229C41.028 56.4451 41.2158 56.1973 41.4861 55.9795C41.7565 55.7617 42.1283 55.6528 42.6014 55.6528H42.9507V56.554H42.4212C41.933 56.554 41.55 56.6479 41.2721 56.8356C41.0017 57.0159 40.8665 57.245 40.8665 57.5229V61.4658H39.9653ZM46.3225 61.601C45.917 61.601 45.5527 61.5297 45.2298 61.387C44.9068 61.2443 44.6327 61.0415 44.4074 60.7786C44.1896 60.5158 44.0206 60.1966 43.9004 59.821C43.7878 59.4455 43.7314 59.0249 43.7314 58.5593C43.7314 58.0936 43.7878 57.6731 43.9004 57.2975C44.0206 56.922 44.1896 56.6028 44.4074 56.34C44.6327 56.0771 44.9068 55.8743 45.2298 55.7316C45.5527 55.5889 45.917 55.5176 46.3225 55.5176C46.9008 55.5176 47.3627 55.6452 47.7082 55.9006C48.0612 56.1484 48.3241 56.4751 48.4968 56.8807L47.742 57.2637C47.6368 56.9633 47.4641 56.7305 47.2238 56.5653C46.9834 56.4 46.683 56.3174 46.3225 56.3174C46.0521 56.3174 45.8156 56.3625 45.6128 56.4526C45.41 56.5352 45.241 56.6554 45.1058 56.8131C44.9706 56.9633 44.8693 57.1473 44.8017 57.3651C44.7341 57.5754 44.7003 57.8082 44.7003 58.0636V59.055C44.7003 59.5657 44.8355 59.9863 45.1058 60.3167C45.3837 60.6397 45.7893 60.8011 46.3225 60.8011C47.051 60.8011 47.5768 60.4632 47.8997 59.7872L48.5531 60.2266C48.3654 60.6472 48.0837 60.9814 47.7082 61.2292C47.3402 61.4771 46.8783 61.601 46.3225 61.601ZM52.0575 61.601C51.6595 61.601 51.299 61.5297 50.976 61.387C50.6606 61.2443 50.3865 61.0415 50.1536 60.7786C49.9283 60.5082 49.7518 60.189 49.6241 59.821C49.504 59.4455 49.4439 59.0249 49.4439 58.5593C49.4439 58.1012 49.504 57.6843 49.6241 57.3088C49.7518 56.9333 49.9283 56.6141 50.1536 56.3512C50.3865 56.0809 50.6606 55.8743 50.976 55.7316C51.299 55.5889 51.6595 55.5176 52.0575 55.5176C52.4481 55.5176 52.7973 55.5889 53.1052 55.7316C53.4131 55.8743 53.676 56.0733 53.8938 56.3287C54.1116 56.5765 54.2768 56.8732 54.3895 57.2187C54.5097 57.5642 54.5698 57.9434 54.5698 58.3565V58.7846H50.3902V59.055C50.3902 59.3028 50.4278 59.5356 50.5029 59.7534C50.5855 59.9637 50.6981 60.1477 50.8408 60.3055C50.991 60.4632 51.1713 60.5871 51.3816 60.6772C51.5994 60.7674 51.8435 60.8124 52.1138 60.8124C52.4819 60.8124 52.8011 60.726 53.0714 60.5533C53.3493 60.3806 53.5634 60.1327 53.7136 59.8098L54.3557 60.2717C54.1679 60.6697 53.875 60.9927 53.477 61.2405C53.0789 61.4808 52.6058 61.601 52.0575 61.601ZM52.0575 56.2724C51.8097 56.2724 51.5844 56.3174 51.3816 56.4076C51.1788 56.4902 51.0023 56.6103 50.8521 56.7681C50.7094 56.9258 50.5967 57.1135 50.5141 57.3313C50.4315 57.5416 50.3902 57.7745 50.3902 58.0298V58.1087H53.6009V57.9847C53.6009 57.4665 53.4582 57.0534 53.1728 56.7455C52.8949 56.4301 52.5232 56.2724 52.0575 56.2724ZM57.9137 61.601C57.373 61.601 56.9186 61.4996 56.5506 61.2968C56.1901 61.0865 55.8784 60.8087 55.6155 60.4632L56.2577 59.945C56.483 60.2304 56.7346 60.4519 57.0125 60.6096C57.2903 60.7598 57.6133 60.8349 57.9813 60.8349C58.3643 60.8349 58.661 60.7523 58.8713 60.5871C59.0891 60.4219 59.198 60.189 59.198 59.8886C59.198 59.6633 59.1229 59.4718 58.9727 59.3141C58.83 59.1489 58.5671 59.0362 58.1841 58.9761L57.7222 58.9085C57.4518 58.871 57.204 58.8146 56.9787 58.7395C56.7533 58.6569 56.5543 58.5518 56.3816 58.4241C56.2164 58.2889 56.0849 58.1237 55.9873 57.9284C55.8972 57.7331 55.8521 57.5003 55.8521 57.2299C55.8521 56.9445 55.9047 56.6967 56.0098 56.4864C56.115 56.2686 56.2577 56.0884 56.4379 55.9457C56.6257 55.803 56.8472 55.6978 57.1026 55.6302C57.3579 55.5551 57.6321 55.5176 57.925 55.5176C58.3981 55.5176 58.7924 55.6002 59.1079 55.7654C59.4308 55.9306 59.7125 56.1597 59.9528 56.4526L59.3557 56.9934C59.228 56.8131 59.0403 56.6516 58.7924 56.5089C58.5446 56.3587 58.2329 56.2836 57.8574 56.2836C57.4819 56.2836 57.1965 56.3662 57.0012 56.5315C56.8134 56.6892 56.7196 56.907 56.7196 57.1849C56.7196 57.4703 56.8134 57.6768 57.0012 57.8045C57.1965 57.9322 57.4743 58.026 57.8348 58.0861L58.2855 58.1537C58.9314 58.2514 59.3895 58.4391 59.6599 58.717C59.9303 58.9874 60.0654 59.3441 60.0654 59.7872C60.0654 60.3505 59.8739 60.7936 59.4909 61.1166C59.1079 61.4395 58.5821 61.601 57.9137 61.601Z" fill="#645262"/>
</svg>
