<svg width="49" height="74" viewBox="0 0 49 74" fill="none" xmlns="http://www.w3.org/2000/svg">
<rect x="0.0834961" y="0.399414" width="48.0667" height="73.075" rx="1.50208" fill="white"/>
<rect x="6.0918" y="6.4082" width="36.05" height="36.05" rx="6.00833" fill="#F8F8F8"/>
<path d="M25.6188 16.9229H19.6105C19.2121 16.9229 18.83 17.0811 18.5483 17.3628C18.2667 17.6445 18.1084 18.0266 18.1084 18.4249V30.4416C18.1084 30.84 18.2667 31.222 18.5483 31.5037C18.83 31.7854 19.2121 31.9437 19.6105 31.9437H28.623C29.0214 31.9437 29.4034 31.7854 29.6851 31.5037C29.9668 31.222 30.1251 30.84 30.1251 30.4416V21.4291L25.6188 16.9229Z" stroke="black" stroke-width="1.50208" stroke-linecap="round" stroke-linejoin="round"/>
<path d="M25.6187 16.9229V21.4291H30.1249" stroke="black" stroke-width="1.50208" stroke-linecap="round" stroke-linejoin="round"/>
<path d="M24.1167 28.9398V24.4336" stroke="black" stroke-width="1.50208" stroke-linecap="round" stroke-linejoin="round"/>
<path d="M21.8638 26.6865H26.37" stroke="black" stroke-width="1.50208" stroke-linecap="round" stroke-linejoin="round"/>
<path d="M10.6644 61.4658V53.6024H15.4636V54.4361H11.6107V57.0722H15.2382V57.9059H11.6107V60.6322H15.4636V61.4658H10.6644ZM16.5339 61.4658L18.6856 58.5368L16.624 55.6528H17.683L19.1588 57.8158H19.1926L20.7247 55.6528H21.7273L19.677 58.4692L21.7724 61.4658H20.7134L19.2038 59.1902H19.17L17.5365 61.4658H16.5339ZM27.302 61.4658C26.964 61.4658 26.7199 61.3757 26.5697 61.1954C26.427 61.0152 26.3369 60.7899 26.2993 60.5195H26.243C26.1153 60.88 25.905 61.1504 25.6121 61.3306C25.3192 61.5109 24.97 61.601 24.5644 61.601C23.9486 61.601 23.4679 61.4433 23.1224 61.1279C22.7845 60.8124 22.6155 60.3843 22.6155 59.8436C22.6155 59.2953 22.8145 58.8747 23.2125 58.5818C23.6181 58.2889 24.2452 58.1425 25.0939 58.1425H26.243V57.5679C26.243 57.1548 26.1303 56.8394 25.905 56.6216C25.6797 56.4038 25.3342 56.2949 24.8686 56.2949C24.5156 56.2949 24.2189 56.3738 23.9786 56.5315C23.7458 56.6892 23.5505 56.8995 23.3928 57.1624L22.852 56.6554C23.0098 56.34 23.2614 56.0733 23.6068 55.8555C23.9523 55.6302 24.3879 55.5176 24.9137 55.5176C25.6196 55.5176 26.1679 55.6903 26.5584 56.0358C26.949 56.3813 27.1443 56.8619 27.1443 57.4778V60.6772H27.8089V61.4658H27.302ZM24.7109 60.8349C24.9362 60.8349 25.1427 60.8087 25.3305 60.7561C25.5182 60.7035 25.6797 60.6284 25.8149 60.5308C25.9501 60.4331 26.0552 60.3205 26.1303 60.1928C26.2055 60.0651 26.243 59.9262 26.243 59.776V58.8184H25.0488C24.5306 58.8184 24.1514 58.8935 23.911 59.0437C23.6782 59.1939 23.5618 59.4117 23.5618 59.6971V59.9337C23.5618 60.2191 23.6632 60.4406 23.866 60.5984C24.0762 60.7561 24.3579 60.8349 24.7109 60.8349ZM29.2079 61.4658V55.6528H30.1091V56.5991H30.1542C30.2218 56.4489 30.2969 56.3099 30.3795 56.1822C30.4696 56.0471 30.5748 55.9306 30.6949 55.833C30.8226 55.7354 30.9691 55.6603 31.1343 55.6077C31.2995 55.5476 31.4948 55.5176 31.7201 55.5176C32.1032 55.5176 32.4561 55.6114 32.7791 55.7992C33.102 55.9795 33.3424 56.2799 33.5001 56.7005H33.5226C33.6278 56.385 33.823 56.1109 34.1084 55.8781C34.4013 55.6377 34.7956 55.5176 35.2913 55.5176C35.8846 55.5176 36.3465 55.7128 36.677 56.1034C37.015 56.4864 37.184 57.0309 37.184 57.7369V61.4658H36.2827V57.8946C36.2827 57.3764 36.1813 56.9859 35.9785 56.723C35.7757 56.4601 35.4528 56.3287 35.0097 56.3287C34.8294 56.3287 34.6567 56.3512 34.4915 56.3963C34.3337 56.4414 34.191 56.5089 34.0634 56.5991C33.9357 56.6892 33.8343 56.8056 33.7592 56.9483C33.6841 57.0835 33.6465 57.245 33.6465 57.4327V61.4658H32.7453V57.8946C32.7453 57.3764 32.6439 56.9859 32.4411 56.723C32.2383 56.4601 31.9229 56.3287 31.4948 56.3287C31.3146 56.3287 31.1418 56.3512 30.9766 56.3963C30.8114 56.4414 30.6649 56.5089 30.5372 56.5991C30.4096 56.6892 30.3044 56.8056 30.2218 56.9483C30.1467 57.0835 30.1091 57.245 30.1091 57.4327V61.4658H29.2079Z" fill="#645262"/>
</svg>
