<svg width="75" height="74" viewBox="0 0 75 74" fill="none" xmlns="http://www.w3.org/2000/svg">
<rect x="0.226074" y="0.399414" width="74.0167" height="73.075" rx="1.50208" fill="white"/>
<rect x="19.2095" y="6.4082" width="36.05" height="36.05" rx="6.00833" fill="#F8F8F8"/>
<g clip-path="url(#clip0)">
<path d="M40.9898 31.1928V29.6907C40.9898 28.8939 40.6733 28.1298 40.1099 27.5664C39.5465 27.003 38.7824 26.6865 37.9856 26.6865H31.9773C31.1806 26.6865 30.4164 27.003 29.853 27.5664C29.2897 28.1298 28.9731 28.8939 28.9731 29.6907V31.1928" stroke="#2B1C1C" stroke-width="1.50208" stroke-linecap="round" stroke-linejoin="round"/>
<path d="M34.9812 23.6822C36.6404 23.6822 37.9854 22.3372 37.9854 20.678C37.9854 19.0188 36.6404 17.6738 34.9812 17.6738C33.3221 17.6738 31.9771 19.0188 31.9771 20.678C31.9771 22.3372 33.3221 23.6822 34.9812 23.6822Z" stroke="#2B1C1C" stroke-width="1.50208" stroke-linecap="round" stroke-linejoin="round"/>
<path d="M45.4958 31.1928V29.6907C45.4953 29.0251 45.2738 28.3785 44.866 27.8524C44.4581 27.3263 43.8872 26.9506 43.2427 26.7842" stroke="#2B1C1C" stroke-width="1.50208" stroke-linecap="round" stroke-linejoin="round"/>
<path d="M40.2388 17.7715C40.885 17.9369 41.4577 18.3128 41.8668 18.8397C42.2758 19.3666 42.4978 20.0147 42.4978 20.6818C42.4978 21.3488 42.2758 21.9969 41.8668 22.5238C41.4577 23.0508 40.885 23.4266 40.2388 23.5921" stroke="#2B1C1C" stroke-width="1.50208" stroke-linecap="round" stroke-linejoin="round"/>
</g>
<path d="M12.3741 60.3167H12.3403C12.2427 60.6847 12.0024 60.9927 11.6193 61.2405C11.2438 61.4808 10.7556 61.601 10.1548 61.601C9.67415 61.601 9.23103 61.5146 8.82547 61.3419C8.42742 61.1616 8.08569 60.9025 7.8003 60.5646C7.5149 60.2191 7.28959 59.7948 7.12436 59.2916C6.96664 58.7808 6.88778 58.195 6.88778 57.5341C6.88778 56.8807 6.96664 56.3024 7.12436 55.7992C7.28208 55.2885 7.50739 54.8642 7.8003 54.5262C8.0932 54.1807 8.44619 53.9179 8.85927 53.7376C9.27234 53.5574 9.73047 53.4672 10.2337 53.4672C10.9397 53.4672 11.5292 53.6249 12.0024 53.9404C12.4755 54.2558 12.8398 54.6726 13.0951 55.1909L12.3178 55.664C12.1376 55.2434 11.8672 54.913 11.5067 54.6726C11.1537 54.4323 10.7294 54.3121 10.2337 54.3121C9.88819 54.3121 9.57276 54.376 9.28736 54.5037C9.00196 54.6238 8.75412 54.7966 8.54383 55.0219C8.34105 55.2472 8.18333 55.5176 8.07067 55.833C7.95802 56.1484 7.90169 56.5014 7.90169 56.892V58.165C7.90169 58.5555 7.95802 58.9123 8.07067 59.2352C8.18333 59.5507 8.34105 59.821 8.54383 60.0464C8.75412 60.2717 9.00947 60.4482 9.30989 60.5758C9.61031 60.696 9.94828 60.7561 10.3238 60.7561C10.5942 60.7561 10.8495 60.7223 11.0899 60.6547C11.3377 60.5796 11.5518 60.4707 11.732 60.328C11.9198 60.1853 12.0662 60.0088 12.1714 59.7985C12.2765 59.5807 12.3291 59.3254 12.3291 59.0324V58.2551H10.5942V57.4215H13.2529V61.4658H12.3741V60.3167ZM15.1377 61.4658V55.6528H16.039V56.723H16.0953C16.2005 56.4451 16.3882 56.1973 16.6586 55.9795C16.929 55.7617 17.3007 55.6528 17.7739 55.6528H18.1231V56.554H17.5936C17.1055 56.554 16.7224 56.6479 16.4446 56.8356C16.1742 57.0159 16.039 57.245 16.039 57.5229V61.4658H15.1377ZM21.5288 61.601C21.1382 61.601 20.7815 61.5297 20.4585 61.387C20.1356 61.2443 19.8577 61.0415 19.6249 60.7786C19.3996 60.5082 19.2231 60.189 19.0954 59.821C18.9677 59.4455 18.9039 59.0249 18.9039 58.5593C18.9039 58.1012 18.9677 57.6843 19.0954 57.3088C19.2231 56.9333 19.3996 56.6141 19.6249 56.3512C19.8577 56.0809 20.1356 55.8743 20.4585 55.7316C20.7815 55.5889 21.1382 55.5176 21.5288 55.5176C21.9193 55.5176 22.2723 55.5889 22.5878 55.7316C22.9107 55.8743 23.1886 56.0809 23.4214 56.3512C23.6542 56.6141 23.8345 56.9333 23.9622 57.3088C24.0898 57.6843 24.1537 58.1012 24.1537 58.5593C24.1537 59.0249 24.0898 59.4455 23.9622 59.821C23.8345 60.189 23.6542 60.5082 23.4214 60.7786C23.1886 61.0415 22.9107 61.2443 22.5878 61.387C22.2723 61.5297 21.9193 61.601 21.5288 61.601ZM21.5288 60.8011C22.017 60.8011 22.415 60.6509 22.7229 60.3505C23.0309 60.0501 23.1848 59.592 23.1848 58.9761V58.1425C23.1848 57.5266 23.0309 57.0685 22.7229 56.7681C22.415 56.4676 22.017 56.3174 21.5288 56.3174C21.0406 56.3174 20.6426 56.4676 20.3346 56.7681C20.0267 57.0685 19.8727 57.5266 19.8727 58.1425V58.9761C19.8727 59.592 20.0267 60.0501 20.3346 60.3505C20.6426 60.6509 21.0406 60.8011 21.5288 60.8011ZM29.331 60.5195H29.286C29.2259 60.6547 29.1508 60.7899 29.0606 60.9251C28.978 61.0527 28.8729 61.1692 28.7452 61.2743C28.6175 61.3719 28.4636 61.4508 28.2833 61.5109C28.1031 61.571 27.8928 61.601 27.6524 61.601C27.0516 61.601 26.5747 61.4095 26.2217 61.0265C25.8687 60.6359 25.6922 60.0877 25.6922 59.3817V55.6528H26.5935V59.224C26.5935 60.2679 27.0366 60.7899 27.9228 60.7899C28.1031 60.7899 28.2758 60.7674 28.441 60.7223C28.6138 60.6772 28.764 60.6096 28.8917 60.5195C29.0268 60.4294 29.132 60.3167 29.2071 60.1815C29.2897 60.0388 29.331 59.8699 29.331 59.6746V55.6528H30.2323V61.4658H29.331V60.5195ZM32.2641 55.6528H33.1654V56.5991H33.2104C33.3607 56.2311 33.5785 55.9607 33.8639 55.7879C34.1568 55.6077 34.506 55.5176 34.9116 55.5176C35.2721 55.5176 35.5988 55.5889 35.8917 55.7316C36.1846 55.8743 36.4324 56.0771 36.6352 56.34C36.8455 56.6028 37.0032 56.922 37.1084 57.2975C37.221 57.6731 37.2773 58.0936 37.2773 58.5593C37.2773 59.0249 37.221 59.4455 37.1084 59.821C37.0032 60.1966 36.8455 60.5158 36.6352 60.7786C36.4324 61.0415 36.1846 61.2443 35.8917 61.387C35.5988 61.5297 35.2721 61.601 34.9116 61.601C34.123 61.601 33.5559 61.2405 33.2104 60.5195H33.1654V63.7189H32.2641V55.6528ZM34.6637 60.7899C35.1744 60.7899 35.5762 60.6322 35.8691 60.3167C36.162 59.9938 36.3085 59.5732 36.3085 59.055V58.0636C36.3085 57.5454 36.162 57.1286 35.8691 56.8131C35.5762 56.4902 35.1744 56.3287 34.6637 56.3287C34.4609 56.3287 34.2657 56.3587 34.0779 56.4188C33.8976 56.4714 33.7399 56.5465 33.6047 56.6441C33.4696 56.7418 33.3607 56.8619 33.278 57.0046C33.2029 57.1398 33.1654 57.2863 33.1654 57.444V59.607C33.1654 59.7948 33.2029 59.9637 33.278 60.1139C33.3607 60.2566 33.4696 60.3806 33.6047 60.4857C33.7399 60.5833 33.8976 60.6585 34.0779 60.711C34.2657 60.7636 34.4609 60.7899 34.6637 60.7899ZM42.8697 61.4658L40.9545 53.6024H41.9571L42.8021 57.3877L43.4555 60.328H43.478L44.2103 57.3877L45.2016 53.6024H46.2831L47.2407 57.3877L47.973 60.3167H48.0068L48.6827 57.3877L49.5727 53.6024H50.5416L48.525 61.4658H47.4773L46.4521 57.5454L45.7311 54.6614H45.7086L44.9651 57.5454L43.9174 61.4658H42.8697ZM53.8646 61.601C53.4741 61.601 53.1174 61.5297 52.7944 61.387C52.4715 61.2443 52.1936 61.0415 51.9608 60.7786C51.7354 60.5082 51.559 60.189 51.4313 59.821C51.3036 59.4455 51.2398 59.0249 51.2398 58.5593C51.2398 58.1012 51.3036 57.6843 51.4313 57.3088C51.559 56.9333 51.7354 56.6141 51.9608 56.3512C52.1936 56.0809 52.4715 55.8743 52.7944 55.7316C53.1174 55.5889 53.4741 55.5176 53.8646 55.5176C54.2552 55.5176 54.6082 55.5889 54.9236 55.7316C55.2466 55.8743 55.5245 56.0809 55.7573 56.3512C55.9901 56.6141 56.1703 56.9333 56.298 57.3088C56.4257 57.6843 56.4895 58.1012 56.4895 58.5593C56.4895 59.0249 56.4257 59.4455 56.298 59.821C56.1703 60.189 55.9901 60.5082 55.7573 60.7786C55.5245 61.0415 55.2466 61.2443 54.9236 61.387C54.6082 61.5297 54.2552 61.601 53.8646 61.601ZM53.8646 60.8011C54.3528 60.8011 54.7509 60.6509 55.0588 60.3505C55.3667 60.0501 55.5207 59.592 55.5207 58.9761V58.1425C55.5207 57.5266 55.3667 57.0685 55.0588 56.7681C54.7509 56.4676 54.3528 56.3174 53.8646 56.3174C53.3765 56.3174 52.9784 56.4676 52.6705 56.7681C52.3626 57.0685 52.2086 57.5266 52.2086 58.1425V58.9761C52.2086 59.592 52.3626 60.0501 52.6705 60.3505C52.9784 60.6509 53.3765 60.8011 53.8646 60.8011ZM58.0844 61.4658V55.6528H58.9857V56.723H59.042C59.1471 56.4451 59.3349 56.1973 59.6053 55.9795C59.8757 55.7617 60.2474 55.6528 60.7206 55.6528H61.0698V56.554H60.5403C60.0521 56.554 59.6691 56.6479 59.3912 56.8356C59.1209 57.0159 58.9857 57.245 58.9857 57.5229V61.4658H58.0844ZM62.3337 53.1293H63.2349V58.4128H63.28L64.17 57.4215L65.8148 55.6528H66.9075L64.7558 57.9509L67.1216 61.4658H66.0288L64.1024 58.503L63.2349 59.3929V61.4658H62.3337V53.1293Z" fill="#645262"/>
<defs>
<clipPath id="clip0">
<rect width="18.025" height="18.025" fill="white" transform="translate(28.2217 15.4209)"/>
</clipPath>
</defs>
</svg>
