<svg width="24" height="25" viewBox="0 0 24 25" fill="none" xmlns="http://www.w3.org/2000/svg">
<circle cx="12" cy="12.0527" r="12" fill="#FF7E1D" fill-opacity="0.08"/>
<g clip-path="url(#clip0)">
<path d="M12.2592 18.7196C15.9436 18.7196 18.9305 15.7348 18.9305 12.0529C18.9305 8.371 15.9436 5.38623 12.2592 5.38623C8.57473 5.38623 5.58789 8.371 5.58789 12.0529C5.58789 15.7348 8.57473 18.7196 12.2592 18.7196Z" stroke="#FF7E1D" stroke-width="1.50104" stroke-linecap="round" stroke-linejoin="round"/>
<path d="M12.2582 14.0527C13.3636 14.0527 14.2596 13.1573 14.2596 12.0527C14.2596 10.9482 13.3636 10.0527 12.2582 10.0527C11.1529 10.0527 10.2568 10.9482 10.2568 12.0527C10.2568 13.1573 11.1529 14.0527 12.2582 14.0527Z" stroke="#FF7E1D" stroke-width="1.50104" stroke-linecap="round" stroke-linejoin="round"/>
</g>
<defs>
<clipPath id="clip0">
<rect width="16.0111" height="16" fill="white" transform="translate(4.25391 4.05273)"/>
</clipPath>
</defs>
</svg>
