<svg width="64" height="64" viewBox="0 0 64 64" fill="none" xmlns="http://www.w3.org/2000/svg">
    <path d="M30.125 4.17188H33.875V14.3644H30.125V4.17188Z" fill="#D0B9A4"/>
    <path d="M51.6494 16.1758L58.0892 8.12865L61.0178 10.4723L54.5781 18.5195L51.6494 16.1758Z" fill="#D0B9A4"/>
    <path d="M41.5391 10.6001H45.2891V14.3643H41.5391V10.6001Z" fill="#EBD5AE"/>
    <path d="M60.2354 22.752H63.9996V26.502H60.2354V22.752Z" fill="#EBD5AE"/>
    <path d="M3.00684 10.4751L5.93549 8.13143L12.3753 16.1786L9.4466 18.5222L3.00684 10.4751Z" fill="#D0B9A4"/>
    <path d="M18.7109 10.6001H22.4609V14.3643H18.7109V10.6001Z" fill="#EBD5AE"/>
    <path d="M0 22.752H3.76425V26.502H0V22.752Z" fill="#EBD5AE"/>
    <path d="M20.5243 19.332L15.4893 41.8647L27.4753 39.5799H31.9998L33.8748 29.3988L31.9998 19.332H20.5243Z" fill="#ECBD2C"/>
    <path d="M43.4755 19.332H32V39.5799H36.5245L48.5105 41.8647L43.4755 19.332Z" fill="#E68F21"/>
    <path d="M26.5787 32.1998L22.9189 31.3821L24.5226 24.2051H30.9436V27.9551H27.5271L26.5787 32.1998Z" fill="#F9E997"/>
    <path d="M4.5245 39.5796L0 59.8276H16L17.875 49.6463L16 39.5796H4.5245Z" fill="#ECBD2C"/>
    <path d="M27.4755 39.5796H16V59.8276H32L27.4755 39.5796Z" fill="#E68F21"/>
    <path d="M10.5788 52.4474L6.91895 51.6296L8.5227 44.4526H14.9437V48.2026H11.5272L10.5788 52.4474Z" fill="#F9E997"/>
    <path d="M36.5245 39.5796L32 59.8276H48L49.875 49.6463L48 39.5796H36.5245Z" fill="#ECBD2C"/>
    <path d="M59.4755 39.5796H48V59.8276H64L59.4755 39.5796Z" fill="#E68F21"/>
    <path d="M42.5787 52.4474L38.9189 51.6296L40.5226 44.4526H46.9436V48.2026H43.5271L42.5787 52.4474Z" fill="#F9E997"/>
</svg>
