<svg width="50" height="50" viewBox="0 0 50 50" fill="none" xmlns="http://www.w3.org/2000/svg">
<g clip-path="url(#clip0)">
<path d="M16.1196 5.0015L19.0419 4.9125C19.6409 4.89425 19.9118 4.155 19.4664 3.754L17.6055 2.07862C16.7935 1.3475 17.3106 0 18.4034 0H25.8331H38.4194C43.3764 0 47.3948 4.01838 47.3948 8.97538V21.6493H16.8578V11.2315C16.8578 10.4303 16.669 9.64025 16.3066 8.9255L15.1478 6.6395C14.7739 5.90225 15.2935 5.02675 16.1196 5.0015Z" fill="#365E7D"/>
<path d="M38.4194 0H35.6309C40.5879 0 44.6062 4.01838 44.6062 8.97538V21.6493H47.3947V8.97538C47.3947 4.01838 43.3764 0 38.4194 0V0Z" fill="#2B4D66"/>
<path d="M49.9127 63.9831H14.0882C13.5664 63.9831 13.1436 63.5601 13.1436 63.0385V44.9365C13.1436 38.0227 18.7483 32.418 25.6621 32.418H38.3388C45.2526 32.418 50.8573 38.0227 50.8573 44.9365V63.0385C50.8573 63.5602 50.4344 63.9831 49.9127 63.9831Z" fill="#61A2F9"/>
<path d="M38.3385 32.418H34.7949C41.7087 32.418 47.3134 38.0227 47.3134 44.9365V63.9831H49.9124C50.4342 63.9831 50.857 63.5601 50.857 63.0385V44.9365C50.857 38.0227 45.2523 32.418 38.3385 32.418Z" fill="#5490F9"/>
<path d="M32 42.0868L28.5133 44.6313C28.1876 44.869 27.7251 44.725 27.5919 44.3446L23.3486 32.2343L25.8915 29.7461L27.6124 34.4873L32 42.0868Z" fill="#F6F1F1"/>
<path d="M32 42.0868L35.4868 44.6313C35.8124 44.869 36.2749 44.725 36.4081 44.3446L40.6514 32.2343L38.1085 29.7461L36.3876 34.4873L32 42.0868Z" fill="#F6F1F1"/>
<path d="M32.0008 42.0872L36.3883 34.4878H27.6133L32.0008 42.0872Z" fill="#E2A770"/>
<path d="M32.0008 36.7511C25.2694 36.7511 19.8125 31.2943 19.8125 24.5629V14.0089C19.8125 13.1394 20.048 12.333 20.4549 11.6438C21.7233 9.49525 24.6215 9.01175 26.6033 10.5275C30.24 13.309 34.2135 14.2048 38.6094 12.7348C41.2403 11.855 44.0598 13.6573 44.1841 16.4285C44.1873 16.4986 44.1889 16.5691 44.1889 16.6399V24.5629C44.189 31.2943 38.7321 36.7511 32.0008 36.7511Z" fill="#F1D0A5"/>
<path d="M44.1839 16.4282C44.0594 13.6568 41.2401 11.8546 38.6092 12.7345C38.5863 12.7421 38.5637 12.7487 38.5408 12.7562C40.0617 13.2925 41.2348 14.6631 41.3141 16.4282C41.3172 16.4983 41.3188 16.5688 41.3188 16.6396V24.5626C41.3188 30.8085 36.6206 35.9561 30.5654 36.6664C31.0362 36.7216 31.5148 36.7509 32.0003 36.7509C38.7317 36.7509 44.1886 31.294 44.1886 24.5626V16.6396C44.1887 16.5687 44.1872 16.4983 44.1839 16.4282Z" fill="#F1B986"/>
<path d="M26.4098 21.6866C25.8766 21.6866 25.4443 21.2544 25.4443 20.7211V19.3766C25.4443 18.8434 25.8766 18.4111 26.4098 18.4111C26.9431 18.4111 27.3753 18.8434 27.3753 19.3766V20.7211C27.3753 21.2544 26.9431 21.6866 26.4098 21.6866Z" fill="#2B4D66"/>
<path d="M37.5905 21.6866C37.0572 21.6866 36.625 21.2544 36.625 20.7211V19.3766C36.625 18.8434 37.0572 18.4111 37.5905 18.4111C38.1237 18.4111 38.556 18.8434 38.556 19.3766V20.7211C38.5561 21.2544 38.1239 21.6866 37.5905 21.6866Z" fill="#2B4D66"/>
<path d="M32.0002 31.0003C31.1135 31.0003 30.2269 30.7334 29.3646 30.1997C28.9112 29.919 28.7712 29.324 29.052 28.8705C29.3327 28.417 29.9279 28.2772 30.3812 28.5578C31.4859 29.2417 32.5149 29.2415 33.6195 28.5578C34.0727 28.2776 34.6681 28.4171 34.9487 28.8705C35.2295 29.324 35.0894 29.919 34.6361 30.1997C33.7737 30.7333 32.887 31.0003 32.0002 31.0003Z" fill="#DD636E"/>
<path d="M19.8124 23.4254H17.8582C16.5024 23.4254 15.4033 22.3262 15.4033 20.9705C15.4033 19.6147 16.5024 18.5156 17.8582 18.5156H19.8124V23.4254Z" fill="#E2A770"/>
<path d="M44.832 30.4069H36.5397C36.0065 30.4069 35.5742 29.9747 35.5742 29.4414C35.5742 28.9082 36.0065 28.4759 36.5397 28.4759H44.832C45.2156 28.4759 45.5276 28.1639 45.5276 27.7804V23.1554C45.5276 22.6222 45.9598 22.1899 46.4931 22.1899C47.0263 22.1899 47.4586 22.6222 47.4586 23.1554V27.7804C47.4587 29.2287 46.2802 30.4069 44.832 30.4069Z" fill="#2B4D66"/>
<path d="M36.6819 30.9226H34.1543C33.5012 30.9226 32.9717 30.3931 32.9717 29.7399V29.2012C32.9717 28.5481 33.5012 28.0186 34.1543 28.0186H36.6819C37.3351 28.0186 37.8646 28.5481 37.8646 29.2012V29.7399C37.8646 30.3932 37.3351 30.9226 36.6819 30.9226Z" fill="#365E7D"/>
<path d="M45.2586 64.0001H18.7424L16.3917 51.39C16.1634 50.1646 17.1037 49.0327 18.3502 49.0327H45.6507C46.8972 49.0327 47.8376 50.1646 47.6092 51.39L45.2586 64.0001Z" fill="#365E7D"/>
<path d="M45.6503 49.0327H43.0357C44.2822 49.0327 45.2226 50.1646 44.9942 51.39L42.6436 64.0002H45.2582L47.6088 51.39C47.8372 50.1646 46.8968 49.0327 45.6503 49.0327Z" fill="#2B4D66"/>
<path d="M32.0002 61.7045C33.5153 61.7045 34.7436 60.4763 34.7436 58.9611C34.7436 57.446 33.5153 56.2178 32.0002 56.2178C30.4851 56.2178 29.2568 57.446 29.2568 58.9611C29.2568 60.4763 30.4851 61.7045 32.0002 61.7045Z" fill="#F6F1F1"/>
<path d="M32.0002 56.2178C31.6355 56.2178 31.2881 56.2904 30.9697 56.4196C31.9739 56.8271 32.6826 57.8108 32.6826 58.9611C32.6826 60.1115 31.9737 61.095 30.9697 61.5026C31.2881 61.6319 31.6355 61.7045 32.0002 61.7045C33.5154 61.7045 34.7436 60.4763 34.7436 58.9611C34.7436 57.446 33.5154 56.2178 32.0002 56.2178Z" fill="#DAE4EA"/>
<path d="M44.5747 49.0327H37.9766V46.9349C37.9766 46.3113 38.4822 45.8057 39.1058 45.8057H43.4453C44.0689 45.8057 44.5746 46.3113 44.5746 46.9349V49.0327H44.5747Z" fill="#F6F1F1"/>
<path d="M44.1885 24.4427H46.4931C48.3091 24.4427 49.7813 22.9705 49.7813 21.1544V20.7863C49.7813 18.9703 48.3092 17.498 46.4931 17.498H44.1885V24.4427Z" fill="#61A2F9"/>
<path d="M46.4931 17.4985H44.1885V17.4992C45.9924 17.5134 47.4504 18.9795 47.4504 20.7867V21.1548C47.4504 22.9619 45.9924 24.4282 44.1885 24.4423V24.4429H46.4931C48.3091 24.4429 49.7813 22.9708 49.7813 21.1547V20.7865C49.7813 18.9707 48.3091 17.4985 46.4931 17.4985Z" fill="#5490F9"/>
</g>
<defs>
<clipPath id="clip0">
<rect width="64" height="64" fill="white"/>
</clipPath>
</defs>
</svg>
