<svg width="46" height="46" viewBox="0 0 46 46" fill="none" xmlns="http://www.w3.org/2000/svg">
<path d="M49.1077 56.5922C36.8108 56.5922 28.3664 62.962 22.4411 62.962C16.5157 62.962 4.07129 59.5557 4.07129 32.2971C4.07129 5.0384 20.8126 1.03662 27.33 1.03662C57.8491 1.03662 70.8855 56.5922 49.1077 56.5922Z" fill="#EFEFEF"/>
<path d="M44.4287 18.4678L46.9429 15.9536L48.1999 17.2107L45.6858 19.7249L44.4287 18.4678Z" fill="#A4AFC1"/>
<path d="M51.6562 11.2417L54.1704 8.72754L55.4275 9.98462L52.9133 12.4988L51.6562 11.2417Z" fill="#A4AFC1"/>
<path d="M44.1113 9.97607L45.3684 8.719L47.8826 11.2332L46.6255 12.4902L44.1113 9.97607Z" fill="#A4AFC1"/>
<path d="M51.3369 17.2041L52.594 15.947L55.1081 18.4612L53.8511 19.7183L51.3369 17.2041Z" fill="#A4AFC1"/>
<path d="M35.1111 51.9997H13.7778C12.7964 51.9997 12 51.2033 12 50.222V14.0975C12 12.9989 12.9867 12.1633 14.0693 12.3446L33.6249 15.3082C34.4818 15.4504 35.1111 16.1935 35.1111 17.0611V51.9997Z" fill="#F3F3F1"/>
<path d="M50.2224 52H35.1113V28L50.6082 31.2462C51.4224 31.4276 52.0002 32.1476 52.0002 32.9813V50.2222C52.0002 51.2036 51.2038 52 50.2224 52Z" fill="#2FDF84"/>
<path d="M28 51.5555H20V43.9999C20 43.0186 20.7964 42.2222 21.7778 42.2222H26.2222C27.2036 42.2222 28 43.0186 28 43.9999V51.5555Z" fill="#2FDF84"/>
<path d="M35.1113 28V52H39.1113V28.8373L35.1113 28Z" fill="#00B871"/>
<path d="M25.7778 42.2222H21.7778C20.7964 42.2222 20 43.0186 20 43.9999V51.5555H24V43.9999C24 43.0186 24.7964 42.2222 25.7778 42.2222Z" fill="#00B871"/>
<path d="M16 50.2224V14.098C16 13.5433 16.2542 13.058 16.6418 12.7344L14.0693 12.3451C12.9867 12.1638 12 13.0011 12 14.098V50.2224C12 51.2038 12.7964 52.0002 13.7778 52.0002H17.7778C16.7964 52.0002 16 51.2038 16 50.2224Z" fill="#D5DBE1"/>
<path d="M35.1114 53.3334H13.7781C12.0625 53.3334 10.667 51.9378 10.667 50.2223V14.0996C10.667 13.1823 11.0688 12.3183 11.7674 11.7245C12.4661 11.1325 13.3834 10.8747 14.2883 11.0294L33.8243 13.9894C35.3514 14.2436 36.4448 15.5343 36.4448 17.0614V52C36.4448 52.736 35.8474 53.3334 35.1114 53.3334ZM13.7799 13.6552C13.6359 13.6552 13.5399 13.7174 13.4919 13.7583C13.4332 13.8098 13.3337 13.92 13.3337 14.0996V50.2223C13.3337 50.4676 13.5328 50.6667 13.7781 50.6667H33.7781V17.0614C33.7781 16.8427 33.6217 16.6578 33.4065 16.6223L13.8705 13.664C13.8385 13.6587 13.8083 13.6552 13.7799 13.6552Z" fill="black"/>
<path d="M50.2218 53.3332H35.1107C34.3747 53.3332 33.7773 52.7358 33.7773 51.9998V27.9998C33.7773 27.5981 33.9587 27.2176 34.2698 26.9652C34.5809 26.711 34.988 26.6114 35.3827 26.695L50.8796 29.9412C52.3302 30.263 53.3329 31.511 53.3329 32.9812V50.2221C53.3329 51.9376 51.9373 53.3332 50.2218 53.3332ZM36.444 50.6665H50.2218C50.4671 50.6665 50.6662 50.4674 50.6662 50.2221V32.9812C50.6662 32.7714 50.524 32.5936 50.3196 32.5474L36.444 29.6407V50.6665Z" fill="black"/>
<path d="M28.0003 52.8887H20.0003C19.2643 52.8887 18.667 52.2913 18.667 51.5553V43.9998C18.667 42.2842 20.0625 40.8887 21.7781 40.8887H26.2225C27.9381 40.8887 29.3337 42.2842 29.3337 43.9998V51.5553C29.3337 52.2913 28.7363 52.8887 28.0003 52.8887ZM21.3337 50.222H26.667V43.9998C26.667 43.7544 26.4679 43.5553 26.2225 43.5553H21.7781C21.5328 43.5553 21.3337 43.7544 21.3337 43.9998V50.222Z" fill="black"/>
<path d="M16.8887 18.6665H22.222V21.3332H16.8887V18.6665Z" fill="black"/>
<path d="M25.7773 18.6665H31.1107V21.3332H25.7773V18.6665Z" fill="black"/>
<path d="M16.8887 24H22.222V26.6667H16.8887V24Z" fill="black"/>
<path d="M25.7773 24H31.1107V26.6667H25.7773V24Z" fill="black"/>
<path d="M16.8887 29.3335H22.222V32.0002H16.8887V29.3335Z" fill="black"/>
<path d="M25.7773 29.3335H31.1107V32.0002H25.7773V29.3335Z" fill="black"/>
<path d="M16.8887 34.6665H22.222V37.3332H16.8887V34.6665Z" fill="black"/>
<path d="M25.7773 34.6665H31.1107V37.3332H25.7773V34.6665Z" fill="black"/>
<path d="M40.8887 34.6665H46.222V37.3332H40.8887V34.6665Z" fill="black"/>
<path d="M40.8887 40H46.222V42.6667H40.8887V40Z" fill="black"/>
<path d="M40.8887 45.3335H46.222V48.0002H40.8887V45.3335Z" fill="black"/>
<path d="M3.55566 50.6665H60.4446V53.3332H3.55566V50.6665Z" fill="black"/>
</svg>
