<svg width="62" height="64" viewBox="0 0 62 64" fill="none" xmlns="http://www.w3.org/2000/svg">
<path d="M41.5268 54.1026L57.2023 49.2374C60.0093 44.6108 61.6255 39.1815 61.6255 33.3748C61.6255 16.4609 47.9141 2.74951 31.0002 2.74951C14.0864 2.74951 0.375 16.4609 0.375 33.3748C0.375 41.37 3.44 48.6486 8.45762 54.1026H41.5268Z" fill="#4FABF7"/>
<path d="M39.3122 6.71576C39.3836 5.43738 40.6694 4.50488 41.9242 4.86876C42.1426 4.93213 42.3762 4.85751 42.5154 4.67763C43.1996 3.79326 44.2711 3.22363 45.4759 3.22363C47.1405 3.22363 48.5504 4.31101 49.0358 5.81413C49.1161 6.06313 49.3645 6.21013 49.6245 6.18051C50.5075 6.07988 51.3635 6.51126 51.817 7.25551C51.9713 7.50863 52.297 7.58776 52.5563 7.44401C52.8636 7.27363 53.2279 7.19363 53.6136 7.24038C54.4033 7.33601 55.0376 7.97713 55.1254 8.76763C55.242 9.81763 54.4233 10.7065 53.3968 10.7065H38.7255C37.7515 10.7065 36.927 9.90951 36.9436 8.93563C36.9609 7.92288 37.8207 7.18738 38.756 7.22738C39.0481 7.24013 39.2959 7.00788 39.3122 6.71576Z" fill="#73C3F9"/>
<path d="M30.724 14.7731C30.8341 12.8009 32.8176 11.3622 34.7536 11.9237C35.0905 12.0215 35.451 11.9062 35.6656 11.6289C36.7212 10.2645 38.3742 9.38574 40.2328 9.38574C42.801 9.38574 44.976 11.0634 45.7248 13.3822C45.8488 13.7664 46.232 13.9931 46.6331 13.9475C47.9952 13.7922 49.3158 14.4577 50.0155 15.606C50.2535 15.9966 50.756 16.1186 51.156 15.8969C51.6301 15.634 52.1921 15.5106 52.7872 15.5827C54.0055 15.7302 54.984 16.7192 55.1195 17.9389C55.2995 19.5587 54.0362 20.9301 52.4527 20.9301H29.8187C28.3162 20.9301 27.0441 19.7005 27.0697 18.1982C27.0965 16.6357 28.423 15.5011 29.8656 15.5629C30.3166 15.5819 30.6988 15.2236 30.724 14.7731Z" fill="#9BD8F9"/>
<path d="M24.4182 30.5624C24.2827 29.3428 23.3041 28.3538 22.086 28.2063C21.4907 28.1342 20.9289 28.2575 20.4547 28.5204C20.0547 28.7421 19.5522 28.6202 19.3142 28.2295C18.6146 27.0813 17.294 26.4158 15.9319 26.571C15.5307 26.6168 15.1477 26.3899 15.0236 26.0058C14.2747 23.6869 12.0997 22.0093 9.53162 22.0093C7.673 22.0093 6.02 22.888 4.96437 24.2524C4.74975 24.5298 4.38925 24.6449 4.05237 24.5473C3.17462 24.2927 2.28762 24.4503 1.56925 24.8814C0.792375 27.5784 0.375 30.4277 0.375 33.3747C0.375 33.4344 0.37675 33.4938 0.377125 33.5535H21.7517C23.335 33.5537 24.5982 32.1823 24.4182 30.5624Z" fill="#73C3F9"/>
<path d="M45.4918 46.6276H45.3008V60.4606C50.2632 57.8351 54.4172 53.8868 57.2928 49.0843V26.9498L37.8936 17.7153V43.5708H45.4919C46.3347 43.5708 47.0203 44.2565 47.0203 45.0992C47.0203 45.942 46.3346 46.6276 45.4918 46.6276Z" fill="#3C58A0"/>
<path d="M37.8936 43.5708H45.4919C45.4937 43.5708 45.4954 43.5711 45.4973 43.5711V43.3797C43.9734 42.9262 44.0628 41.2499 44.0628 41.2499C44.0628 41.2499 44.0628 25.8124 44.0628 24.0624C44.0628 22.3125 45.6104 22.4448 45.6104 22.4448L45.4219 21.299L37.8937 17.7153V43.5708H37.8936Z" fill="#2A428C"/>
<path d="M8.34082 53.9778C13.0812 59.1881 19.5946 62.7555 26.9272 63.73V46.6914H26.9273H34.1208V29.3687H8.34082V53.9778Z" fill="#DAE2FE"/>
<path d="M15.0943 34.1653C15.0943 31.5162 17.2418 29.3687 19.8909 29.3687H8.34082V53.9778C10.3088 56.1409 12.5833 58.0197 15.0943 59.5485V34.1653Z" fill="#BEC8F7"/>
<path d="M11.2305 15.1577H31.2317V29.4957H11.2305V15.1577Z" fill="#DAE2FE"/>
<path d="M16.609 26.106V18.5475C16.609 16.6753 18.1266 15.1577 19.9987 15.1577H11.2305V29.4957H19.9987C18.1266 29.4957 16.609 27.9781 16.609 26.106Z" fill="#BEC8F7"/>
<path d="M21.2316 5.85437C20.7041 5.85437 20.2764 5.42675 20.2764 4.89913V0.95525C20.2764 0.42775 20.704 0 21.2316 0C21.7591 0 22.1869 0.427625 22.1869 0.95525V4.89913C22.1867 5.42663 21.7591 5.85437 21.2316 5.85437Z" fill="#DAE2FE"/>
<path d="M12.1623 32.6777C11.6348 32.6777 11.207 33.1054 11.207 33.633V56.7419C11.8235 57.2646 12.4605 57.7636 13.1175 58.237V33.633C13.1175 33.1055 12.6899 32.6777 12.1623 32.6777Z" fill="#A8B7EF"/>
<path d="M15.7902 32.6777C15.2627 32.6777 14.835 33.1054 14.835 33.633V59.388C15.4572 59.7755 16.0943 60.1412 16.7455 60.4844V33.6331C16.7455 33.1055 16.3178 32.6777 15.7902 32.6777Z" fill="#A8B7EF"/>
<path d="M19.4181 32.6777C18.8906 32.6777 18.4629 33.1054 18.4629 33.633V61.3232C19.0888 61.6045 19.726 61.865 20.3734 62.1045V33.633C20.3734 33.1055 19.9456 32.6777 19.4181 32.6777Z" fill="#A8B7EF"/>
<path d="M23.0461 32.6777C22.5186 32.6777 22.0908 33.1054 22.0908 33.633V62.6816C22.7194 62.8725 23.3562 63.0445 24.0013 63.1954V33.633C24.0012 33.1055 23.5736 32.6777 23.0461 32.6777Z" fill="#A8B7EF"/>
<path d="M26.672 42.2335C26.1445 42.2335 25.7168 41.8059 25.7168 41.2782V33.633C25.7168 33.1055 26.1444 32.6777 26.672 32.6777C27.1995 32.6777 27.6273 33.1054 27.6273 33.633V41.2782C27.6273 41.8059 27.1997 42.2335 26.672 42.2335Z" fill="#A8B7EF"/>
<path d="M15.7902 27.2034C15.2627 27.2034 14.835 26.7758 14.835 26.2481V18.6418C14.835 18.1143 15.2626 17.6865 15.7902 17.6865C16.3178 17.6865 16.7455 18.1141 16.7455 18.6418V26.2481C16.7454 26.7756 16.3177 27.2034 15.7902 27.2034Z" fill="#A8B7EF"/>
<path d="M19.4181 27.2034C18.8906 27.2034 18.4629 26.7758 18.4629 26.2481V18.6418C18.4629 18.1143 18.8905 17.6865 19.4181 17.6865C19.9456 17.6865 20.3734 18.1141 20.3734 18.6418V26.2481C20.3733 26.7756 19.9456 27.2034 19.4181 27.2034Z" fill="#A8B7EF"/>
<path d="M23.0451 27.2034C22.5176 27.2034 22.0898 26.7758 22.0898 26.2481V18.6418C22.0898 18.1143 22.5175 17.6865 23.0451 17.6865C23.5726 17.6865 24.0003 18.1141 24.0003 18.6418V26.2481C24.0002 26.7756 23.5726 27.2034 23.0451 27.2034Z" fill="#A8B7EF"/>
<path d="M26.672 27.2034C26.1445 27.2034 25.7168 26.7758 25.7168 26.2481V18.6418C25.7168 18.1143 26.1444 17.6865 26.672 17.6865C27.1995 17.6865 27.6273 18.1141 27.6273 18.6418V26.2481C27.6273 26.7756 27.1995 27.2034 26.672 27.2034Z" fill="#A8B7EF"/>
<path d="M26.672 27.2034C26.1445 27.2034 25.7168 26.7758 25.7168 26.2481V18.6418C25.7168 18.1143 26.1444 17.6865 26.672 17.6865C27.1995 17.6865 27.6273 18.1141 27.6273 18.6418V26.2481C27.6273 26.7756 27.1997 27.2034 26.672 27.2034Z" fill="#A8B7EF"/>
<path d="M30.301 42.2335C29.7735 42.2335 29.3457 41.8059 29.3457 41.2782V33.633C29.3457 33.1055 29.7733 32.6777 30.301 32.6777C30.8286 32.6777 31.2562 33.1054 31.2562 33.633V41.2782C31.2562 41.8059 30.8285 42.2335 30.301 42.2335Z" fill="#A8B7EF"/>
<path d="M15.9922 5.6084H26.4699V15.1579H15.9922V5.6084Z" fill="#DAE2FE"/>
<path d="M20.3707 12.2681V8.49815C20.3707 6.90215 21.6644 5.6084 23.2604 5.6084H15.9922V15.1579H23.2604C21.6644 15.1579 20.3707 13.8641 20.3707 12.2681Z" fill="#BEC8F7"/>
<path d="M26.6738 46.6914V63.6944C28.0878 63.8944 29.5321 64.0002 31.0012 64.0002C36.2461 64.0002 41.1825 62.6807 45.4981 60.357V46.6914H26.6738Z" fill="#FFC839"/>
<path d="M33.4457 59.6817V51.0088C33.4457 48.624 35.3788 46.6909 37.7636 46.6909H26.6738V63.6939C28.0878 63.894 29.5321 63.9998 31.0012 63.9998C32.6828 63.9998 34.3326 63.8634 35.9404 63.6025C34.4664 62.9164 33.4457 61.4137 33.4457 59.6817Z" fill="#FFB332"/>
<path d="M53.1449 31.9007H41.9142C41.3867 31.9007 40.959 31.4731 40.959 30.9455C40.959 30.418 41.3866 29.9902 41.9142 29.9902H53.1449C53.6725 29.9902 54.1001 30.4179 54.1001 30.9455C54.1 31.4731 53.6724 31.9007 53.1449 31.9007Z" fill="#73C3F9"/>
<path d="M53.1449 35.9256H41.9142C41.3867 35.9256 40.959 35.498 40.959 34.9704C40.959 34.4429 41.3866 34.0151 41.9142 34.0151H53.1449C53.6725 34.0151 54.1001 34.4428 54.1001 34.9704C54.1 35.498 53.6724 35.9256 53.1449 35.9256Z" fill="#73C3F9"/>
<path d="M53.1449 39.9505H41.9142C41.3867 39.9505 40.959 39.5229 40.959 38.9953C40.959 38.4677 41.3866 38.04 41.9142 38.04H53.1449C53.6725 38.04 54.1001 38.4677 54.1001 38.9953C54.1001 39.5229 53.6724 39.9505 53.1449 39.9505Z" fill="#73C3F9"/>
<path d="M53.1444 43.9754H49.4455C48.918 43.9754 48.4902 43.5478 48.4902 43.0202C48.4902 42.4926 48.9179 42.0649 49.4455 42.0649H53.1444C53.672 42.0649 54.0996 42.4926 54.0996 43.0202C54.0996 43.5478 53.6719 43.9754 53.1444 43.9754Z" fill="#73C3F9"/>
<path d="M53.1444 48.0003H49.4455C48.918 48.0003 48.4902 47.5727 48.4902 47.0451C48.4902 46.5175 48.9179 46.0898 49.4455 46.0898H53.1444C53.672 46.0898 54.0996 46.5175 54.0996 47.0451C54.0996 47.5727 53.6719 48.0003 53.1444 48.0003Z" fill="#73C3F9"/>
<path d="M53.1448 52.0252H48.6818C48.1543 52.0252 47.7266 51.5976 47.7266 51.07C47.7266 50.5425 48.1542 50.1147 48.6818 50.1147H53.1448C53.6724 50.1147 54.1001 50.5424 54.1001 51.07C54.0999 51.5975 53.6723 52.0252 53.1448 52.0252Z" fill="#73C3F9"/>
<path d="M53.1449 54.1396H48.6818C48.1543 54.1396 47.7266 54.5673 47.7266 55.0949C47.7266 55.6225 48.1542 56.0501 48.6818 56.0501H51.5852C52.2363 55.4588 52.8603 54.8383 53.4584 54.1934C53.3601 54.1591 53.2548 54.1396 53.1449 54.1396Z" fill="#73C3F9"/>
<path d="M57.4087 27.9631C57.2709 27.9631 57.1312 27.9333 56.9985 27.87L37.2663 18.4693C36.7899 18.2424 36.5879 17.6723 36.8148 17.196C37.0417 16.7198 37.6118 16.5175 38.088 16.7445L57.8203 26.1453C58.2965 26.3721 58.4987 26.9423 58.2718 27.4185C58.1079 27.7621 57.7655 27.9631 57.4087 27.9631Z" fill="#4F71B6"/>
<path d="M30.6437 52.5757C30.1162 52.5757 29.6885 52.1481 29.6885 51.6205V50.4552C29.6885 49.9277 30.1161 49.5 30.6437 49.5C31.1712 49.5 31.5989 49.9276 31.5989 50.4552V51.6205C31.5989 52.148 31.1712 52.5757 30.6437 52.5757Z" fill="#FF9100"/>
<path d="M34.2707 52.5757C33.7432 52.5757 33.3154 52.1481 33.3154 51.6205V50.4552C33.3154 49.9277 33.7431 49.5 34.2707 49.5C34.7983 49.5 35.2259 49.9276 35.2259 50.4552V51.6205C35.2259 52.148 34.7983 52.5757 34.2707 52.5757Z" fill="#FF9100"/>
<path d="M37.8986 52.5757C37.3711 52.5757 36.9434 52.1481 36.9434 51.6205V50.4552C36.9434 49.9277 37.371 49.5 37.8986 49.5C38.4262 49.5 38.8539 49.9276 38.8539 50.4552V51.6205C38.8539 52.148 38.4262 52.5757 37.8986 52.5757Z" fill="#FF9100"/>
<path d="M41.5265 52.5757C40.999 52.5757 40.5713 52.1481 40.5713 51.6205V50.4552C40.5713 49.9277 40.9989 49.5 41.5265 49.5C42.054 49.5 42.4818 49.9276 42.4818 50.4552V51.6205C42.4817 52.148 42.054 52.5757 41.5265 52.5757Z" fill="#FF9100"/>
<path d="M30.6437 57.5171C30.1162 57.5171 29.6885 57.0895 29.6885 56.5619V55.3967C29.6885 54.8692 30.1161 54.4414 30.6437 54.4414C31.1712 54.4414 31.5989 54.869 31.5989 55.3967V56.5619C31.5989 57.0895 31.1712 57.5171 30.6437 57.5171Z" fill="#FF9100"/>
<path d="M34.2707 57.5171C33.7432 57.5171 33.3154 57.0895 33.3154 56.5619V55.3967C33.3154 54.8692 33.7431 54.4414 34.2707 54.4414C34.7983 54.4414 35.2259 54.869 35.2259 55.3967V56.5619C35.2259 57.0895 34.7983 57.5171 34.2707 57.5171Z" fill="#FF9100"/>
<path d="M37.8986 57.5171C37.3711 57.5171 36.9434 57.0895 36.9434 56.5619V55.3967C36.9434 54.8692 37.371 54.4414 37.8986 54.4414C38.4262 54.4414 38.8539 54.869 38.8539 55.3967V56.5619C38.8539 57.0895 38.4262 57.5171 37.8986 57.5171Z" fill="#FF9100"/>
<path d="M41.5265 57.5171C40.999 57.5171 40.5713 57.0895 40.5713 56.5619V55.3967C40.5713 54.8692 40.9989 54.4414 41.5265 54.4414C42.054 54.4414 42.4818 54.869 42.4818 55.3967V56.5619C42.4817 57.0895 42.054 57.5171 41.5265 57.5171Z" fill="#FF9100"/>
<path d="M30.6437 62.4586C30.1162 62.4586 29.6885 62.0309 29.6885 61.5033V60.3381C29.6885 59.8106 30.1161 59.3828 30.6437 59.3828C31.1712 59.3828 31.5989 59.8104 31.5989 60.3381V61.5033C31.5989 62.0308 31.1712 62.4586 30.6437 62.4586Z" fill="#FF9100"/>
<path d="M34.2707 62.4586C33.7432 62.4586 33.3154 62.0309 33.3154 61.5033V60.3381C33.3154 59.8106 33.7431 59.3828 34.2707 59.3828C34.7983 59.3828 35.2259 59.8104 35.2259 60.3381V61.5033C35.2259 62.0308 34.7983 62.4586 34.2707 62.4586Z" fill="#FF9100"/>
<path d="M37.8986 62.4586C37.3711 62.4586 36.9434 62.0309 36.9434 61.5033V60.3381C36.9434 59.8106 37.371 59.3828 37.8986 59.3828C38.4262 59.3828 38.8539 59.8104 38.8539 60.3381V61.5033C38.8539 62.0308 38.4262 62.4586 37.8986 62.4586Z" fill="#FF9100"/>
<path d="M41.5265 59.3828C40.999 59.3828 40.5713 59.8104 40.5713 60.3381V61.5033C40.5713 61.8486 40.7552 62.1502 41.0297 62.3179C41.5044 62.1534 41.9738 61.9777 42.4375 61.7908C42.4662 61.7001 42.4818 61.6036 42.4818 61.5033V60.3381C42.4817 59.8104 42.054 59.3828 41.5265 59.3828Z" fill="#FF9100"/>
<path d="M45.4979 46.8186H26.6735C25.7239 46.8186 24.9541 46.0489 24.9541 45.0993C24.9541 44.1496 25.7239 43.3799 26.6735 43.3799H45.4977C46.4474 43.3799 47.2171 44.1496 47.2171 45.0993C47.2172 46.0489 46.4475 46.8186 45.4979 46.8186Z" fill="#FFDD40"/>
<path d="M34.4793 45.0993C34.4793 44.1496 35.2491 43.3799 36.1987 43.3799H26.6735C25.7238 43.3799 24.9541 44.1496 24.9541 45.0993C24.9541 46.0489 25.7238 46.8186 26.6735 46.8186H36.1987C35.2491 46.8186 34.4793 46.0489 34.4793 45.0993Z" fill="#FFC839"/>
<path d="M26.4701 6.56333H15.9924C15.4649 6.56333 15.0371 6.13571 15.0371 5.60808C15.0371 5.08046 15.4647 4.65283 15.9924 4.65283H26.4701C26.9976 4.65283 27.4254 5.08046 27.4254 5.60808C27.4254 6.13571 26.9976 6.56333 26.4701 6.56333Z" fill="#E9EFFF"/>
<path d="M31.2319 16.1131H11.2306C10.7031 16.1131 10.2754 15.6855 10.2754 15.1579C10.2754 14.6304 10.703 14.2026 11.2306 14.2026H31.2319C31.7594 14.2026 32.1871 14.6303 32.1871 15.1579C32.1871 15.6854 31.7594 16.1131 31.2319 16.1131Z" fill="#E9EFFF"/>
<path d="M34.1218 30.3236H8.34197C7.81447 30.3236 7.38672 29.896 7.38672 29.3683C7.38672 28.8408 7.81434 28.4131 8.34197 28.4131H34.1218C34.6493 28.4131 35.0771 28.8407 35.0771 29.3683C35.0771 29.8958 34.6495 30.3236 34.1218 30.3236Z" fill="#E9EFFF"/>
<path d="M19.4181 12.5746C18.8906 12.5746 18.4629 12.147 18.4629 11.6194V8.93474C18.4629 8.40724 18.8905 7.97949 19.4181 7.97949C19.9458 7.97949 20.3734 8.40712 20.3734 8.93474V11.6194C20.3734 12.1469 19.9456 12.5746 19.4181 12.5746Z" fill="#A8B7EF"/>
<path d="M23.0451 12.5746C22.5176 12.5746 22.0898 12.147 22.0898 11.6194V8.93474C22.0898 8.40724 22.5175 7.97949 23.0451 7.97949C23.5727 7.97949 24.0003 8.40712 24.0003 8.93474V11.6194C24.0003 12.1469 23.5726 12.5746 23.0451 12.5746Z" fill="#A8B7EF"/>
</svg>
