<svg width="1080" height="1091" viewBox="0 0 1080 1091" fill="none" xmlns="http://www.w3.org/2000/svg">
<rect width="1080" height="1091" fill="white"/>
<rect width="1080" height="1091" fill="#FFF0CE"/>
<rect width="1080" height="1091"/>
<g clip-path="url(#clip0)">
<path d="M730.815 344.321L731.704 343.304C732.534 342.346 734.015 342.226 735.023 343.064L736.03 343.962L737.571 342.226L736.563 341.328C735.615 340.49 735.497 338.994 736.326 337.976L737.215 336.958L735.497 335.402L734.608 336.42C733.778 337.377 732.297 337.497 731.289 336.659L730.282 335.761L728.741 337.497L729.749 338.395C730.697 339.233 730.815 340.73 729.986 341.747L729.097 342.765L730.815 344.321Z" fill="#2B1C1C"/>
<path d="M679.911 387.962L680.444 387.363C680.918 386.824 681.748 386.764 682.34 387.243L682.933 387.782L683.822 386.764L683.229 386.226C682.696 385.747 682.637 384.909 683.111 384.31L683.644 383.711L682.637 382.813L682.103 383.412C681.629 383.951 680.8 384.011 680.207 383.532L679.614 382.993L678.726 384.011L679.318 384.549C679.852 385.028 679.911 385.866 679.437 386.465L678.903 387.064L679.911 387.962Z" fill="#2B1C1C"/>
<path d="M760.622 422.083L761.037 421.664C761.393 421.245 762.045 421.185 762.459 421.544L762.874 421.963L763.526 421.185L763.111 420.766C762.696 420.407 762.637 419.749 762.993 419.329L763.407 418.91L762.637 418.252L762.222 418.671C761.867 419.09 761.215 419.15 760.8 418.791L760.385 418.372L759.733 419.15L760.148 419.569C760.563 419.928 760.622 420.587 760.267 421.006L759.852 421.425L760.622 422.083Z" fill="#2B1C1C"/>
<path d="M720.8 395.504L721.334 394.906C721.808 394.367 722.637 394.307 723.23 394.786L723.823 395.325L724.712 394.307L724.119 393.768C723.586 393.289 723.526 392.451 724 391.853L724.534 391.254L723.526 390.356L722.993 390.955C722.519 391.493 721.689 391.553 721.097 391.074L720.504 390.536L719.615 391.553L720.208 392.092C720.741 392.571 720.8 393.409 720.326 394.008L719.793 394.606L720.8 395.504Z" fill="#2B1C1C"/>
<path d="M710.074 445.729L710.311 445.43C710.548 445.13 710.963 445.13 711.259 445.37L711.556 445.609L711.97 445.13L711.674 444.891C711.378 444.652 711.378 444.233 711.615 443.933L711.852 443.634L711.378 443.215L711.141 443.514C710.904 443.813 710.489 443.813 710.193 443.574L709.896 443.335L709.481 443.813L709.778 444.053C710.074 444.292 710.074 444.711 709.837 445.011L709.6 445.31L710.074 445.729Z" fill="#2B1C1C"/>
<path d="M687.141 491.405L687.26 491.285C687.378 491.165 687.615 491.105 687.734 491.225L687.852 491.345L688.089 491.105L687.971 490.986C687.852 490.866 687.793 490.626 687.911 490.507L688.03 490.387L687.793 490.147L687.674 490.267C687.556 490.387 687.319 490.447 687.2 490.327L687.082 490.207L686.845 490.447L686.963 490.566C687.082 490.686 687.141 490.926 687.022 491.045L686.904 491.165L687.141 491.405Z" fill="#2B1C1C"/>
<path d="M732.83 432.919L733.067 432.619C733.304 432.32 733.719 432.32 734.015 432.559L734.311 432.799L734.726 432.32L734.43 432.08C734.134 431.841 734.134 431.422 734.371 431.123L734.608 430.823L734.134 430.404L733.897 430.704C733.66 431.003 733.245 431.003 732.948 430.763L732.652 430.524L732.237 431.003L732.534 431.242C732.83 431.482 732.83 431.901 732.593 432.2L732.356 432.499L732.83 432.919Z" fill="#2B1C1C"/>
<path d="M748.652 463.688L748.889 463.389C749.126 463.089 749.541 463.089 749.837 463.329L750.134 463.568L750.548 463.089L750.252 462.85C749.956 462.611 749.956 462.191 750.193 461.892L750.43 461.593L749.956 461.174L749.719 461.473C749.482 461.772 749.067 461.772 748.771 461.533L748.474 461.294L748.06 461.772L748.356 462.012C748.652 462.251 748.652 462.67 748.415 462.97L748.178 463.269L748.652 463.688Z" fill="#2B1C1C"/>
<path d="M733.659 470.333L733.896 470.033C734.133 469.734 734.548 469.734 734.844 469.973L735.14 470.213L735.555 469.734L735.259 469.494C734.963 469.255 734.963 468.836 735.2 468.537L735.437 468.237L734.963 467.818L734.726 468.118C734.489 468.417 734.074 468.417 733.778 468.178L733.481 467.938L733.066 468.417L733.363 468.656C733.659 468.896 733.659 469.315 733.422 469.614L733.185 469.914L733.659 470.333Z" fill="#2B1C1C"/>
<path d="M716 365.812L716.119 365.693C716.237 365.573 716.474 365.513 716.593 365.633L716.712 365.752L716.949 365.513L716.83 365.393C716.712 365.274 716.652 365.034 716.771 364.914L716.889 364.795L716.652 364.555L716.534 364.675C716.415 364.795 716.178 364.854 716.06 364.735L715.941 364.615L715.704 364.854L715.823 364.974C715.941 365.094 716 365.333 715.882 365.453L715.763 365.573L716 365.812Z" fill="#2B1C1C"/>
<path d="M675.763 348.212L676 347.913C676.237 347.614 676.651 347.614 676.948 347.853L677.244 348.093L677.659 347.614L677.363 347.374C677.066 347.135 677.066 346.716 677.303 346.417L677.54 346.117L677.066 345.698L676.829 345.998C676.592 346.297 676.177 346.297 675.881 346.057L675.585 345.818L675.17 346.297L675.466 346.536C675.763 346.776 675.763 347.195 675.526 347.494L675.288 347.793L675.763 348.212Z" fill="#2B1C1C"/>
<path d="M691.467 367.728L691.704 367.429C691.941 367.129 692.356 367.129 692.652 367.369L692.948 367.608L693.363 367.129L693.067 366.89C692.77 366.651 692.77 366.232 693.007 365.932L693.244 365.633L692.77 365.214L692.533 365.513C692.296 365.812 691.881 365.812 691.585 365.573L691.289 365.334L690.874 365.812L691.17 366.052C691.467 366.291 691.467 366.71 691.23 367.01L690.993 367.309L691.467 367.728Z" fill="#2B1C1C"/>
<path d="M701.067 338.275L701.185 338.155C701.304 338.036 701.541 337.976 701.659 338.096L701.778 338.215L702.015 337.976L701.896 337.856C701.778 337.736 701.719 337.497 701.837 337.377L701.956 337.258L701.719 337.018L701.6 337.138C701.482 337.258 701.245 337.317 701.126 337.198L701.008 337.078L700.771 337.317L700.889 337.437C701.008 337.557 701.067 337.796 700.948 337.916L700.83 338.036L701.067 338.275Z" fill="#2B1C1C"/>
<path d="M749.007 383.831L749.126 383.711C749.244 383.591 749.481 383.532 749.6 383.651L749.718 383.771L749.955 383.532L749.837 383.412C749.718 383.292 749.659 383.053 749.778 382.933L749.896 382.813L749.659 382.574L749.541 382.693C749.422 382.813 749.185 382.873 749.066 382.753L748.948 382.634L748.711 382.873L748.829 382.993C748.948 383.112 749.007 383.352 748.889 383.472L748.77 383.591L749.007 383.831Z" fill="#2B1C1C"/>
<path d="M773.126 450.518L773.245 450.399C773.363 450.279 773.6 450.219 773.719 450.339L773.837 450.458L774.075 450.219L773.956 450.099C773.837 449.98 773.778 449.74 773.897 449.62L774.015 449.501L773.778 449.261L773.66 449.381C773.541 449.501 773.304 449.561 773.186 449.441L773.067 449.321L772.83 449.561L772.949 449.68C773.067 449.8 773.126 450.039 773.008 450.159L772.889 450.279L773.126 450.518Z" fill="#2B1C1C"/>
<path d="M757.837 492.961L757.956 492.841C758.074 492.722 758.311 492.662 758.43 492.782L758.548 492.901L758.786 492.662L758.667 492.542C758.548 492.422 758.489 492.183 758.608 492.063L758.726 491.944L758.489 491.704L758.371 491.824C758.252 491.944 758.015 492.003 757.897 491.884L757.778 491.764L757.541 492.003L757.66 492.123C757.778 492.243 757.837 492.482 757.719 492.602L757.6 492.722L757.837 492.961Z" fill="#2B1C1C"/>
<path d="M712.563 518.223L712.681 518.103C712.8 517.984 713.037 517.924 713.155 518.043L713.274 518.163L713.511 517.924L713.392 517.804C713.274 517.684 713.215 517.445 713.333 517.325L713.452 517.205L713.215 516.966L713.096 517.086C712.978 517.205 712.741 517.265 712.622 517.145L712.504 517.026L712.267 517.265L712.385 517.385C712.504 517.505 712.563 517.744 712.444 517.864L712.326 517.984L712.563 518.223Z" fill="#2B1C1C"/>
<path d="M695.496 415.378L695.733 415.079C695.97 414.78 696.385 414.78 696.681 415.019L696.977 415.259L697.392 414.78L697.096 414.54C696.8 414.301 696.8 413.882 697.037 413.583L697.274 413.283L696.8 412.864L696.563 413.164C696.326 413.463 695.911 413.463 695.614 413.223L695.318 412.984L694.903 413.463L695.2 413.702C695.496 413.942 695.496 414.361 695.259 414.66L695.022 414.959L695.496 415.378Z" fill="#2B1C1C"/>
<path d="M692.83 463.448L693.067 463.149C693.304 462.85 693.719 462.85 694.015 463.089L694.311 463.329L694.726 462.85L694.43 462.61C694.134 462.371 694.134 461.952 694.371 461.652L694.608 461.353L694.134 460.934L693.897 461.233C693.66 461.533 693.245 461.533 692.948 461.293L692.652 461.054L692.237 461.533L692.534 461.772C692.83 462.012 692.83 462.431 692.593 462.73L692.356 463.029L692.83 463.448Z" fill="#2B1C1C"/>
<path d="M713.037 792.994H780C780 755.879 749.778 725.349 713.037 725.349C676.296 725.349 646.074 755.879 646.074 792.994H713.037ZM652.296 787.007C653.659 772.88 659.822 759.77 669.956 749.473C681.57 737.74 696.859 731.335 713.037 731.335C729.215 731.335 744.504 737.8 756.119 749.473C766.311 759.77 772.415 772.88 773.778 787.007H718.963L731.882 773.957L727.674 769.707L713.037 784.553L698.4 769.767L694.193 774.017L707.111 787.007H652.296Z" fill="#2B1C1C"/>
<path d="M688.148 792.994H391.852V457.762C391.852 375.091 458.163 308.104 540 308.104C621.837 308.104 688.148 375.091 688.148 457.762V792.994Z" fill="#2B1C1C"/>
<path d="M658.518 481.707H599.259V529.597H658.518V481.707Z" fill="white"/>
<path d="M658.518 559.528H540V607.419H658.518V559.528Z" fill="white"/>
<path d="M658.518 637.35H480.74V685.24H658.518V637.35Z" fill="white"/>
<path d="M658.518 715.172H421.481V763.062H658.518V715.172Z" fill="white"/>
<path d="M780 787.007H300V792.994H780V787.007Z" fill="#2B1C1C"/>
<path d="M487.259 461.952H485.54C483.881 461.952 482.518 460.575 482.518 458.899V457.163H479.555V458.899C479.555 460.575 478.192 461.952 476.533 461.952H474.814V464.945H476.533C478.192 464.945 479.555 466.322 479.555 467.998V469.734H482.518V467.998C482.518 466.322 483.881 464.945 485.54 464.945H487.259V461.952Z" fill="white"/>
<path d="M474.815 502.419H473.808C472.86 502.419 472.089 501.641 472.089 500.683V499.666H470.371V500.683C470.371 501.641 469.6 502.419 468.652 502.419H467.704V504.155H468.712C469.66 504.155 470.43 504.933 470.43 505.891V506.909H472.149V505.891C472.149 504.933 472.919 504.155 473.867 504.155H474.874V502.419H474.815Z" fill="white"/>
<path d="M520.445 462.79H519.674C518.963 462.79 518.371 462.192 518.371 461.473V460.755H517.126V461.533C517.126 462.251 516.534 462.85 515.822 462.85H515.111V464.107H515.882C516.593 464.107 517.185 464.706 517.185 465.424V466.202H518.43V465.424C518.43 464.706 519.022 464.107 519.734 464.107H520.504V462.79H520.445Z" fill="white"/>
<path d="M439.259 395.145H438.489C437.778 395.145 437.185 394.547 437.185 393.828V393.11H435.941V393.888C435.941 394.606 435.348 395.205 434.637 395.205H433.926V396.462H434.696C435.407 396.462 436 397.061 436 397.779V398.557H437.244V397.779C437.244 397.061 437.837 396.462 438.548 396.462H439.318V395.145H439.259Z" fill="white"/>
<path d="M460 595.686H459.23C458.519 595.686 457.926 595.087 457.926 594.369V593.65H456.682V594.429C456.682 595.147 456.089 595.746 455.378 595.746H454.667V597.003H455.437C456.148 597.003 456.741 597.601 456.741 598.32V599.098H457.986V598.32C457.986 597.601 458.578 597.003 459.289 597.003H460.06V595.686H460Z" fill="white"/>
<path d="M447.555 456.325H446.548C445.6 456.325 444.83 455.547 444.83 454.589V453.571H443.111V454.589C443.111 455.547 442.341 456.325 441.392 456.325H440.444V458.061H441.452C442.4 458.061 443.17 458.839 443.17 459.797V460.815H444.889V459.797C444.889 458.839 445.659 458.061 446.607 458.061H447.615V456.325H447.555Z" fill="white"/>
<path d="M504.444 424.418H503.97C503.496 424.418 503.141 424.059 503.141 423.58V423.041H502.311V423.52C502.311 423.999 501.955 424.358 501.481 424.358H500.889V425.196H501.363C501.837 425.196 502.192 425.555 502.192 426.034V426.513H503.022V426.034C503.022 425.555 503.378 425.196 503.852 425.196H504.326V424.418H504.444Z" fill="white"/>
<path d="M567.259 408.136H567.022C566.785 408.136 566.607 407.956 566.607 407.716V407.477H566.193V407.716C566.193 407.956 566.015 408.136 565.778 408.136H565.481V408.555H565.718C565.956 408.555 566.133 408.734 566.133 408.974V409.213H566.548V408.974C566.548 408.734 566.726 408.555 566.963 408.555H567.2V408.136H567.259Z" fill="white"/>
<path d="M594.519 438.067H594.282C594.045 438.067 593.867 437.887 593.867 437.648V437.408H593.452V437.648C593.452 437.887 593.275 438.067 593.038 438.067H592.741V438.486H592.978C593.215 438.486 593.393 438.665 593.393 438.905V439.144H593.808V438.905C593.808 438.665 593.986 438.486 594.223 438.486H594.46V438.067H594.519Z" fill="white"/>
<path d="M552.444 456.744H551.97C551.496 456.744 551.141 456.385 551.141 455.906V455.367H550.311V455.846C550.311 456.325 549.955 456.684 549.481 456.684H548.889V457.522H549.363C549.837 457.522 550.192 457.881 550.192 458.36V458.839H551.022V458.36C551.022 457.881 551.378 457.522 551.852 457.522H552.326V456.744H552.444Z" fill="white"/>
<path d="M473.037 413.044H472.563C472.089 413.044 471.733 412.685 471.733 412.206V411.667H470.904V412.146C470.904 412.625 470.548 412.984 470.074 412.984H469.481V413.822H469.956C470.43 413.822 470.785 414.181 470.785 414.66V415.139H471.615V414.66C471.615 414.181 471.97 413.822 472.444 413.822H472.918V413.044H473.037Z" fill="white"/>
<path d="M489.037 371.739H488.563C488.089 371.739 487.733 371.379 487.733 370.901V370.362H486.904V370.841C486.904 371.32 486.548 371.679 486.074 371.679H485.481V372.517H485.956C486.43 372.517 486.785 372.876 486.785 373.355V373.834H487.615V373.355C487.615 372.876 487.97 372.517 488.444 372.517H488.919V371.739H489.037Z" fill="white"/>
<path d="M508 380.718H507.526C507.052 380.718 506.696 380.359 506.696 379.88V379.341H505.867V379.82C505.867 380.299 505.511 380.658 505.037 380.658H504.444V381.496H504.918C505.392 381.496 505.748 381.856 505.748 382.334V382.813H506.578V382.334C506.578 381.856 506.933 381.496 507.407 381.496H507.881V380.718H508Z" fill="white"/>
<path d="M423.259 485.957H423.022C422.785 485.957 422.607 485.777 422.607 485.538V485.298H422.193V485.538C422.193 485.777 422.015 485.957 421.778 485.957H421.481V486.376H421.718C421.956 486.376 422.133 486.555 422.133 486.795V487.034H422.548V486.795C422.548 486.555 422.726 486.376 422.963 486.376H423.2V485.957H423.259Z" fill="white"/>
<path d="M473.037 541.749H472.563C472.089 541.749 471.733 541.39 471.733 540.911V540.373H470.904V540.851C470.904 541.33 470.548 541.69 470.074 541.69H469.481V542.528H469.956C470.43 542.528 470.785 542.887 470.785 543.366V543.845H471.615V543.366C471.615 542.887 471.97 542.528 472.444 542.528H472.918V541.749H473.037Z" fill="white"/>
<path d="M535.851 483.083H535.377C534.903 483.083 534.548 482.724 534.548 482.245V481.707H533.718V482.185C533.718 482.664 533.363 483.024 532.888 483.024H532.296V483.862H532.77C533.244 483.862 533.6 484.221 533.6 484.7V485.179H534.429V484.7C534.429 484.221 534.785 483.862 535.259 483.862H535.733V483.083H535.851Z" fill="white"/>
<path d="M561.926 516.487H561.689C561.452 516.487 561.274 516.308 561.274 516.068V515.829H560.86V516.068C560.86 516.308 560.682 516.487 560.445 516.487H560.148V516.906H560.385C560.622 516.906 560.8 517.086 560.8 517.325V517.565H561.215V517.325C561.215 517.086 561.393 516.906 561.63 516.906H561.867V516.487H561.926Z" fill="white"/>
<path d="M425.037 580.54H424.8C424.563 580.54 424.385 580.361 424.385 580.121V579.882H423.97V580.121C423.97 580.361 423.792 580.54 423.555 580.54H423.259V580.959H423.496C423.733 580.959 423.911 581.139 423.911 581.378V581.618H424.325V581.378C424.325 581.139 424.503 580.959 424.74 580.959H424.977V580.54H425.037Z" fill="white"/>
<path d="M426.815 628.43H426.578C426.341 628.43 426.163 628.251 426.163 628.011V627.772H425.748V628.011C425.748 628.251 425.57 628.43 425.333 628.43H425.037V628.85H425.274C425.511 628.85 425.689 629.029 425.689 629.269V629.508H426.104V629.269C426.104 629.029 426.282 628.85 426.519 628.85H426.756V628.43H426.815Z" fill="white"/>
<path d="M440.444 539.953H439.97C439.496 539.953 439.141 539.594 439.141 539.115V538.577H438.311V539.056C438.311 539.534 437.955 539.894 437.481 539.894H436.889V540.732H437.363C437.837 540.732 438.192 541.091 438.192 541.57V542.049H439.022V541.57C439.022 541.091 439.378 540.732 439.852 540.732H440.326V539.953H440.444Z" fill="white"/>
<path d="M445.778 508.226H445.304C444.83 508.226 444.475 507.867 444.475 507.388V506.849H443.645V507.328C443.645 507.807 443.289 508.166 442.815 508.166H442.223V509.004H442.697C443.171 509.004 443.526 509.363 443.526 509.842V510.321H444.356V509.842C444.356 509.363 444.712 509.004 445.186 509.004H445.66V508.226H445.778Z" fill="white"/>
<path d="M490.815 582.336H490.578C490.341 582.336 490.163 582.157 490.163 581.917V581.678H489.748V581.917C489.748 582.157 489.57 582.336 489.333 582.336H489.037V582.755H489.274C489.511 582.755 489.689 582.935 489.689 583.174V583.414H490.104V583.174C490.104 582.935 490.282 582.755 490.519 582.755H490.756V582.336H490.815Z" fill="white"/>
<path d="M460.592 570.364H460.355C460.118 570.364 459.94 570.184 459.94 569.945V569.705H459.526V569.945C459.526 570.184 459.348 570.364 459.111 570.364H458.814V570.783H459.051C459.289 570.783 459.466 570.962 459.466 571.202V571.441H459.881V571.202C459.881 570.962 460.059 570.783 460.296 570.783H460.533V570.364H460.592Z" fill="white"/>
<path d="M448.148 652.376H447.911C447.674 652.376 447.496 652.196 447.496 651.957V651.717H447.081V651.957C447.081 652.196 446.903 652.376 446.666 652.376H446.37V652.795H446.607C446.844 652.795 447.022 652.974 447.022 653.214V653.453H447.437V653.214C447.437 652.974 447.615 652.795 447.852 652.795H448.089V652.376H448.148Z" fill="white"/>
<path d="M422.074 668.539H421.837C421.6 668.539 421.422 668.359 421.422 668.12V667.88H421.007V668.12C421.007 668.359 420.829 668.539 420.592 668.539H420.296V668.958H420.533C420.77 668.958 420.948 669.137 420.948 669.377V669.616H421.363V669.377C421.363 669.137 421.54 668.958 421.777 668.958H422.014V668.539H422.074Z" fill="white"/>
<path d="M411.408 598.499H411.171C410.934 598.499 410.756 598.32 410.756 598.08V597.841H410.341V598.08C410.341 598.32 410.163 598.499 409.926 598.499H409.63V598.918H409.867C410.104 598.918 410.282 599.098 410.282 599.337V599.577H410.697V599.337C410.697 599.098 410.874 598.918 411.111 598.918H411.348V598.499H411.408Z" fill="white"/>
<path d="M409.629 523.671H409.392C409.155 523.671 408.977 523.491 408.977 523.252V523.012H408.563V523.252C408.563 523.491 408.385 523.671 408.148 523.671H407.852V524.09H408.089C408.326 524.09 408.503 524.269 408.503 524.509V524.748H408.918V524.509C408.918 524.269 409.096 524.09 409.333 524.09H409.57V523.671H409.629Z" fill="white"/>
<path d="M412.592 438.665H412.355C412.118 438.665 411.94 438.486 411.94 438.246V438.007H411.526V438.246C411.526 438.486 411.348 438.665 411.111 438.665H410.814V439.084H411.051C411.289 439.084 411.466 439.264 411.466 439.503V439.743H411.881V439.503C411.881 439.264 412.059 439.084 412.296 439.084H412.533V438.665H412.592Z" fill="white"/>
<path d="M455.852 359.048H455.615C455.378 359.048 455.2 358.868 455.2 358.629V358.389H454.785V358.629C454.785 358.868 454.608 359.048 454.371 359.048H454.074V359.467H454.311C454.548 359.467 454.726 359.646 454.726 359.886V360.185H455.141V359.946C455.141 359.706 455.319 359.527 455.556 359.527H455.793V359.048H455.852Z" fill="white"/>
<path d="M509.185 338.096H508.948C508.711 338.096 508.533 337.916 508.533 337.677V337.438H508.118V337.677C508.118 337.916 507.941 338.096 507.704 338.096H507.407V338.515H507.644C507.881 338.515 508.059 338.695 508.059 338.934V339.233H508.474V338.994C508.474 338.754 508.652 338.575 508.889 338.575H509.126V338.096H509.185Z" fill="white"/>
<path d="M571.408 360.844H571.171C570.934 360.844 570.756 360.664 570.756 360.425V360.185H570.341V360.425C570.341 360.664 570.163 360.844 569.926 360.844H569.63V361.263H569.867C570.104 361.263 570.282 361.442 570.282 361.682V361.981H570.697V361.741C570.697 361.502 570.874 361.322 571.111 361.322H571.348V360.844H571.408Z" fill="white"/>
<path d="M506.223 502.838H505.748C505.274 502.838 504.919 502.479 504.919 502V501.461H504.089V501.94C504.089 502.419 503.734 502.778 503.26 502.778H502.667V503.617H503.141C503.615 503.617 503.971 503.976 503.971 504.455V504.933H504.8V504.455C504.8 503.976 505.156 503.617 505.63 503.617H506.104V502.838H506.223Z" fill="white"/>
<path d="M535.851 426.214H535.377C534.903 426.214 534.548 425.855 534.548 425.376V424.837H533.718V425.316C533.718 425.795 533.363 426.154 532.888 426.154H532.296V426.992H532.77C533.244 426.992 533.6 427.351 533.6 427.83V428.309H534.429V427.83C534.429 427.351 534.785 426.992 535.259 426.992H535.733V426.214H535.851Z" fill="white"/>
</g>
<defs>
<clipPath id="clip0">
<rect width="480" height="484.889" fill="white" transform="translate(300 308.104)"/>
</clipPath>
</defs>
</svg>
