<svg width="64" height="64" viewBox="0 0 64 64" fill="none" xmlns="http://www.w3.org/2000/svg">
    <path d="M62 62H2V10H55L62 17V62Z" fill="#DED8D0"/>
    <path d="M62 34C50.9561 45.185 27.605 53.4356 2 55.7964V62H62V34Z" fill="#C9C4BD"/>
    <path d="M62 17H55V10L62 17Z" fill="#C9C4BD"/>
    <path d="M15.3164 53.9487L14.6836 52.0513L25.3232 48.5049L17.4717 38.6904L42.5239 25.1206L43.4761 26.8794L20.5283 39.3096L28.6768 49.4951L15.3164 53.9487Z" fill="#223B5A"/>
    <path d="M43 32C46.3137 32 49 29.3137 49 26C49 22.6863 46.3137 20 43 20C39.6863 20 37 22.6863 37 26C37 29.3137 39.6863 32 43 32Z" fill="#E34E4B"/>
    <path d="M10 26L13 20L16 26H10Z" fill="#3CADC9"/>
    <path d="M21 29L24 23L27 29H21Z" fill="#3CADC9"/>
    <path d="M7 42L10 36L13 42H7Z" fill="#3CADC9"/>
    <path d="M27 58L30 52L33 58H27Z" fill="#3CADC9"/>
    <path d="M40 54H55V58H40V54Z" fill="#3CADC9"/>
    <path d="M53 37C53 36.45 53.22 35.95 53.59 35.59C53.95 35.22 54.45 35 55 35C56.1 35 57 35.9 57 37V52L55 54H40L37 51V45L41 40V27C41 25.9 41.9 25 43 25C43.55 25 44.05 25.22 44.41 25.59C44.78 25.95 45 26.45 45 27V37C45 35.9 45.9 35 47 35C47.55 35 48.05 35.22 48.41 35.59C48.78 35.95 49 36.45 49 37C49 35.9 49.9 35 51 35C51.55 35 52.05 35.22 52.41 35.59C52.78 35.95 53 36.45 53 37Z" fill="#50B6CF"/>
    <path d="M36 7L37 2H27L28 7H24V14H40V7H36Z" fill="#F5A947"/>
    <path d="M37.8369 51.8366L40.0004 54.0001H55.0004L57.0004 52.0001V44C53.213 48.1375 46.1744 51.1266 37.8369 51.8366Z" fill="#3CADC9"/>
    <path d="M31 5H33V7H31V5Z" fill="#223B5A"/>
    <path d="M6.28613 51.7021L7.70013 50.2881L13.699 56.287L12.285 57.701L6.28613 51.7021Z" fill="#223B5A"/>
    <path d="M6.28613 56.2876L12.285 50.2887L13.699 51.7027L7.70013 57.7016L6.28613 56.2876Z" fill="#223B5A"/>
    <path d="M41 40L40 41.25V45C40 45.5523 40.4477 46 41 46C41.5523 46 42 45.5523 42 45V40H41Z" fill="#3CADC9"/>
    <path d="M45 43C44.4477 43 44 42.5523 44 42V38C44 37.4477 44.4477 37 45 37C45.5523 37 46 37.4477 46 38V42C46 42.5523 45.5523 43 45 43Z" fill="#3CADC9"/>
    <path d="M49 43C48.4477 43 48 42.5523 48 42V38C48 37.4477 48.4477 37 49 37C49.5523 37 50 37.4477 50 38V42C50 42.5523 49.5523 43 49 43Z" fill="#3CADC9"/>
    <path d="M53 43C52.4477 43 52 42.5523 52 42V38C52 37.4477 52.4477 37 53 37C53.5523 37 54 37.4477 54 38V42C54 42.5523 53.5523 43 53 43Z" fill="#3CADC9"/>
</svg>
