<svg width="49" height="74" viewBox="0 0 49 74" fill="none" xmlns="http://www.w3.org/2000/svg">
<rect x="0.821777" y="0.541016" width="48.0667" height="73.075" rx="1.50208" fill="white"/>
<rect x="6.83008" y="6.54883" width="36.05" height="36.05" rx="6.00833" fill="#F8F8F8"/>
<g clip-path="url(#clip0)">
<path d="M24.8551 32.0843C29.003 32.0843 32.3656 28.7218 32.3656 24.5739C32.3656 20.426 29.003 17.0635 24.8551 17.0635C20.7073 17.0635 17.3447 20.426 17.3447 24.5739C17.3447 28.7218 20.7073 32.0843 24.8551 32.0843Z" stroke="#2B1C1C" stroke-width="1.50208" stroke-linecap="round" stroke-linejoin="round"/>
<path d="M17.3447 24.5742H32.3656" stroke="#2B1C1C" stroke-width="1.50208" stroke-linecap="round" stroke-linejoin="round"/>
<path d="M24.8552 17.0635C26.7338 19.1201 27.8014 21.7891 27.8594 24.5739C27.8014 27.3587 26.7338 30.0277 24.8552 32.0843C22.9767 30.0277 21.9091 27.3587 21.8511 24.5739C21.9091 21.7891 22.9767 19.1201 24.8552 17.0635V17.0635Z" stroke="#2B1C1C" stroke-width="1.50208" stroke-linecap="round" stroke-linejoin="round"/>
</g>
<path d="M15.6837 61.6074V53.744H16.6301V60.7738H19.976V61.6074H15.6837ZM21.8007 54.4312C21.6054 54.4312 21.4628 54.3862 21.3726 54.296C21.29 54.1984 21.2487 54.0745 21.2487 53.9243V53.7778C21.2487 53.6276 21.29 53.5074 21.3726 53.4173C21.4628 53.3197 21.6054 53.2709 21.8007 53.2709C21.996 53.2709 22.1349 53.3197 22.2175 53.4173C22.3077 53.5074 22.3527 53.6276 22.3527 53.7778V53.9243C22.3527 54.0745 22.3077 54.1984 22.2175 54.296C22.1349 54.3862 21.996 54.4312 21.8007 54.4312ZM21.3501 55.7944H22.2513V61.6074H21.3501V55.7944ZM25.5634 61.6074L23.5244 55.7944H24.4256L25.4395 58.6784L26.0704 60.6611H26.1267L26.7576 58.6784L27.794 55.7944H28.6615L26.6111 61.6074H25.5634ZM32.0341 61.7426C31.6361 61.7426 31.2756 61.6713 30.9526 61.5286C30.6372 61.3859 30.3631 61.1831 30.1302 60.9202C29.9049 60.6498 29.7284 60.3307 29.6008 59.9626C29.4806 59.5871 29.4205 59.1665 29.4205 58.7009C29.4205 58.2428 29.4806 57.8259 29.6008 57.4504C29.7284 57.0749 29.9049 56.7557 30.1302 56.4928C30.3631 56.2225 30.6372 56.0159 30.9526 55.8732C31.2756 55.7305 31.6361 55.6592 32.0341 55.6592C32.4247 55.6592 32.7739 55.7305 33.0818 55.8732C33.3898 56.0159 33.6526 56.2149 33.8704 56.4703C34.0882 56.7181 34.2535 57.0148 34.3661 57.3603C34.4863 57.7058 34.5464 58.085 34.5464 58.4981V58.9262H30.3668V59.1966C30.3668 59.4444 30.4044 59.6772 30.4795 59.895C30.5621 60.1053 30.6747 60.2893 30.8174 60.4471C30.9677 60.6048 31.1479 60.7287 31.3582 60.8188C31.576 60.909 31.8201 60.954 32.0905 60.954C32.4585 60.954 32.7777 60.8676 33.048 60.6949C33.3259 60.5222 33.54 60.2743 33.6902 59.9514L34.3323 60.4133C34.1446 60.8113 33.8517 61.1343 33.4536 61.3821C33.0555 61.6224 32.5824 61.7426 32.0341 61.7426ZM32.0341 56.414C31.7863 56.414 31.561 56.459 31.3582 56.5492C31.1554 56.6318 30.9789 56.7519 30.8287 56.9097C30.686 57.0674 30.5734 57.2551 30.4907 57.4729C30.4081 57.6832 30.3668 57.9161 30.3668 58.1714V58.2503H33.5775V58.1263C33.5775 57.6081 33.4348 57.1951 33.1494 56.8871C32.8715 56.5717 32.4998 56.414 32.0341 56.414Z" fill="#645262"/>
<defs>
<clipPath id="clip0">
<rect width="18.025" height="18.025" fill="white" transform="translate(15.8428 15.5615)"/>
</clipPath>
</defs>
</svg>
