<svg width="48" height="74" viewBox="0 0 48 74" fill="none" xmlns="http://www.w3.org/2000/svg">
<rect x="0.336914" y="0.541016" width="47.5146" height="73.075" rx="1.50208" fill="white"/>
<rect x="6.06934" y="6.5498" width="36.05" height="36.05" rx="6.00833" fill="#F8F8F8"/>
<path d="M18.0859 30.2077C18.0859 29.7097 18.2838 29.2321 18.6359 28.88C18.988 28.5279 19.4656 28.3301 19.9635 28.3301H30.1026" stroke="black" stroke-width="1.50208" stroke-linecap="round" stroke-linejoin="round"/>
<path d="M19.9635 17.0645H30.1026V32.0853H19.9635C19.4656 32.0853 18.988 31.8875 18.6359 31.5353C18.2838 31.1832 18.0859 30.7057 18.0859 30.2077V18.9421C18.0859 18.4441 18.2838 17.9665 18.6359 17.6144C18.988 17.2623 19.4656 17.0645 19.9635 17.0645V17.0645Z" stroke="black" stroke-width="1.50208" stroke-linecap="round" stroke-linejoin="round"/>
<path d="M6.64194 61.6074V53.744H9.77379C10.4798 53.744 11.0205 53.9468 11.396 54.3524C11.7791 54.7504 11.9706 55.2987 11.9706 55.9971C11.9706 56.6956 11.7791 57.2476 11.396 57.6532C11.0205 58.0512 10.4798 58.2503 9.77379 58.2503H7.58825V61.6074H6.64194ZM7.58825 57.4166H9.77379C10.1493 57.4166 10.4385 57.319 10.6412 57.1237C10.8515 56.9284 10.9567 56.6505 10.9567 56.29V55.7042C10.9567 55.3437 10.8515 55.0658 10.6412 54.8706C10.4385 54.6753 10.1493 54.5777 9.77379 54.5777H7.58825V57.4166ZM13.3864 61.6074V55.7944H14.2877V56.8646H14.344C14.4492 56.5867 14.6369 56.3389 14.9073 56.1211C15.1777 55.9033 15.5494 55.7944 16.0226 55.7944H16.3718V56.6956H15.8423C15.3542 56.6956 14.9711 56.7895 14.6933 56.9772C14.4229 57.1575 14.2877 57.3866 14.2877 57.6645V61.6074H13.3864ZM19.7775 61.7426C19.3869 61.7426 19.0302 61.6713 18.7073 61.5286C18.3843 61.3859 18.1064 61.1831 17.8736 60.9202C17.6483 60.6498 17.4718 60.3307 17.3441 59.9626C17.2164 59.5871 17.1526 59.1665 17.1526 58.7009C17.1526 58.2428 17.2164 57.8259 17.3441 57.4504C17.4718 57.0749 17.6483 56.7557 17.8736 56.4928C18.1064 56.2225 18.3843 56.0159 18.7073 55.8732C19.0302 55.7305 19.3869 55.6592 19.7775 55.6592C20.168 55.6592 20.521 55.7305 20.8365 55.8732C21.1594 56.0159 21.4373 56.2225 21.6701 56.4928C21.9029 56.7557 22.0832 57.0749 22.2109 57.4504C22.3385 57.8259 22.4024 58.2428 22.4024 58.7009C22.4024 59.1665 22.3385 59.5871 22.2109 59.9626C22.0832 60.3307 21.9029 60.6498 21.6701 60.9202C21.4373 61.1831 21.1594 61.3859 20.8365 61.5286C20.521 61.6713 20.168 61.7426 19.7775 61.7426ZM19.7775 60.9427C20.2657 60.9427 20.6637 60.7925 20.9716 60.4921C21.2796 60.1917 21.4335 59.7336 21.4335 59.1177V58.2841C21.4335 57.6682 21.2796 57.2101 20.9716 56.9097C20.6637 56.6092 20.2657 56.459 19.7775 56.459C19.2893 56.459 18.8913 56.6092 18.5833 56.9097C18.2754 57.2101 18.1214 57.6682 18.1214 58.2841V59.1177C18.1214 59.7336 18.2754 60.1917 18.5833 60.4921C18.8913 60.7925 19.2893 60.9427 19.7775 60.9427ZM23.9973 55.7944H24.8985V62.5087C24.8985 62.9142 24.7971 63.2409 24.5943 63.4888C24.3916 63.7366 24.0724 63.8605 23.6368 63.8605H23.0509V63.072H23.9973V55.7944ZM24.4479 54.4312C24.2526 54.4312 24.1099 54.3862 24.0198 54.296C23.9372 54.1984 23.8959 54.0745 23.8959 53.9243V53.7778C23.8959 53.6276 23.9372 53.5074 24.0198 53.4173C24.1099 53.3197 24.2526 53.2709 24.4479 53.2709C24.6432 53.2709 24.7821 53.3197 24.8647 53.4173C24.9548 53.5074 24.9999 53.6276 24.9999 53.7778V53.9243C24.9999 54.0745 24.9548 54.1984 24.8647 54.296C24.7821 54.3862 24.6432 54.4312 24.4479 54.4312ZM29.1118 61.7426C28.7138 61.7426 28.3533 61.6713 28.0303 61.5286C27.7149 61.3859 27.4408 61.1831 27.208 60.9202C26.9826 60.6498 26.8062 60.3307 26.6785 59.9626C26.5583 59.5871 26.4982 59.1665 26.4982 58.7009C26.4982 58.2428 26.5583 57.8259 26.6785 57.4504C26.8062 57.0749 26.9826 56.7557 27.208 56.4928C27.4408 56.2225 27.7149 56.0159 28.0303 55.8732C28.3533 55.7305 28.7138 55.6592 29.1118 55.6592C29.5024 55.6592 29.8516 55.7305 30.1596 55.8732C30.4675 56.0159 30.7303 56.2149 30.9481 56.4703C31.1659 56.7181 31.3312 57.0148 31.4438 57.3603C31.564 57.7058 31.6241 58.085 31.6241 58.4981V58.9262H27.4445V59.1966C27.4445 59.4444 27.4821 59.6772 27.5572 59.895C27.6398 60.1053 27.7525 60.2893 27.8952 60.4471C28.0454 60.6048 28.2256 60.7287 28.4359 60.8188C28.6537 60.909 28.8978 60.954 29.1682 60.954C29.5362 60.954 29.8554 60.8676 30.1258 60.6949C30.4036 60.5222 30.6177 60.2743 30.7679 59.9514L31.41 60.4133C31.2223 60.8113 30.9294 61.1343 30.5313 61.3821C30.1333 61.6224 29.6601 61.7426 29.1118 61.7426ZM29.1118 56.414C28.864 56.414 28.6387 56.459 28.4359 56.5492C28.2331 56.6318 28.0566 56.7519 27.9064 56.9097C27.7637 57.0674 27.6511 57.2551 27.5685 57.4729C27.4858 57.6832 27.4445 57.9161 27.4445 58.1714V58.2503H30.6552V58.1263C30.6552 57.6081 30.5125 57.1951 30.2271 56.8871C29.9493 56.5717 29.5775 56.414 29.1118 56.414ZM35.3849 61.7426C34.9793 61.7426 34.615 61.6713 34.2921 61.5286C33.9692 61.3859 33.695 61.1831 33.4697 60.9202C33.2519 60.6574 33.0829 60.3382 32.9628 59.9626C32.8501 59.5871 32.7938 59.1665 32.7938 58.7009C32.7938 58.2352 32.8501 57.8147 32.9628 57.4391C33.0829 57.0636 33.2519 56.7444 33.4697 56.4816C33.695 56.2187 33.9692 56.0159 34.2921 55.8732C34.615 55.7305 34.9793 55.6592 35.3849 55.6592C35.9632 55.6592 36.4251 55.7868 36.7705 56.0422C37.1235 56.29 37.3864 56.6167 37.5591 57.0223L36.8043 57.4053C36.6992 57.1049 36.5265 56.8721 36.2861 56.7069C36.0458 56.5416 35.7454 56.459 35.3849 56.459C35.1145 56.459 34.8779 56.5041 34.6751 56.5942C34.4724 56.6768 34.3034 56.797 34.1682 56.9547C34.033 57.1049 33.9316 57.2889 33.864 57.5067C33.7964 57.717 33.7626 57.9498 33.7626 58.2052V59.1966C33.7626 59.7073 33.8978 60.1279 34.1682 60.4583C34.4461 60.7813 34.8516 60.9427 35.3849 60.9427C36.1134 60.9427 36.6391 60.6048 36.9621 59.9288L37.6155 60.3682C37.4277 60.7888 37.1461 61.123 36.7705 61.3708C36.4025 61.6187 35.9406 61.7426 35.3849 61.7426ZM40.2846 61.6074C39.9692 61.6074 39.7289 61.5211 39.5636 61.3483C39.4059 61.1681 39.327 60.9352 39.327 60.6498V56.583H38.3695V55.7944H38.9102C39.1055 55.7944 39.2369 55.7568 39.3045 55.6817C39.3796 55.5991 39.4172 55.4601 39.4172 55.2649V54.1834H40.2283V55.7944H41.5013V56.583H40.2283V60.8188H41.4112V61.6074H40.2846Z" fill="#645262"/>
</svg>
