<svg width="49" height="74" viewBox="0 0 49 74" fill="none" xmlns="http://www.w3.org/2000/svg">
<rect x="0.0717773" y="0.399414" width="48.0667" height="73.075" rx="1.50208" fill="white"/>
<rect x="6.08008" y="6.4082" width="36.05" height="36.05" rx="6.00833" fill="#F8F8F8"/>
<g clip-path="url(#clip0)">
<path d="M24.1051 31.9437C28.253 31.9437 31.6156 28.5812 31.6156 24.4333C31.6156 20.2854 28.253 16.9229 24.1051 16.9229C19.9573 16.9229 16.5947 20.2854 16.5947 24.4333C16.5947 28.5812 19.9573 31.9437 24.1051 31.9437Z" stroke="black" stroke-width="1.50208" stroke-linecap="round" stroke-linejoin="round"/>
<path d="M21.9194 22.1802C22.096 21.6783 22.4445 21.255 22.9033 20.9854C23.362 20.7158 23.9014 20.6173 24.4258 20.7072C24.9502 20.7972 25.4259 21.0699 25.7686 21.4769C26.1113 21.884 26.2988 22.3992 26.298 22.9313C26.298 24.4334 24.0449 25.1844 24.0449 25.1844" stroke="black" stroke-width="1.50208" stroke-linecap="round" stroke-linejoin="round"/>
<path d="M24.105 28.1885H24.1125" stroke="black" stroke-width="1.50208" stroke-linecap="round" stroke-linejoin="round"/>
</g>
<path d="M18.3279 63.3134H17.1676C16.8521 63.3134 16.6155 63.2233 16.4578 63.043C16.3001 62.8703 16.2212 62.6525 16.2212 62.3896V61.5897C15.7706 61.5447 15.3613 61.4245 14.9933 61.2292C14.6253 61.034 14.3136 60.7674 14.0582 60.4294C13.8029 60.0839 13.6039 59.6708 13.4612 59.1902C13.326 58.702 13.2584 58.15 13.2584 57.5341C13.2584 56.8732 13.3372 56.2911 13.495 55.7879C13.6527 55.2847 13.8742 54.8604 14.1596 54.5149C14.4525 54.1694 14.8018 53.9103 15.2073 53.7376C15.6204 53.5574 16.0823 53.4672 16.593 53.4672C17.0962 53.4672 17.5543 53.5574 17.9674 53.7376C18.3805 53.9103 18.7297 54.1694 19.0151 54.5149C19.308 54.8604 19.5333 55.2847 19.6911 55.7879C19.8488 56.2911 19.9276 56.8732 19.9276 57.5341C19.9276 58.7433 19.676 59.6896 19.1728 60.3731C18.6696 61.049 17.9862 61.447 17.1225 61.5672V62.5248H18.3279V63.3134ZM16.593 60.7561C16.931 60.7561 17.2427 60.696 17.5281 60.5758C17.8135 60.4557 18.0575 60.2829 18.2603 60.0576C18.4706 59.8323 18.6321 59.5619 18.7447 59.2465C18.8574 58.9311 18.9137 58.5781 18.9137 58.1875V56.8807C18.9137 56.4902 18.8574 56.1372 18.7447 55.8217C18.6321 55.5063 18.4706 55.2359 18.2603 55.0106C18.0575 54.7853 17.8135 54.6126 17.5281 54.4924C17.2427 54.3722 16.931 54.3121 16.593 54.3121C16.255 54.3121 15.9434 54.3722 15.658 54.4924C15.3726 54.6126 15.1247 54.7853 14.9144 55.0106C14.7117 55.2359 14.5539 55.5063 14.4413 55.8217C14.3286 56.1372 14.2723 56.4902 14.2723 56.8807V58.1875C14.2723 58.5781 14.3286 58.9311 14.4413 59.2465C14.5539 59.5619 14.7117 59.8323 14.9144 60.0576C15.1247 60.2829 15.3726 60.4557 15.658 60.5758C15.9434 60.696 16.255 60.7561 16.593 60.7561ZM25.2338 60.5195H25.1888C25.1287 60.6547 25.0536 60.7899 24.9635 60.9251C24.8808 61.0527 24.7757 61.1692 24.648 61.2743C24.5203 61.3719 24.3664 61.4508 24.1861 61.5109C24.0059 61.571 23.7956 61.601 23.5553 61.601C22.9544 61.601 22.4775 61.4095 22.1245 61.0265C21.7715 60.6359 21.595 60.0877 21.595 59.3817V55.6528H22.4963V59.224C22.4963 60.2679 22.9394 60.7899 23.8256 60.7899C24.0059 60.7899 24.1786 60.7674 24.3439 60.7223C24.5166 60.6772 24.6668 60.6096 24.7945 60.5195C24.9297 60.4294 25.0348 60.3167 25.1099 60.1815C25.1925 60.0388 25.2338 59.8699 25.2338 59.6746V55.6528H26.1351V61.4658H25.2338V60.5195ZM28.6176 54.2896C28.4223 54.2896 28.2796 54.2446 28.1895 54.1544C28.1069 54.0568 28.0656 53.9329 28.0656 53.7827V53.6362C28.0656 53.486 28.1069 53.3658 28.1895 53.2757C28.2796 53.1781 28.4223 53.1293 28.6176 53.1293C28.8128 53.1293 28.9518 53.1781 29.0344 53.2757C29.1245 53.3658 29.1696 53.486 29.1696 53.6362V53.7827C29.1696 53.9329 29.1245 54.0568 29.0344 54.1544C28.9518 54.2446 28.8128 54.2896 28.6176 54.2896ZM28.1669 55.6528H29.0682V61.4658H28.1669V55.6528ZM30.5102 61.4658V60.711L33.811 56.4414H30.6116V55.6528H34.9038V56.3287L31.5354 60.6772H34.9939V61.4658H30.5102Z" fill="#645262"/>
<defs>
<clipPath id="clip0">
<rect width="18.025" height="18.025" fill="white" transform="translate(15.0928 15.4209)"/>
</clipPath>
</defs>
</svg>
