<svg width="64" height="64" viewBox="0 0 64 64" fill="none" xmlns="http://www.w3.org/2000/svg">
    <path fill-rule="evenodd" clip-rule="evenodd" d="M14.2017 21.2583H15.7219C17.7522 21.2583 19.414 22.9201 19.414 24.9539V34.1311H5.13086V24.9539C5.13086 22.9202 6.79261 21.2583 8.82298 21.2583H14.2017Z" fill="#A5CDFF"/>
    <path fill-rule="evenodd" clip-rule="evenodd" d="M14.2018 21.2583H15.7219C17.7523 21.2583 19.414 22.9201 19.414 24.9539V34.1311H16.2889V24.9539C16.2889 22.9202 14.6271 21.2583 12.5967 21.2583H14.2018Z" fill="#8ABFFF"/>
    <path fill-rule="evenodd" clip-rule="evenodd" d="M53.6604 21.2583H55.1771C57.2109 21.2583 58.8727 22.9201 58.8727 24.9539V34.1311H44.5859V24.9539C44.5859 22.9202 46.2477 21.2583 48.2816 21.2583H53.6604Z" fill="#CCF49F"/>
    <path fill-rule="evenodd" clip-rule="evenodd" d="M53.6604 21.2583H55.177C57.2109 21.2583 58.8726 22.9201 58.8726 24.9539V34.1311H55.7475V24.9539C55.7475 22.9202 54.0858 21.2583 52.0518 21.2583H53.6604Z" fill="#B3E59F"/>
    <path fill-rule="evenodd" clip-rule="evenodd" d="M33.8883 15.7593H35.4474C37.4813 15.7593 39.1431 17.421 39.1431 19.4549V28.632H24.8564V19.4549C24.8564 17.421 26.5218 15.7593 28.5521 15.7593H33.8883Z" fill="#EBD2FF"/>
    <path fill-rule="evenodd" clip-rule="evenodd" d="M33.9309 15.7593H35.4475C37.4814 15.7593 39.1431 17.421 39.1431 19.4549V28.632H36.018V19.4549C36.018 17.421 34.3563 15.7593 32.3223 15.7593H33.9309Z" fill="#D7BEF0"/>
    <path fill-rule="evenodd" clip-rule="evenodd" d="M12.2743 35.8852C9.60962 35.8852 7.45175 38.043 7.45175 40.704C7.45175 43.3685 9.60962 45.5264 12.2743 45.5264C14.9354 45.5264 17.0933 43.3685 17.0933 40.704C17.0933 38.043 14.9353 35.8852 12.2743 35.8852ZM0 39.152C0.00725 38.8438 0.166625 38.6843 0.474875 38.6773H1.86025C2.1295 38.6808 2.381 38.4257 2.44125 38.2167C2.69288 37.3132 3.05425 36.3033 3.561 35.5132C3.72763 35.2474 3.65313 34.9463 3.476 34.7762L2.498 33.7947C2.328 33.5467 2.32437 33.3199 2.498 33.125L4.69125 30.9318C4.9145 30.7369 5.13775 30.7298 5.36462 30.9318L6.3425 31.9098C6.53025 32.1047 6.84213 32.1294 7.0795 31.9948C8.05037 31.4385 8.73075 31.1975 9.783 30.8715C10.0276 30.7972 10.2544 30.588 10.2472 30.2939V28.9084C10.2507 28.5895 10.4102 28.43 10.7185 28.4337H13.826C14.1343 28.4302 14.2937 28.5895 14.2974 28.9084V30.2939C14.2902 30.588 14.517 30.797 14.7615 30.8715C15.8139 31.1975 16.4942 31.4385 17.4651 31.9948C17.7025 32.1294 18.0144 32.1047 18.2021 31.9098L19.1801 30.9318C19.4069 30.7298 19.6302 30.7369 19.8534 30.9318L22.0467 33.1249C22.2204 33.3198 22.2167 33.5465 22.0467 33.7945L21.0688 34.776C20.8916 34.9462 20.8171 35.2473 20.9837 35.513C21.4904 36.3032 21.8519 37.313 22.1034 38.2165C22.1636 38.4255 22.4152 38.6807 22.6845 38.6772H24.0699C24.3781 38.6843 24.5376 38.8437 24.5446 39.1519V42.2559C24.5375 42.5678 24.3781 42.7237 24.0699 42.7307H22.6845C22.4152 42.7307 22.1636 42.9858 22.1034 43.1948C21.8519 44.0948 21.4904 45.1047 20.9837 45.8984C20.8172 46.1607 20.8916 46.4654 21.0688 46.6354L22.0467 47.6134C22.2167 47.865 22.2204 48.0882 22.0467 48.2867L19.8534 50.4799C19.6301 50.6748 19.4069 50.6783 19.1801 50.4799L18.2021 49.4984C18.0144 49.3072 17.7025 49.2788 17.4651 49.4169C16.4942 49.9733 15.814 50.2107 14.7615 50.5365C14.517 50.6145 14.2902 50.8235 14.2974 51.1177V52.503C14.2937 52.8219 14.1344 52.9778 13.826 52.9778H10.7185C10.4102 52.9778 10.2507 52.8219 10.2472 52.503V51.1177C10.2544 50.8235 10.0276 50.6145 9.783 50.5365C8.73063 50.2105 8.05037 49.9732 7.0795 49.4169C6.84213 49.2788 6.53025 49.3072 6.3425 49.4984L5.36462 50.4799C5.13788 50.6783 4.9145 50.6748 4.69125 50.4799L2.498 48.2867C2.32437 48.0883 2.328 47.865 2.498 47.6134L3.476 46.6354C3.65325 46.4654 3.72763 46.1607 3.561 45.8984C3.05438 45.1047 2.69288 44.0949 2.44125 43.1948C2.381 42.9858 2.1295 42.7307 1.86025 42.7307H0.474875C0.166625 42.7235 0.007125 42.5677 0 42.2559L0 39.152Z" fill="#365E7D"/>
    <path fill-rule="evenodd" clip-rule="evenodd" d="M16.6073 33.3941C15.9624 34.4003 15.4876 35.6582 15.1368 36.8276C16.3238 37.7063 17.0926 39.1166 17.0926 40.7039C17.0926 42.2949 16.3238 43.7016 15.1368 44.5803C15.4876 45.7496 15.9624 47.0074 16.6073 48.0138C16.8446 48.3894 16.7384 48.8146 16.4904 49.0521L15.1191 50.4268C15.9801 50.1504 16.6073 49.9059 17.4648 49.4169C17.7021 49.2788 18.014 49.3072 18.2018 49.4984L19.1798 50.4799C19.4065 50.6783 19.6299 50.6748 19.853 50.4799L22.0464 48.2867C22.22 48.0883 22.2164 47.8651 22.0464 47.6134L21.0684 46.6354C20.8913 46.4654 20.8168 46.1607 20.9834 45.8984C21.49 45.1047 21.8515 44.0949 22.103 43.1948C22.142 43.0567 22.266 42.9008 22.4219 42.8086C22.2058 42.1459 22.0889 41.4373 22.0889 40.7039C22.0889 39.9704 22.2059 39.2653 22.4219 38.6027C22.266 38.5106 22.142 38.3511 22.103 38.2164C21.8515 37.3129 21.49 36.3031 20.9834 35.5129C20.8169 35.2472 20.8913 34.9461 21.0684 34.7759L22.0464 33.7944C22.2164 33.5464 22.22 33.3197 22.0464 33.1248L19.853 30.9316C19.6298 30.7367 19.4065 30.7296 19.1798 30.9316L18.2018 31.9096C18.014 32.1044 17.7021 32.1292 17.4648 31.9946C16.6073 31.5021 15.9801 31.2576 15.1191 30.9847L16.4904 32.3559C16.7384 32.5933 16.8446 33.0221 16.6073 33.3941Z" fill="#294B64"/>
    <path fill-rule="evenodd" clip-rule="evenodd" d="M51.7295 35.8852C49.0684 35.8852 46.9105 38.043 46.9105 40.704C46.9105 43.3685 49.0684 45.5264 51.7295 45.5264C54.3906 45.5264 56.5485 43.3685 56.5485 40.704C56.5485 38.043 54.3906 35.8852 51.7295 35.8852ZM39.459 39.152C39.4625 38.8438 39.622 38.6843 39.9302 38.6773H41.3156C41.5849 38.6808 41.8365 38.4257 41.8966 38.2167C42.1482 37.3132 42.5096 36.3033 43.0164 35.5132C43.1865 35.2474 43.1085 34.9463 42.9349 34.7762L41.9534 33.7947C41.7834 33.5467 41.7797 33.3199 41.9534 33.125L44.1502 30.9318C44.3735 30.7369 44.5967 30.7298 44.82 30.9318L45.8015 31.9098C45.9857 32.1047 46.2975 32.1294 46.5385 31.9948C47.5057 31.4385 48.1861 31.1975 49.2385 30.8715C49.4831 30.7972 49.7134 30.588 49.7027 30.2939V28.9084C49.7099 28.5895 49.8692 28.43 50.1776 28.4337H53.2816C53.5899 28.4302 53.7494 28.5895 53.7564 28.9084V30.2939C53.7457 30.588 53.976 30.797 54.2171 30.8715C55.273 31.1975 55.9497 31.4385 56.9206 31.9948C57.1615 32.1294 57.4697 32.1047 57.6576 31.9098L58.6391 30.9318C58.8624 30.7298 59.0856 30.7369 59.3089 30.9318L61.5056 33.1249C61.6792 33.3198 61.6756 33.5465 61.5056 33.7945L60.5241 34.776C60.3505 34.9462 60.2725 35.2473 60.4426 35.513C60.9492 36.3032 61.3107 37.313 61.5622 38.2165C61.6189 38.4255 61.8705 38.6807 62.1432 38.6772H63.5251C63.837 38.6843 63.9929 38.8437 63.9999 39.1519V42.2559C63.9927 42.5678 63.8369 42.7237 63.5251 42.7307H62.1432C61.8704 42.7307 61.6189 42.9858 61.5622 43.1948C61.3106 44.0948 60.9492 45.1047 60.4426 45.8984C60.2725 46.1607 60.3505 46.4654 60.5241 46.6354L61.5056 47.6134C61.6756 47.865 61.6792 48.0882 61.5056 48.2867L59.3087 50.4799C59.0855 50.6748 58.8622 50.6783 58.639 50.4799L57.6575 49.4984C57.4696 49.3072 57.1614 49.2788 56.9205 49.4169C55.9496 49.9733 55.2729 50.2107 54.217 50.5365C53.976 50.6145 53.7456 50.8235 53.7562 51.1177V52.503C53.7491 52.8219 53.5897 52.9778 53.2815 52.9778H50.1776C49.8694 52.9778 49.7099 52.8219 49.7027 52.503V51.1177C49.7134 50.8235 49.4831 50.6145 49.2385 50.5365C48.1862 50.2105 47.5059 49.9732 46.5385 49.4169C46.2975 49.2788 45.9857 49.3072 45.8015 49.4984L44.82 50.4799C44.5967 50.6783 44.3735 50.6748 44.1502 50.4799L41.9534 48.2867C41.7797 48.0883 41.7834 47.865 41.9534 47.6134L42.9349 46.6354C43.1085 46.4654 43.1865 46.1607 43.0164 45.8984C42.5097 45.1047 42.1482 44.0949 41.8966 43.1948C41.8365 42.9858 41.5849 42.7307 41.3156 42.7307H39.9302C39.622 42.7235 39.4625 42.5677 39.459 42.2559V39.152Z" fill="#365E7D"/>
    <path fill-rule="evenodd" clip-rule="evenodd" d="M32 33.9186C28.2512 33.9186 25.2145 36.9552 25.2145 40.7041C25.2145 44.4528 28.2512 47.4929 32 47.4929C35.7489 47.4929 38.789 44.4528 38.789 40.7041C38.7892 36.9552 35.749 33.9186 32 33.9186ZM14.7227 38.5213C14.7298 38.0819 14.953 37.8623 15.3888 37.8516H17.3412C17.7203 37.8552 18.0747 37.4937 18.1562 37.1997C18.514 35.9312 19.0208 34.5103 19.733 33.3942C19.9704 33.0221 19.8642 32.5934 19.616 32.3559L18.2377 30.9777C17.9967 30.6233 17.9932 30.3079 18.2377 30.0316L21.3275 26.9418C21.6428 26.6689 21.9582 26.6583 22.2735 26.9418L23.6519 28.3237C23.9142 28.5931 24.3534 28.6319 24.6902 28.4371C26.0578 27.6539 27.011 27.3209 28.4957 26.8603C28.8393 26.7541 29.1618 26.4599 29.1477 26.0453V24.0929C29.1548 23.6429 29.3815 23.4232 29.8138 23.4268H34.1863C34.6222 23.4232 34.8454 23.6429 34.8525 24.0929V26.0453C34.8384 26.4598 35.1608 26.7539 35.5045 26.8603C36.9892 27.3209 37.9459 27.6541 39.31 28.4371C39.6467 28.6319 40.086 28.5929 40.3483 28.3237L41.7302 26.9418C42.0455 26.6583 42.3574 26.6689 42.6727 26.9418L45.7625 30.0316C46.0105 30.3079 46.0035 30.6233 45.7625 30.9777L44.3842 32.3559C44.1397 32.5933 44.0298 33.0221 44.2672 33.3942C44.983 34.5103 45.4897 35.9312 45.844 37.1997C45.929 37.4938 46.2834 37.8552 46.6625 37.8516H48.6114C49.0473 37.8622 49.2705 38.0819 49.2812 38.5213V42.8902C49.2705 43.3259 49.0473 43.5493 48.6114 43.5599H46.6625C46.2834 43.5564 45.929 43.9178 45.844 44.2084C45.4897 45.4804 44.983 46.9013 44.2672 48.0139C44.0298 48.3896 44.1395 48.8147 44.3842 49.0522L45.7625 50.4341C46.0035 50.7848 46.0105 51.1002 45.7625 51.3766L42.6727 54.4699C42.3574 54.7428 42.0455 54.7498 41.7302 54.4699L40.3483 53.0881C40.086 52.8152 39.6467 52.7798 39.31 52.9711C37.9459 53.7542 36.9892 54.0908 35.5045 54.5478C35.1609 54.6576 34.8384 54.9517 34.8525 55.3663V57.3152C34.8454 57.7652 34.6223 57.9848 34.1863 57.9848H29.8138C29.3814 57.9848 29.1547 57.7651 29.1477 57.3152V55.3663C29.1618 54.9518 28.8394 54.6577 28.4957 54.5478C27.011 54.0907 26.0579 53.7541 24.6902 52.9711C24.3534 52.7797 23.9142 52.8152 23.6519 53.0881L22.2735 54.4699C21.9582 54.7498 21.6428 54.7428 21.3275 54.4699L18.2377 51.3766C17.9932 51.1002 17.9967 50.7848 18.2377 50.4341L19.616 49.0522C19.864 48.8148 19.9704 48.3896 19.733 48.0139C19.0208 46.9013 18.514 45.4804 18.1562 44.2084C18.0747 43.9178 17.7203 43.5564 17.3412 43.5599H15.3888C14.9529 43.5493 14.7297 43.326 14.7227 42.8902V38.5213Z" fill="#477B9E"/>
    <path fill-rule="evenodd" clip-rule="evenodd" d="M55.6485 17.9063C55.6485 20.0607 53.8839 21.8217 51.7295 21.8217C49.5753 21.8217 47.8105 20.0607 47.8105 17.9063V13.7075C47.8105 12.5028 48.7992 11.5142 50.0039 11.5142H53.455C54.6598 11.5142 55.6484 12.5028 55.6484 13.7075V17.9063H55.6485Z" fill="#D8A595"/>
    <path fill-rule="evenodd" clip-rule="evenodd" d="M16.1898 17.9063C16.1898 20.0607 14.4288 21.8217 12.2745 21.8217C10.1166 21.8217 8.35547 20.0607 8.35547 17.9063C8.35547 16.5067 8.35547 15.107 8.35547 13.7075C8.35547 12.5028 9.34047 11.5142 10.5488 11.5142H15.6052C16.0092 11.5142 16.1898 11.7445 16.1898 12.0988V17.9063Z" fill="#FFCBBE"/>
    <path fill-rule="evenodd" clip-rule="evenodd" d="M47.8105 13.7075V16.2835L50.4893 14.9725C50.8508 14.7953 51.2015 14.7777 51.5665 14.9017L55.6484 16.2835V13.7075C55.6484 12.5028 54.6598 11.5142 53.455 11.5142H50.0039C48.7992 11.5142 47.8105 12.5027 47.8105 13.7075Z" fill="#477B9E"/>
    <path fill-rule="evenodd" clip-rule="evenodd" d="M8.35547 13.7075V14.9725H16.1898V12.0988C16.1898 11.7444 16.0091 11.5142 15.6052 11.5142H10.5488C9.34059 11.5142 8.35547 12.5027 8.35547 13.7075Z" fill="#D09080"/>
    <path fill-rule="evenodd" clip-rule="evenodd" d="M35.9193 12.4073C35.9193 14.5616 34.1547 16.3226 32.0003 16.3226C29.846 16.3226 28.085 14.5616 28.085 12.4073V8.20851C28.085 7.00376 29.07 6.01514 30.2748 6.01514H33.726C34.9307 6.01514 35.9193 7.00376 35.9193 8.20851V12.4073Z" fill="#FFCBBE"/>
    <path fill-rule="evenodd" clip-rule="evenodd" d="M28.085 8.20851V9.73201C29.1868 10.1431 30.1117 9.79939 30.6397 9.49814C31.0543 9.26426 31.1216 9.21826 31.5291 9.57614C33.4106 11.2203 35.9193 10.306 35.9193 10.306V8.20851C35.9193 7.00376 34.9307 6.01514 33.726 6.01514H30.2748C29.0701 6.01514 28.085 7.00376 28.085 8.20851Z" fill="#FFE5A0"/>
    <path fill-rule="evenodd" clip-rule="evenodd" d="M42.4562 36.5903C42.8531 37.8907 43.0621 39.2727 43.0621 40.7042C43.0621 42.1357 42.8531 43.5176 42.4562 44.8216C40.7059 50.6113 35.3484 54.8384 28.9951 54.8916C29.0944 55.0227 29.1545 55.1821 29.1475 55.3663V57.3152C29.1546 57.7652 29.3814 57.9848 29.8136 57.9848H34.1861C34.622 57.9848 34.8452 57.7651 34.8524 57.3152V55.3663C34.8382 54.9518 35.1606 54.6577 35.5044 54.5478C36.989 54.0907 37.9457 53.7541 39.3099 52.9711C39.6465 52.7797 40.0859 52.8152 40.3481 53.0881L41.73 54.4699C42.0454 54.7498 42.3572 54.7428 42.6725 54.4699L45.7624 51.3766C46.0104 51.1002 46.0034 50.7848 45.7624 50.4341L45.3159 49.9841L44.3839 49.0522C44.1394 48.8148 44.0295 48.3896 44.2669 48.0139C44.9827 46.9013 45.4894 45.4804 45.8437 44.2084C45.9287 43.9178 46.2831 43.5564 46.6622 43.5599H47.8422H48.6111C49.047 43.5493 49.2702 43.3261 49.2809 42.8902V38.5213C49.2702 38.0819 49.047 37.8623 48.6111 37.8516H47.8422H46.6622C46.2831 37.8552 45.9287 37.4937 45.8437 37.1997C45.4894 35.9312 44.9827 34.5103 44.2669 33.3942C44.0295 33.0221 44.1392 32.5934 44.3839 32.3559L45.3159 31.4241L45.7624 30.9777C46.0034 30.6233 46.0104 30.3079 45.7624 30.0316L42.6725 26.9418C42.3572 26.6689 42.0454 26.6583 41.73 26.9418L40.3481 28.3237C40.0859 28.5931 39.6465 28.6319 39.3099 28.4371C37.9457 27.6539 36.989 27.3209 35.5044 26.8603C35.1607 26.7541 34.8382 26.4599 34.8524 26.0453V24.0929C34.8452 23.6429 34.6221 23.4232 34.1861 23.4268H29.8136C29.3812 23.4232 29.1545 23.6429 29.1475 24.0929V26.0453C29.1546 26.2261 29.0944 26.3889 28.9951 26.5166C35.3484 26.5698 40.7057 30.7969 42.4562 36.5903Z" fill="#365E7D"/>
    <path fill-rule="evenodd" clip-rule="evenodd" d="M49.5469 30.687C54.6635 31.1618 58.6674 35.4669 58.6674 40.704C58.6674 45.9445 54.6634 50.2497 49.5469 50.7245C49.6461 50.8273 49.7099 50.9584 49.7028 51.1178V52.5032C49.7099 52.822 49.8693 52.9779 50.1776 52.9779H53.2816C53.5899 52.9779 53.7494 52.822 53.7564 52.5032V51.1178C53.7457 50.8237 53.976 50.6147 54.2171 50.5367C55.273 50.2107 55.9498 49.9733 56.9206 49.417C57.1615 49.2789 57.4698 49.3073 57.6576 49.4985L58.6391 50.48C58.8624 50.6784 59.0856 50.6749 59.3089 50.48L61.5058 48.2868C61.6794 48.0884 61.6758 47.8652 61.5058 47.6135L60.5243 46.6355C60.3506 46.4655 60.2726 46.1608 60.4427 45.8985C60.9494 45.1048 61.3109 44.095 61.5624 43.1949C61.619 42.9859 61.8706 42.7308 62.1434 42.7308H63.5252C63.8371 42.7237 63.993 42.5678 64 42.256V39.152C63.9929 38.8438 63.837 38.6843 63.5252 38.6773H62.1434C61.8705 38.6808 61.619 38.4257 61.5624 38.2167C61.3107 37.3132 60.9494 36.3033 60.4427 35.5132C60.2726 35.2474 60.3506 34.9463 60.5243 34.7762L61.5058 33.7947C61.6758 33.5467 61.6794 33.3199 61.5058 33.125L59.3089 30.9318C59.0856 30.7369 58.8624 30.7298 58.6391 30.9318L57.6576 31.9098C57.4698 32.1047 57.1615 32.1294 56.9206 31.9948C55.9498 31.4385 55.273 31.1975 54.2171 30.8715C53.9761 30.7972 53.7457 30.588 53.7564 30.2939V28.9084C53.7492 28.5895 53.5899 28.43 53.2816 28.4337H50.1776C49.8694 28.4302 49.7099 28.5895 49.7028 28.9084V30.2939C49.7099 30.4497 49.6461 30.5843 49.5469 30.687Z" fill="#294B64"/>
</svg>
