<svg width="200" height="38" viewBox="0 0 285 48" fill="none" xmlns="http://www.w3.org/2000/svg">
<path d="M48.5021 23.4979C48.5021 23.2971 48.5021 23.0962 48.5021 22.9958C48.5021 22.8954 48.5021 22.8954 48.5021 22.795C48.5021 22.6946 48.5021 22.4937 48.5021 22.3933C48.5021 22.1925 48.5021 21.9916 48.5021 21.7908C48.5021 21.6904 48.5021 21.4895 48.5021 21.3891C48.5021 21.2887 48.5021 21.2887 48.5021 21.1883C48.5021 21.0879 48.5021 20.887 48.5021 20.7866V20.6862C48.5021 20.5858 48.5021 20.3849 48.4017 20.2845C48.4017 20.2845 48.4017 20.2845 48.4017 20.1841C48.4017 19.9833 48.3013 19.8828 48.3013 19.682C48.3013 19.682 48.3013 19.682 48.3013 19.5816C48.3013 19.4812 48.3013 19.2803 48.2008 19.1799C48.2008 19.1799 48.2008 19.1799 48.2008 19.0795V18.9791C48.2008 18.8787 48.1004 18.6778 48.1004 18.5774C48.1004 18.3766 48 18.2762 48 18.0753C48 17.9749 47.8996 17.8745 47.8996 17.6736C47.8996 17.5732 47.8996 17.5732 47.8996 17.4728C47.8996 17.3724 47.7992 17.1715 47.7992 17.0711V16.9707C47.7992 16.7699 47.6987 16.6695 47.6987 16.4686C47.5983 16.2678 47.5983 16.1674 47.4979 15.9665C47.3975 15.7657 47.3975 15.6653 47.2971 15.4644C47.1967 15.2636 47.1967 15.1632 47.0962 14.9623C46.9958 14.8619 46.9958 14.6611 46.8954 14.5607C46.8954 14.5607 46.8954 14.4603 46.795 14.4603C46.6946 14.3598 46.6946 14.159 46.5941 14.0586C46.4937 13.7573 46.2929 13.4561 46.0921 13.1548C45.9916 12.954 45.8912 12.8536 45.8912 12.6527C45.7908 12.5523 45.7908 12.3515 45.6904 12.251C45.59 12.0502 45.4895 11.9498 45.3891 11.749C45.2887 11.6485 45.1883 11.4477 45.1883 11.3473C45.1883 11.3473 45.1883 11.2469 45.0879 11.2469C44.9874 11.1464 44.887 10.9456 44.7866 10.8452C44.7866 10.8452 44.7866 10.7448 44.6862 10.7448C44.5858 10.6444 44.4854 10.5439 44.4854 10.4435C44.3849 10.3431 44.2845 10.2427 44.1841 10.0418C44.1841 9.94142 44.0837 9.94142 44.0837 9.841C43.9833 9.64017 43.7824 9.43933 43.5816 9.23849L43.4812 9.13808C43.1799 8.7364 42.8787 8.33473 42.5774 8.03347L42.477 7.93306C41.9749 7.33054 41.3724 6.72803 40.7699 6.22594C40.6695 6.12552 40.6695 6.12552 40.569 6.0251C40.2678 5.72385 39.9665 5.52301 39.6653 5.22176C39.5649 5.12134 39.5649 5.12134 39.4644 5.02092C39.2636 4.82008 38.9623 4.61925 38.7615 4.51883C38.6611 4.41841 38.6611 4.41841 38.5607 4.31799C38.3598 4.11716 38.0586 4.01674 37.8577 3.8159C37.7573 3.71548 37.6569 3.61506 37.4561 3.61506C37.3556 3.51464 37.1548 3.41423 37.0544 3.41423C36.954 3.41423 36.954 3.31381 36.8536 3.31381C36.251 3.01255 35.6485 2.61088 35.046 2.30962C34.9456 2.2092 34.8452 2.2092 34.7448 2.10879C34.6444 2.10879 34.6444 2.00837 34.5439 2.00837C34.4435 2.00837 34.3431 1.90795 34.2427 1.90795C34.1423 1.90795 34.1423 1.90795 34.0418 1.80753C33.841 1.70711 33.5397 1.60669 33.3389 1.50628C33.2385 1.50628 33.2385 1.40586 33.1381 1.40586C33.0377 1.40586 32.8368 1.30544 32.7364 1.30544C32.636 1.30544 32.4351 1.20502 32.3347 1.20502C32.2343 1.20502 32.2343 1.20502 32.1339 1.1046C31.9331 1.00418 31.7322 1.00418 31.5314 0.903766C31.431 0.903766 31.3305 0.803347 31.2301 0.803347C31.0293 0.803347 30.9289 0.702929 30.728 0.702929C30.6276 0.702929 30.4268 0.602511 30.3264 0.602511C29.9247 0.502092 29.4226 0.401674 29.0209 0.301255C28.9205 0.301255 28.8201 0.301255 28.7197 0.200837C28.7197 0.200837 28.7197 0.200837 28.6192 0.200837C28.5188 0.200837 28.4184 0.200837 28.2176 0.100418C28.1172 0.100418 28.0167 0.100418 27.9163 0.100418C27.7155 0.100418 27.6151 0.100418 27.4142 0C27.3138 0 27.2134 0 27.113 0C27.0126 0 26.8117 0 26.7113 0C26.6109 0 26.6109 0 26.5105 0C26.3096 0 26.1088 0 25.9079 0H25.8075C25.7071 0 25.7071 0 25.6067 0C25.5063 0 25.4059 0 25.205 0C25.1046 0 25.1046 0 25.0042 0C24.9038 0 24.7029 0 24.6025 0C24.5021 0 24.3013 0 24.2008 0C24.1004 0 24.1004 0 24 0C23.8996 0 23.7992 0 23.5983 0C23.4979 0 23.4979 0 23.3975 0H23.2971C23.0962 0 22.8954 0 22.6946 0C22.5941 0 22.5941 0 22.4937 0C22.3933 0 22.1925 0 22.0921 0C21.9916 0 21.8912 0 21.7908 0C21.59 0 21.4895 7.48175e-09 21.2887 0.100418C21.1883 0.100418 21.0879 0.100418 20.9874 0.100418C20.887 0.100418 20.6862 0.100418 20.5858 0.200837C20.4854 0.200837 20.3849 0.200837 20.2845 0.301255C19.8828 0.401674 19.3808 0.502092 18.9791 0.602511C18.8787 0.602511 18.6778 0.702929 18.5774 0.702929C18.3766 0.702929 18.2762 0.803347 18.0753 0.803347C17.9749 0.803347 17.8745 0.903766 17.7741 0.903766C17.5732 1.00418 17.3724 1.00418 17.1715 1.1046C17.0711 1.1046 17.0711 1.1046 16.9707 1.20502C16.8703 1.20502 16.6695 1.30544 16.569 1.30544C16.4686 1.30544 16.2678 1.40586 16.1674 1.40586C16.0669 1.40586 16.0669 1.50628 15.9665 1.50628C15.7657 1.60669 15.4644 1.70711 15.2636 1.80753C15.1632 1.80753 15.1632 1.80753 15.0628 1.90795C14.9623 1.90795 14.8619 2.00837 14.7615 2.00837C14.6611 2.00837 14.6611 2.10879 14.5607 2.10879C14.4603 2.2092 14.3598 2.2092 14.2594 2.30962C13.6569 2.61088 13.0544 2.91213 12.4519 3.31381C12.3515 3.31381 12.3515 3.41423 12.251 3.41423C12.1506 3.51464 11.9498 3.61506 11.8494 3.61506C11.1464 3.61506 11.046 3.71548 10.9456 3.8159C10.6444 4.01674 10.4435 4.11716 10.2427 4.31799C10.1423 4.31799 10.1423 4.41841 10.0418 4.51883C9.74059 4.61925 9.53975 4.82008 9.23849 5.02092C9.23849 5.02092 9.13808 5.12134 9.03766 5.12134C8.7364 5.42259 8.43515 5.62343 8.13389 5.92469C8.13389 5.92469 8.03347 6.0251 7.93305 6.12552C7.33054 6.62762 6.82845 7.23013 6.22594 7.83264L6.12552 7.93306C5.82427 8.33473 5.52301 8.7364 5.22176 9.03766L5.12134 9.13808C4.9205 9.43933 4.71967 9.64017 4.61925 9.841C4.61925 9.94142 4.51883 9.94142 4.51883 10.0418C4.41841 10.1423 4.31799 10.2427 4.21757 10.4435C4.11715 10.5439 4.01674 10.6444 4.01674 10.7448C4.01674 10.7448 4.01674 10.8452 3.91632 10.8452C3.8159 10.9456 3.71548 11.1464 3.61506 11.2469C3.61506 11.2469 3.61506 11.3473 3.51464 11.3473C3.41423 11.4477 3.31381 11.6485 3.31381 11.749C3.21339 11.9498 3.11297 12.0502 3.01255 12.251C2.91213 12.3515 2.91213 12.5523 2.81172 12.6527C2.7113 12.8536 2.61088 12.954 2.61088 13.1548C2.41004 13.4561 2.30962 13.7573 2.10879 14.0586C2.10879 14.2594 2.00837 14.3598 2.00837 14.4603C2.00837 14.4603 2.00837 14.5607 1.90795 14.5607C1.80753 14.6611 1.80753 14.8619 1.70711 14.9623C1.60669 15.1632 1.60669 15.2636 1.50628 15.4644C1.40586 15.6653 1.40586 15.7657 1.30544 15.9665C1.20502 16.1674 1.20502 16.2678 1.1046 16.4686C1.1046 16.569 1.00418 16.7699 1.00418 16.9707V17.0711C1.00418 17.1715 0.903766 17.3724 0.903766 17.4728C0.903766 17.5732 0.903766 17.5732 0.903766 17.6736C0.903766 17.7741 0.803347 17.8745 0.803347 18.0753C0.803347 18.2762 0.702929 18.3766 0.702929 18.5774C0.702929 18.6778 0.602511 18.8787 0.602511 18.9791V19.0795C0.602511 19.0795 0.602511 19.0795 0.602511 19.1799C0.602511 19.2803 0.502092 19.4812 0.502092 19.5816C0.502092 19.5816 0.502092 19.5816 0.502092 19.682C0.502092 19.8828 0.401674 19.9833 0.401674 20.1841C0.401674 20.1841 0.401674 20.1841 0.401674 20.2845C0.401674 20.3849 0.401674 20.5858 0.301255 20.6862V20.7866C0.301255 20.887 0.301255 21.0879 0.301255 21.1883C0.301255 21.2887 0.301255 21.2887 0.301255 21.3891C0.301255 21.4895 0.301255 21.6904 0.301255 21.7908C0.301255 21.9916 0.301255 22.1925 0.301255 22.3933C0.301255 22.4937 0.301255 22.6946 0.301255 22.795C0 22.8954 0 22.8954 0 22.9958C0 23.1967 0 23.2971 0 23.4979V23.5983C0 23.7992 0 24 0 24.1004C0 24.3013 0 24.5021 0 24.7029C0 24.8033 0 24.9038 0 25.0042C0 25.1046 0 25.3054 0 25.4059C0 25.5063 0 25.6067 0 25.7071C0 25.8075 0 25.9079 0 25.9079C0 26.0084 0 26.0084 0 26.1088C0 26.2092 0 26.2092 0 26.3096C0 26.41 0 26.5105 0 26.6109C0 26.7113 0 26.7113 0 26.8117C0 26.9121 0 27.0126 0 27.113C0 27.2134 0 27.3138 0 27.4142C0 27.6151 0 27.7155 0.100418 27.9163C0.100418 28.0167 0.100418 28.1172 0.200837 28.2176C0.200837 28.318 0.200837 28.4184 0.301255 28.5188V28.6192C0.301255 28.8201 0.401674 28.9205 0.401674 29.1213C0.502092 29.4226 0.502092 29.7239 0.602511 30.0251C0.702929 30.3264 0.803347 30.6276 0.803347 30.9289C1.1046 32.0335 1.50628 33.0377 2.00837 34.0418C2.00837 34.1423 2.10879 34.1423 2.10879 34.2427C2.2092 34.5439 2.30962 34.7448 2.51046 35.046C2.61088 35.2469 2.7113 35.4477 2.81172 35.5481C3.01255 35.9498 3.31381 36.4519 3.61506 36.8536C3.71548 36.954 3.71548 37.0544 3.8159 37.1548C4.9205 38.7615 6.12552 40.2678 7.53138 41.6736C7.6318 41.7741 7.6318 41.7741 7.73222 41.8745L7.83264 41.9749C7.93305 42.0753 8.03347 42.1757 8.23431 42.2761C10.3431 44.0837 13.0544 45.1883 16.0669 45.1883C17.4728 45.1883 18.8787 44.9874 20.0837 44.4854C22.4937 43.682 24.5021 42.0753 25.9079 40.0669C27.3138 38.0586 28.1172 35.6485 28.1172 33.0377V25.7071H24.1004C21.8912 25.7071 20.0837 27.5146 20.0837 29.7238V32.9372C20.0837 35.1464 18.3766 37.0544 16.1674 37.0544C15.1632 37.0544 14.2594 36.7531 13.5565 36.1506C13.4561 36.0502 13.3556 36.0502 13.3556 35.9498C13.3556 35.9498 13.3556 35.9498 13.2552 35.8494C10.0418 32.9372 8.03347 28.6192 8.03347 23.8996C8.03347 16.3682 13.1548 10.0418 20.1841 8.23431C21.4895 7.93305 22.795 7.73222 24.2008 7.73222C25.6067 7.73222 26.9121 7.93305 28.2176 8.23431C35.1464 10.0418 40.3682 16.3682 40.3682 23.8996C40.3682 30.5272 36.3515 36.251 30.728 38.7615C29.3222 39.364 28.2176 40.7699 28.2176 42.477V48C30.1255 47.6987 32.0335 47.0962 33.7406 46.3933H33.841C33.9414 46.2929 34.1423 46.2929 34.2427 46.1925C34.3431 46.0921 34.5439 46.0921 34.6444 45.9916C34.7448 45.8912 34.9456 45.8912 35.046 45.7908C35.1464 45.6904 35.2469 45.6904 35.4477 45.59C35.5481 45.59 35.6485 45.4895 35.749 45.3891C35.8494 45.3891 35.9498 45.2887 35.9498 45.2887C36.0502 45.1883 36.251 45.0879 36.3515 45.0879C36.6527 44.887 36.954 44.7866 37.1548 44.5858C37.2552 44.5858 37.2552 44.4854 37.3557 44.4854C37.7573 44.1841 38.159 43.9833 38.5607 43.682C38.6611 43.5816 38.7615 43.5816 38.7615 43.4812C38.9623 43.2803 39.2636 43.0795 39.4644 42.9791C39.5649 42.8787 39.7657 42.7782 39.8661 42.5774C39.9665 42.477 39.9665 42.477 40.0669 42.3766C40.1674 42.2762 40.3682 42.0753 40.4686 41.9749C40.569 41.8745 40.569 41.8745 40.6695 41.7741C40.7699 41.6736 40.7699 41.6736 40.8703 41.5732C40.9707 41.4728 41.1715 41.272 41.272 41.1716C41.4728 40.9707 41.6736 40.7699 41.8745 40.569C41.9749 40.4686 41.9749 40.4686 42.0753 40.3682C42.1757 40.2678 42.1757 40.2678 42.2761 40.1674C42.3766 40.0669 42.3766 40.0669 42.477 39.9665C42.5774 39.8661 42.5774 39.8661 42.6778 39.7657C42.8787 39.5649 43.0795 39.364 43.1799 39.0628C43.2803 38.8619 43.3808 38.7615 43.5816 38.5607C43.682 38.4603 43.682 38.3598 43.7824 38.3598C43.8828 38.159 43.9833 38.0586 44.0837 37.8577C44.1841 37.7573 44.1841 37.6569 44.2845 37.6569C44.3849 37.4561 44.4854 37.3556 44.5858 37.1548C44.6862 37.0544 44.6862 36.954 44.7866 36.954C44.887 36.7531 44.9874 36.6527 45.0879 36.4519C45.0879 36.3515 45.1883 36.251 45.1883 36.251C45.2887 36.0502 45.3891 35.9498 45.4895 35.749C45.4895 35.6485 45.59 35.6485 45.59 35.5481C45.6904 35.4477 45.6904 35.3473 45.7908 35.2469C45.8912 35.1464 45.8912 35.046 45.9916 34.8452C46.0921 34.7448 46.0921 34.5439 46.1925 34.4435C46.1925 34.3431 46.2929 34.2427 46.2929 34.1423C46.2929 34.0418 46.3933 33.9414 46.3933 33.841C46.3933 33.7406 46.4937 33.6402 46.4937 33.5397C46.5941 33.4393 46.5941 33.2385 46.6946 33.1381C46.6946 33.0377 46.795 32.9372 46.795 32.7364C46.8954 32.636 46.8954 32.4351 46.9958 32.3347C46.9958 32.2343 47.0962 32.0335 47.0962 31.9331C47.0962 31.8326 47.1967 31.6318 47.1967 31.5314C47.1967 31.431 47.2971 31.2301 47.2971 31.1297C47.2971 31.0293 47.3975 30.9289 47.3975 30.8285C47.3975 30.728 47.3975 30.728 47.3975 30.6276C47.3975 30.5272 47.3975 30.4268 47.4979 30.3264C47.4979 30.1255 47.5983 29.9247 47.5983 29.7238C47.5983 29.6234 47.5983 29.523 47.6987 29.4226C47.6987 29.2218 47.7992 29.1213 47.7992 28.9205C47.7992 28.8201 47.8996 28.6192 47.8996 28.5188C47.8996 28.4184 47.8996 28.318 48 28.1172C48 28.1172 48 28.1172 48 28.0167C48 27.9163 48 27.8159 48 27.7155C48 27.6151 48 27.5146 48 27.4142C48 27.3138 48 27.2134 48 27.113C48 27.0126 48 26.8117 48 26.7113C48 26.6109 48 26.41 48 26.3096C48 26.3096 48 26.3096 48 26.2092C48 26.1088 48 26.0084 48 25.8075C48 25.7071 48 25.7071 48 25.6067C48 25.5063 48 25.4059 48 25.3054C48 25.1046 48 25.0042 48 24.8033C48 24.6025 48 24.5021 48 24.3013C48.5021 23.8996 48.5021 23.6987 48.5021 23.4979Z" fill="#FF2E2E"/>
<path d="M28.318 22.2927H23.6987C21.0879 22.2927 19.0795 20.1839 19.0795 17.6734C19.0795 15.0626 21.1883 13.0542 23.6987 13.0542C26.3096 13.0542 28.318 15.163 28.318 17.6734V22.2927Z" fill="#FF2E2E"/>
<path d="M72.5021 24.4021L69.3891 24.0005C68.2845 23.7996 67.4812 23.4984 67.0795 23.0967C66.6778 22.695 66.477 22.0925 66.477 21.3896C66.477 20.6867 66.7782 20.1846 67.2803 19.6825C67.8828 19.2808 68.7866 19.08 70.0921 19.08C71.1967 19.08 72.4017 19.3812 73.5063 19.8833C74.6109 20.3854 75.6151 21.0883 76.4184 21.9921L80.8368 17.4733C80.1339 16.7703 79.431 16.1678 78.728 15.6657C78.0251 15.1636 77.2218 14.6615 76.4184 14.2599C75.6151 13.8582 74.6109 13.6574 73.5063 13.4565C72.4017 13.2557 71.0962 13.1553 69.6904 13.1553C68.0837 13.1553 66.5774 13.3561 65.272 13.8582C63.9665 14.2599 62.8619 14.8624 61.9582 15.6657C61.0544 16.4691 60.3515 17.3728 59.8494 18.4774C59.3473 19.5821 59.046 20.7871 59.046 22.0925C59.046 27.013 62.159 29.8247 68.2845 30.5277L71.2971 30.9293C73.1046 31.1302 74.1088 31.9335 74.1088 33.239C74.1088 34.0423 73.8075 34.6448 73.205 35.1469C72.6025 35.649 71.4979 35.8498 69.9916 35.8498C68.4853 35.8498 67.1799 35.5486 65.9749 34.9461C64.7699 34.3436 63.6653 33.4398 62.7615 32.3352L58.1423 36.9544C59.5481 38.5611 61.1548 39.7662 62.9623 40.5695C64.7699 41.4733 66.9791 41.8749 69.6904 41.8749C71.4979 41.8749 73.1046 41.6741 74.5105 41.172C75.9163 40.6699 77.2218 40.0674 78.2259 39.2641C79.2301 38.4607 80.0335 37.4565 80.636 36.3519C81.2385 35.2473 81.4393 34.0423 81.4393 32.7369C81.5397 27.9168 78.5272 25.2055 72.5021 24.4021Z" fill="#FF2E2E"/>
<path d="M109.155 29.4229V27.1133C109.155 25.3057 108.954 23.4982 108.452 21.7911C107.95 20.084 107.247 18.5777 106.243 17.2723C105.238 15.9668 103.933 14.9626 102.226 14.1593C100.619 13.3559 98.6109 13.0547 96.4017 13.0547C94.2929 13.0547 92.4853 13.3559 90.8787 14.0589C89.272 14.7618 87.9665 15.6656 86.8619 16.971C85.7573 18.2764 84.954 19.7827 84.3515 21.4898C83.7489 23.2974 83.5481 25.2053 83.5481 27.4145C83.5481 29.6237 83.8494 31.6321 84.4519 33.3392C85.0544 35.1467 85.8577 36.653 87.0628 37.858C88.1674 39.0631 89.5732 40.0672 91.1799 40.7702C92.7866 41.4731 94.6946 41.7744 96.8033 41.7744C99.3138 41.7744 101.523 41.3727 103.531 40.5693C105.54 39.766 107.146 38.6614 108.351 37.2555L104.435 32.4354C103.531 33.3392 102.628 34.1426 101.623 34.7451C100.619 35.3476 99.3138 35.7492 97.7071 35.7492C95.5983 35.7492 94.092 35.2472 93.0879 34.1426C92.0837 33.038 91.5816 31.6321 91.5816 29.8246V29.4229H109.155ZM91.4812 24.402C91.4812 22.6949 91.8828 21.289 92.7866 20.2848C93.6904 19.2806 94.8954 18.7785 96.5021 18.7785C98.1088 18.7785 99.2134 19.2806 100.017 20.2848C100.72 21.289 101.121 22.6949 101.121 24.3015V24.9041H91.4812V24.402Z" fill="#FF2E2E"/>
<path d="M161.372 16.6697V34.1426C161.372 38.6614 157.958 42.4773 153.64 43.0798C153.238 43.1802 152.736 43.1802 152.335 43.1802C151.933 43.1802 151.431 43.1802 151.029 43.0798C146.611 42.4773 143.297 38.6614 143.297 34.1426V24.6028C143.297 21.0882 141.992 19.381 139.481 19.381C138.377 19.381 137.272 19.6823 136.368 20.3852C135.464 21.0882 134.962 22.0923 134.962 23.3978V41.1718H127.23V24.6028C127.23 21.0882 125.925 19.381 123.414 19.381C122.812 19.381 122.31 19.4815 121.808 19.5819C121.305 19.7827 120.803 19.9836 120.301 20.3852C119.9 20.6865 119.498 21.1886 119.297 21.6907C118.996 22.1928 118.895 22.7953 118.895 23.3978V41.1718H111.163V18.0756C111.163 15.6656 113.172 13.6572 115.582 13.6572H118.996V18.2764H119.297C119.799 16.7702 120.603 15.5651 121.808 14.561C123.013 13.5568 124.619 13.0547 126.628 13.0547C128.536 13.0547 130.142 13.5568 131.448 14.4605C132.753 15.3643 133.757 16.7702 134.36 18.5777H134.561C134.761 17.7744 135.163 17.0714 135.665 16.3685C136.167 15.6656 136.77 15.0631 137.473 14.6614C138.176 14.1593 138.979 13.7576 139.983 13.4564C140.887 13.1551 141.891 13.0547 142.895 13.0547C145.506 13.0547 147.615 13.9585 149.021 15.8664C150.326 17.5735 151.029 19.9836 151.13 23.0965C151.13 23.3978 151.13 23.5986 151.13 23.8999V34.0421C151.13 34.7451 151.732 35.3476 152.536 35.3476C153.238 35.3476 153.741 34.6446 153.741 33.9417V20.8873C153.741 18.4773 155.749 16.4689 158.159 16.4689H161.372V16.6697Z" fill="#FF2E2E"/>
<path d="M181.958 31.5318C181.556 32.6364 181.054 33.6406 180.251 34.444C179.448 35.2473 178.343 35.649 176.837 35.649C175.23 35.649 174.126 35.1469 173.322 34.1427C172.519 33.1385 172.117 31.7327 172.117 30.0256V24.9042C172.117 23.1971 172.519 21.7913 173.322 20.7871C174.126 19.7829 175.331 19.2808 176.837 19.2808C178.243 19.2808 179.247 19.6825 180.05 20.3854C180.854 21.0883 181.356 21.9921 181.556 23.0967L187.883 20.3854C187.079 18.0758 185.774 16.3687 183.866 15.0632C181.958 13.7578 179.649 13.1553 176.837 13.1553C174.728 13.1553 172.921 13.4565 171.314 14.1595C169.707 14.8624 168.402 15.7662 167.297 17.0716C166.192 18.377 165.389 19.8833 164.787 21.5904C164.184 23.398 163.983 25.3059 163.983 27.5151C163.983 29.7243 164.285 31.7327 164.787 33.4398C165.389 35.2473 166.192 36.7536 167.297 37.9586C168.402 39.1636 169.707 40.1678 171.314 40.8708C172.921 41.5737 174.728 41.8749 176.837 41.8749C179.548 41.8749 181.858 41.2724 183.766 40.0674C185.674 38.8624 187.079 36.9544 187.983 34.2431L181.958 31.5318Z" fill="#FF2E2E"/>
<path d="M214.895 21.49C214.293 19.6825 213.49 18.1762 212.385 16.9712C211.28 15.7662 209.975 14.762 208.368 14.1595C206.761 13.4565 204.954 13.1553 202.946 13.1553C200.937 13.1553 199.13 13.4565 197.523 14.1595C195.916 14.8624 194.611 15.7662 193.506 16.9712C192.402 18.1762 191.598 19.6825 190.996 21.49C190.393 23.2975 190.092 25.3059 190.092 27.4147C190.092 29.5235 190.393 31.6323 190.996 33.3394C191.598 35.1469 192.402 36.6532 193.506 37.8582C194.611 39.0632 195.916 40.0674 197.523 40.7703C199.13 41.4733 200.937 41.7745 202.946 41.7745C204.954 41.7745 206.761 41.4733 208.368 40.7703C209.975 40.0674 211.28 39.1636 212.385 37.8582C213.49 36.5528 214.293 35.0465 214.895 33.3394C215.498 31.5318 215.799 29.5235 215.799 27.4147C215.799 25.3059 215.498 23.1971 214.895 21.49ZM207.665 30.2264C207.665 31.9335 207.264 33.3394 206.46 34.2431C205.657 35.1469 204.452 35.649 202.946 35.649C201.439 35.649 200.234 35.1469 199.431 34.2431C198.628 33.3394 198.226 31.9335 198.226 30.2264V24.603C198.226 22.8959 198.628 21.49 199.431 20.5862C200.234 19.6825 201.439 19.1804 202.946 19.1804C204.452 19.1804 205.657 19.6825 206.46 20.5862C207.264 21.49 207.665 22.8959 207.665 24.603V30.2264Z" fill="#FF2E2E"/>
<path d="M226.243 33.1385V4.61963H218.51V33.6406C218.51 36.0506 219.113 37.9585 220.318 39.264C221.523 40.5694 223.531 41.1719 226.142 41.1719H231.464V35.1468H228.151C227.146 35.1468 226.243 34.2431 226.243 33.1385Z" fill="#FF2E2E"/>
<path d="M257.674 21.49C257.071 19.6825 256.268 18.1762 255.163 16.9712C254.059 15.7662 252.753 14.762 251.146 14.1595C249.54 13.4565 247.732 13.1553 245.724 13.1553C243.715 13.1553 241.908 13.4565 240.301 14.1595C238.695 14.8624 237.389 15.7662 236.285 16.9712C235.18 18.1762 234.377 19.6825 233.774 21.49C233.172 23.2975 232.87 25.3059 232.87 27.4147C232.87 29.5235 233.172 31.6323 233.774 33.3394C234.377 35.1469 235.18 36.6532 236.285 37.8582C237.389 39.0632 238.695 40.0674 240.301 40.7703C241.908 41.4733 243.715 41.7745 245.724 41.7745C247.732 41.7745 249.54 41.4733 251.146 40.7703C252.753 40.0674 254.059 39.1636 255.163 37.8582C256.268 36.5528 257.071 35.0465 257.674 33.3394C258.276 31.5318 258.577 29.5235 258.577 27.4147C258.577 25.3059 258.276 23.1971 257.674 21.49ZM250.444 30.2264C250.444 31.9335 250.042 33.3394 249.238 34.2431C248.435 35.1469 247.23 35.649 245.724 35.649C244.218 35.649 243.013 35.1469 242.209 34.2431C241.406 33.3394 240.904 31.9335 240.904 30.2264V24.603C240.904 22.8959 241.305 21.49 242.209 20.5862C243.013 19.6825 244.218 19.1804 245.724 19.1804C247.23 19.1804 248.435 19.6825 249.238 20.5862C250.042 21.49 250.444 22.8959 250.444 24.603V30.2264Z" fill="#FF2E2E"/>
<path d="M282.678 15.8664C281.272 13.9585 279.063 13.0547 276.251 13.0547C274.042 13.0547 272.435 13.5568 271.13 14.6614C269.925 15.6656 269.021 16.971 268.519 18.3769H268.218V13.7576H264.803C262.393 13.7576 260.385 15.766 260.385 18.176V41.2723H268.117V23.3978C268.117 22.6949 268.218 22.1928 268.519 21.6907C268.82 21.1886 269.222 20.7869 269.623 20.3852C270.126 20.084 270.628 19.7827 271.23 19.5819C271.833 19.381 272.435 19.381 273.038 19.381C274.444 19.381 275.448 19.7827 276.05 20.6865C276.653 21.4898 276.854 22.8957 276.854 24.6028V41.1718H284.586V24.0003C284.787 20.4857 284.084 17.7744 282.678 15.8664Z" fill="#FF2E2E"/>
<path d="M161.372 13.3559H156.954C154.544 13.3559 152.536 11.3475 152.536 8.93745C152.536 6.52741 154.544 4.51904 156.954 4.51904C159.364 4.51904 161.372 6.52741 161.372 8.93745V13.3559Z" fill="#FF2E2E"/>
</svg>
