<svg width="49" height="74" viewBox="0 0 49 74" fill="none" xmlns="http://www.w3.org/2000/svg">
<rect x="0.325195" y="0.541016" width="48.0667" height="73.075" rx="1.50208" fill="white"/>
<rect x="6.3335" y="6.5498" width="36.05" height="36.05" rx="6.00833" fill="#F8F8F8"/>
<g clip-path="url(#clip0)">
<path d="M16.0967 20.0686V32.0853L21.354 29.0811L27.3623 32.0853L32.6196 29.0811V17.0645L27.3623 20.0686L21.354 17.0645L16.0967 20.0686Z" stroke="#2B1C1C" stroke-width="1.50208" stroke-linecap="round" stroke-linejoin="round"/>
<path d="M21.354 17.0645V29.0811" stroke="#2B1C1C" stroke-width="1.50208" stroke-linecap="round" stroke-linejoin="round"/>
<path d="M27.3623 20.0693V32.086" stroke="#2B1C1C" stroke-width="1.50208" stroke-linecap="round" stroke-linejoin="round"/>
</g>
<path d="M10.1315 61.7426C9.49315 61.7426 8.94865 61.6224 8.49802 61.3821C8.0474 61.1343 7.66437 60.7963 7.34893 60.3682L8.0474 59.7824C8.32528 60.1504 8.63321 60.432 8.97118 60.6273C9.30915 60.8151 9.7072 60.909 10.1653 60.909C10.7286 60.909 11.1567 60.7738 11.4496 60.5034C11.75 60.233 11.9002 59.8725 11.9002 59.4219C11.9002 59.0464 11.7876 58.7572 11.5623 58.5544C11.337 58.3517 10.9652 58.1902 10.447 58.07L9.80484 57.9236C9.08384 57.7583 8.53182 57.5105 8.14879 57.18C7.77327 56.8421 7.58551 56.3689 7.58551 55.7606C7.58551 55.4151 7.64935 55.1072 7.77702 54.8368C7.9047 54.5664 8.0812 54.3411 8.30651 54.1608C8.53933 53.9806 8.81346 53.8454 9.1289 53.7553C9.45185 53.6576 9.80484 53.6088 10.1879 53.6088C10.7812 53.6088 11.2881 53.7177 11.7087 53.9355C12.1368 54.1533 12.4973 54.4725 12.7902 54.8931L12.0805 55.4113C11.8627 55.1109 11.5998 54.8743 11.2919 54.7016C10.984 54.5289 10.6009 54.4425 10.1428 54.4425C9.63961 54.4425 9.24156 54.5514 8.94865 54.7692C8.66325 54.9795 8.52056 55.2987 8.52056 55.7268C8.52056 56.1023 8.64072 56.3877 8.88106 56.583C9.1289 56.7707 9.50067 56.9209 9.99635 57.0336L10.6385 57.18C11.4121 57.3528 11.9716 57.6156 12.3171 57.9686C12.6626 58.3216 12.8353 58.791 12.8353 59.3768C12.8353 59.7373 12.7715 60.064 12.6438 60.3569C12.5236 60.6498 12.3471 60.8977 12.1143 61.1005C11.8815 61.3032 11.5961 61.461 11.2581 61.5736C10.9276 61.6863 10.5521 61.7426 10.1315 61.7426ZM18.0744 60.6611H18.0294C17.9693 60.7963 17.8942 60.9315 17.804 61.0667C17.7214 61.1943 17.6163 61.3108 17.4886 61.4159C17.3609 61.5135 17.207 61.5924 17.0267 61.6525C16.8465 61.7126 16.6362 61.7426 16.3958 61.7426C15.795 61.7426 15.3181 61.5511 14.9651 61.1681C14.6121 60.7775 14.4356 60.2293 14.4356 59.5233V55.7944H15.3369V59.3656C15.3369 60.4095 15.78 60.9315 16.6662 60.9315C16.8465 60.9315 17.0192 60.909 17.1844 60.8639C17.3572 60.8188 17.5074 60.7512 17.6351 60.6611C17.7703 60.571 17.8754 60.4583 17.9505 60.3231C18.0331 60.1804 18.0744 60.0115 18.0744 59.8162V55.7944H18.9757V61.6074H18.0744V60.6611ZM21.0075 61.6074V55.7944H21.9088V56.8646H21.9651C22.0703 56.5867 22.258 56.3389 22.5284 56.1211C22.7988 55.9033 23.1705 55.7944 23.6437 55.7944H23.9929V56.6956H23.4634C22.9753 56.6956 22.5922 56.7895 22.3143 56.9772C22.044 57.1575 21.9088 57.3866 21.9088 57.6645V61.6074H21.0075ZM26.6511 61.6074L24.612 55.7944H25.5133L26.5272 58.6784L27.158 60.6611H27.2144L27.8452 58.6784L28.8817 55.7944H29.7491L27.6988 61.6074H26.6511ZM33.1218 61.7426C32.7237 61.7426 32.3632 61.6713 32.0403 61.5286C31.7248 61.3859 31.4507 61.1831 31.2179 60.9202C30.9926 60.6498 30.8161 60.3307 30.6884 59.9626C30.5682 59.5871 30.5082 59.1665 30.5082 58.7009C30.5082 58.2428 30.5682 57.8259 30.6884 57.4504C30.8161 57.0749 30.9926 56.7557 31.2179 56.4928C31.4507 56.2225 31.7248 56.0159 32.0403 55.8732C32.3632 55.7305 32.7237 55.6592 33.1218 55.6592C33.5123 55.6592 33.8616 55.7305 34.1695 55.8732C34.4774 56.0159 34.7403 56.2149 34.9581 56.4703C35.1759 56.7181 35.3411 57.0148 35.4538 57.3603C35.5739 57.7058 35.634 58.085 35.634 58.4981V58.9262H31.4545V59.1966C31.4545 59.4444 31.492 59.6772 31.5671 59.895C31.6497 60.1053 31.7624 60.2893 31.9051 60.4471C32.0553 60.6048 32.2355 60.7287 32.4458 60.8188C32.6636 60.909 32.9077 60.954 33.1781 60.954C33.5461 60.954 33.8653 60.8676 34.1357 60.6949C34.4136 60.5222 34.6276 60.2743 34.7778 59.9514L35.42 60.4133C35.2322 60.8113 34.9393 61.1343 34.5412 61.3821C34.1432 61.6224 33.67 61.7426 33.1218 61.7426ZM33.1218 56.414C32.8739 56.414 32.6486 56.459 32.4458 56.5492C32.2431 56.6318 32.0666 56.7519 31.9164 56.9097C31.7737 57.0674 31.661 57.2551 31.5784 57.4729C31.4958 57.6832 31.4545 57.9161 31.4545 58.1714V58.2503H34.6652V58.1263C34.6652 57.6081 34.5225 57.1951 34.2371 56.8871C33.9592 56.5717 33.5874 56.414 33.1218 56.414ZM40.7593 55.7944H41.6492L39.0469 62.9593C38.9793 63.132 38.9117 63.2747 38.8441 63.3874C38.7765 63.5076 38.6939 63.6014 38.5963 63.669C38.4986 63.7366 38.3747 63.7854 38.2245 63.8155C38.0818 63.8455 37.9053 63.8605 37.695 63.8605H37.2331V63.072H38.1456L38.585 61.8327L36.4107 55.7944H37.312L38.7089 59.7486L38.9793 60.6949H39.0356L39.3511 59.7486L40.7593 55.7944Z" fill="#645262"/>
<defs>
<clipPath id="clip0">
<rect width="18.025" height="18.025" fill="white" transform="translate(15.3457 15.5625)"/>
</clipPath>
</defs>
</svg>
