<svg width="49" height="74" viewBox="0 0 49 74" fill="none" xmlns="http://www.w3.org/2000/svg">
<rect x="0.0834961" y="0.257812" width="48.0667" height="73.075" rx="1.50208" fill="white"/>
<rect x="6.0918" y="6.2666" width="36.05" height="36.05" rx="6.00833" fill="#F8F8F8"/>
<path d="M25.6188 16.7812H19.6105C19.2121 16.7812 18.83 16.9395 18.5483 17.2212C18.2667 17.5029 18.1084 17.885 18.1084 18.2833V30.3C18.1084 30.6984 18.2667 31.0804 18.5483 31.3621C18.83 31.6438 19.2121 31.8021 19.6105 31.8021H28.623C29.0214 31.8021 29.4034 31.6438 29.6851 31.3621C29.9668 31.0804 30.1251 30.6984 30.1251 30.3V21.2875L25.6188 16.7812Z" stroke="#2B1C1C" stroke-width="1.50208" stroke-linecap="round" stroke-linejoin="round"/>
<path d="M25.6187 16.7812V21.2875H30.1249" stroke="#2B1C1C" stroke-width="1.50208" stroke-linecap="round" stroke-linejoin="round"/>
<path d="M27.1206 25.043H21.1123" stroke="#2B1C1C" stroke-width="1.50208" stroke-linecap="round" stroke-linejoin="round"/>
<path d="M27.1206 28.0469H21.1123" stroke="#2B1C1C" stroke-width="1.50208" stroke-linecap="round" stroke-linejoin="round"/>
<path d="M22.6144 22.0391H21.8633H21.1123" stroke="#2B1C1C" stroke-width="1.50208" stroke-linecap="round" stroke-linejoin="round"/>
<path d="M16.8118 54.2945V61.3242H15.8655V54.2945H13.3645V53.4608H19.3128V54.2945H16.8118ZM22.0823 61.4594C21.6842 61.4594 21.3237 61.3881 21.0008 61.2454C20.6854 61.1027 20.4112 60.8999 20.1784 60.637C19.9531 60.3666 19.7766 60.0474 19.6489 59.6794C19.5287 59.3039 19.4687 58.8833 19.4687 58.4177C19.4687 57.9596 19.5287 57.5427 19.6489 57.1672C19.7766 56.7917 19.9531 56.4725 20.1784 56.2096C20.4112 55.9392 20.6854 55.7327 21.0008 55.59C21.3237 55.4473 21.6842 55.376 22.0823 55.376C22.4728 55.376 22.8221 55.4473 23.13 55.59C23.4379 55.7327 23.7008 55.9317 23.9186 56.1871C24.1364 56.4349 24.3016 56.7316 24.4143 57.0771C24.5344 57.4226 24.5945 57.8018 24.5945 58.2149V58.643H20.415V58.9134C20.415 59.1612 20.4525 59.394 20.5276 59.6118C20.6102 59.8221 20.7229 60.0061 20.8656 60.1639C21.0158 60.3216 21.1961 60.4455 21.4064 60.5356C21.6242 60.6257 21.8682 60.6708 22.1386 60.6708C22.5066 60.6708 22.8258 60.5844 23.0962 60.4117C23.3741 60.239 23.5881 59.9911 23.7383 59.6682L24.3805 60.1301C24.1927 60.5281 23.8998 60.8511 23.5018 61.0989C23.1037 61.3392 22.6305 61.4594 22.0823 61.4594ZM22.0823 56.1308C21.8344 56.1308 21.6091 56.1758 21.4064 56.266C21.2036 56.3486 21.0271 56.4687 20.8769 56.6265C20.7342 56.7842 20.6215 56.9719 20.5389 57.1897C20.4563 57.4 20.415 57.6328 20.415 57.8882V57.9671H23.6257V57.8431C23.6257 57.3249 23.483 56.9118 23.1976 56.6039C22.9197 56.2885 22.5479 56.1308 22.0823 56.1308ZM25.3393 61.3242L27.491 58.3952L25.4294 55.5112H26.4884L27.9642 57.6742H27.998L29.5301 55.5112H30.5327L28.4824 58.3276L30.5778 61.3242H29.5188L28.0092 59.0486H27.9754L26.3419 61.3242H25.3393ZM33.167 61.3242C32.8516 61.3242 32.6113 61.2378 32.446 61.0651C32.2883 60.8849 32.2095 60.652 32.2095 60.3666V56.2997H31.2519V55.5112H31.7926C31.9879 55.5112 32.1193 55.4736 32.1869 55.3985C32.262 55.3159 32.2996 55.1769 32.2996 54.9817V53.9002H33.1107V55.5112H34.3837V56.2997H33.1107V60.5356H34.2936V61.3242H33.167Z" fill="#645262"/>
</svg>
