<svg width="60" height="60" viewBox="0 0 120 120" fill="none" xmlns="http://www.w3.org/2000/svg">
<circle cx="60" cy="60" r="60" fill="#FFF2C7"/>
<path d="M64.7998 52.7999H61.7998C61.7998 54.4567 63.143 55.7999 64.7998 55.7999V52.7999ZM64.7998 43.2L67.7998 43.2L64.7998 43.2ZM57.5999 36V33C56.4143 33 55.3399 33.6982 54.8584 34.7816L57.5999 36ZM75.0718 83.9997L75.1057 80.9999C75.0944 80.9998 75.0831 80.9997 75.0718 80.9997L75.0718 83.9997ZM79.8717 79.9197L76.9064 79.465L76.9056 79.4699L79.8717 79.9197ZM83.1837 58.3199L86.149 58.7745L86.1497 58.77L83.1837 58.3199ZM78.3837 52.7999V55.7999C78.3951 55.7999 78.4064 55.7998 78.4177 55.7997L78.3837 52.7999ZM36 79.1997H33H36ZM40.8 57.5999V60.5999V57.5999ZM67.7998 52.7999V43.2H61.7998V52.7999H67.7998ZM67.7998 43.2C67.7998 40.4948 66.7252 37.9004 64.8123 35.9875L60.5697 40.2301C61.3573 41.0178 61.7998 42.0861 61.7998 43.2L67.7998 43.2ZM64.8123 35.9875C62.8995 34.0746 60.3051 33 57.5999 33V39C58.7138 39 59.782 39.4425 60.5697 40.2301L64.8123 35.9875ZM54.8584 34.7816L45.2585 56.3814L50.7414 58.8183L60.3413 37.2184L54.8584 34.7816ZM44.9999 57.5999V83.9997H50.9999V57.5999H44.9999ZM47.9999 86.9997H75.0718V80.9997H47.9999V86.9997ZM75.0378 86.9995C76.9189 87.0208 78.7443 86.3615 80.1776 85.1431L76.2918 80.5715C75.961 80.8527 75.5398 81.0048 75.1057 80.9999L75.0378 86.9995ZM80.1776 85.1431C81.611 83.9248 82.5557 82.2294 82.8378 80.3695L76.9056 79.4699C76.8405 79.8991 76.6225 80.2903 76.2918 80.5715L80.1776 85.1431ZM82.8371 80.3744L86.149 58.7745L80.2184 57.8652L76.9064 79.465L82.8371 80.3744ZM86.1497 58.77C86.3194 57.6521 86.244 56.5107 85.9288 55.4248L80.1667 57.0977C80.2394 57.3483 80.2568 57.6117 80.2177 57.8697L86.1497 58.77ZM85.9288 55.4248C85.6135 54.339 85.0659 53.3346 84.324 52.4814L79.7963 56.4185C79.9676 56.6154 80.0939 56.8471 80.1667 57.0977L85.9288 55.4248ZM84.324 52.4814C83.582 51.6281 82.6635 50.9464 81.6319 50.4834L79.1751 55.9574C79.4132 56.0642 79.6251 56.2216 79.7963 56.4185L84.324 52.4814ZM81.6319 50.4834C80.6003 50.0204 79.4804 49.7873 78.3498 49.8001L78.4177 55.7997C78.6786 55.7967 78.9371 55.8506 79.1751 55.9574L81.6319 50.4834ZM78.3837 49.7999H64.7998V55.7999H78.3837V49.7999ZM47.9999 80.9997H40.8V86.9997H47.9999V80.9997ZM40.8 80.9997C40.3226 80.9997 39.8648 80.8101 39.5272 80.4725L35.2846 84.7151C36.7473 86.1779 38.7313 86.9997 40.8 86.9997V80.9997ZM39.5272 80.4725C39.1896 80.1349 39 79.6771 39 79.1997H33C33 81.2684 33.8218 83.2524 35.2846 84.7151L39.5272 80.4725ZM39 79.1997V62.3998H33V79.1997H39ZM39 62.3998C39 61.9224 39.1896 61.4646 39.5272 61.1271L35.2846 56.8844C33.8218 58.3472 33 60.3311 33 62.3998H39ZM39.5272 61.1271C39.8648 60.7895 40.3226 60.5999 40.8 60.5999L40.8 54.5999C38.7313 54.5999 36.7473 55.4216 35.2846 56.8844L39.5272 61.1271ZM40.8 60.5999H47.9999V54.5999H40.8V60.5999Z" fill="#FF7E1D"/>
</svg>
