<svg width="49" height="74" viewBox="0 0 49 74" fill="none" xmlns="http://www.w3.org/2000/svg">
<rect x="0.204102" y="0.257812" width="48.0667" height="73.075" rx="1.50208" fill="white"/>
<rect x="6.2124" y="6.2666" width="36.05" height="36.05" rx="6.00833" fill="#F8F8F8"/>
<g clip-path="url(#clip0)">
<path d="M32.499 20.5371L27.2417 24.2923L32.499 28.0475V20.5371Z" stroke="#2B1C1C" stroke-width="1.50208" stroke-linecap="round" stroke-linejoin="round"/>
<path d="M25.7396 19.0342H17.4782C16.6486 19.0342 15.9761 19.7067 15.9761 20.5363V28.0467C15.9761 28.8763 16.6486 29.5488 17.4782 29.5488H25.7396C26.5692 29.5488 27.2417 28.8763 27.2417 28.0467V20.5363C27.2417 19.7067 26.5692 19.0342 25.7396 19.0342Z" stroke="#2B1C1C" stroke-width="1.50208" stroke-linecap="round" stroke-linejoin="round"/>
</g>
<path d="M12.0762 61.3242L9.46262 53.4608H10.4765L11.7721 57.4263L12.6395 60.3779H12.6959L13.5858 57.4263L14.8926 53.4608H15.8728L13.2253 61.3242H12.0762ZM17.6232 54.148C17.4279 54.148 17.2852 54.103 17.1951 54.0128C17.1124 53.9152 17.0711 53.7913 17.0711 53.6411V53.4946C17.0711 53.3444 17.1124 53.2242 17.1951 53.1341C17.2852 53.0365 17.4279 52.9877 17.6232 52.9877C17.8184 52.9877 17.9574 53.0365 18.04 53.1341C18.1301 53.2242 18.1752 53.3444 18.1752 53.4946V53.6411C18.1752 53.7913 18.1301 53.9152 18.04 54.0128C17.9574 54.103 17.8184 54.148 17.6232 54.148ZM17.1725 55.5112H18.0738V61.3242H17.1725V55.5112ZM23.8192 60.3779H23.7742C23.4212 61.0989 22.8542 61.4594 22.0731 61.4594C21.7126 61.4594 21.3859 61.3881 21.093 61.2454C20.8001 61.1027 20.5485 60.8999 20.3382 60.637C20.1354 60.3742 19.9777 60.055 19.865 59.6794C19.7599 59.3039 19.7073 58.8833 19.7073 58.4177C19.7073 57.952 19.7599 57.5315 19.865 57.1559C19.9777 56.7804 20.1354 56.4612 20.3382 56.1984C20.5485 55.9355 20.8001 55.7327 21.093 55.59C21.3859 55.4473 21.7126 55.376 22.0731 55.376C22.4786 55.376 22.8241 55.4661 23.1095 55.6463C23.4024 55.8191 23.624 56.0895 23.7742 56.4575H23.8192V52.9877H24.7205V61.3242H23.8192V60.3779ZM22.3209 60.6483C22.5237 60.6483 22.7152 60.622 22.8955 60.5694C23.0832 60.5168 23.2447 60.4417 23.3799 60.3441C23.5151 60.239 23.6202 60.115 23.6953 59.9723C23.7779 59.8221 23.8192 59.6532 23.8192 59.4654V57.3024C23.8192 57.1447 23.7779 56.9982 23.6953 56.863C23.6202 56.7203 23.5151 56.6002 23.3799 56.5025C23.2447 56.4049 23.0832 56.3298 22.8955 56.2772C22.7152 56.2171 22.5237 56.1871 22.3209 56.1871C21.8102 56.1871 21.4084 56.3486 21.1155 56.6715C20.8226 56.987 20.6761 57.4038 20.6761 57.922V58.9134C20.6761 59.4316 20.8226 59.8522 21.1155 60.1751C21.4084 60.4906 21.8102 60.6483 22.3209 60.6483ZM28.9347 61.4594C28.5367 61.4594 28.1762 61.3881 27.8532 61.2454C27.5378 61.1027 27.2637 60.8999 27.0308 60.637C26.8055 60.3666 26.629 60.0474 26.5013 59.6794C26.3812 59.3039 26.3211 58.8833 26.3211 58.4177C26.3211 57.9596 26.3812 57.5427 26.5013 57.1672C26.629 56.7917 26.8055 56.4725 27.0308 56.2096C27.2637 55.9392 27.5378 55.7327 27.8532 55.59C28.1762 55.4473 28.5367 55.376 28.9347 55.376C29.3253 55.376 29.6745 55.4473 29.9824 55.59C30.2904 55.7327 30.5532 55.9317 30.771 56.1871C30.9888 56.4349 31.1541 56.7316 31.2667 57.0771C31.3869 57.4226 31.447 57.8018 31.447 58.2149V58.643H27.2674V58.9134C27.2674 59.1612 27.305 59.394 27.3801 59.6118C27.4627 59.8221 27.5753 60.0061 27.718 60.1639C27.8682 60.3216 28.0485 60.4455 28.2588 60.5356C28.4766 60.6257 28.7207 60.6708 28.9911 60.6708C29.3591 60.6708 29.6783 60.5844 29.9486 60.4117C30.2265 60.239 30.4406 59.9911 30.5908 59.6682L31.2329 60.1301C31.0452 60.5281 30.7522 60.8511 30.3542 61.0989C29.9561 61.3392 29.483 61.4594 28.9347 61.4594ZM28.9347 56.1308C28.6869 56.1308 28.4616 56.1758 28.2588 56.266C28.056 56.3486 27.8795 56.4687 27.7293 56.6265C27.5866 56.7842 27.4739 56.9719 27.3913 57.1897C27.3087 57.4 27.2674 57.6328 27.2674 57.8882V57.9671H30.4781V57.8431C30.4781 57.3249 30.3354 56.9118 30.05 56.6039C29.7721 56.2885 29.4004 56.1308 28.9347 56.1308ZM35.2415 61.4594C34.851 61.4594 34.4943 61.3881 34.1713 61.2454C33.8484 61.1027 33.5705 60.8999 33.3376 60.637C33.1123 60.3666 32.9358 60.0474 32.8082 59.6794C32.6805 59.3039 32.6166 58.8833 32.6166 58.4177C32.6166 57.9596 32.6805 57.5427 32.8082 57.1672C32.9358 56.7917 33.1123 56.4725 33.3376 56.2096C33.5705 55.9392 33.8484 55.7327 34.1713 55.59C34.4943 55.4473 34.851 55.376 35.2415 55.376C35.6321 55.376 35.9851 55.4473 36.3005 55.59C36.6235 55.7327 36.9013 55.9392 37.1342 56.2096C37.367 56.4725 37.5472 56.7917 37.6749 57.1672C37.8026 57.5427 37.8664 57.9596 37.8664 58.4177C37.8664 58.8833 37.8026 59.3039 37.6749 59.6794C37.5472 60.0474 37.367 60.3666 37.1342 60.637C36.9013 60.8999 36.6235 61.1027 36.3005 61.2454C35.9851 61.3881 35.6321 61.4594 35.2415 61.4594ZM35.2415 60.6595C35.7297 60.6595 36.1278 60.5093 36.4357 60.2089C36.7436 59.9085 36.8976 59.4504 36.8976 58.8345V58.0009C36.8976 57.385 36.7436 56.9269 36.4357 56.6265C36.1278 56.326 35.7297 56.1758 35.2415 56.1758C34.7534 56.1758 34.3553 56.326 34.0474 56.6265C33.7395 56.9269 33.5855 57.385 33.5855 58.0009V58.8345C33.5855 59.4504 33.7395 59.9085 34.0474 60.2089C34.3553 60.5093 34.7534 60.6595 35.2415 60.6595Z" fill="#2B1C1C"/>
<defs>
<clipPath id="clip0">
<rect width="18.025" height="18.025" fill="white" transform="translate(15.2251 15.2793)"/>
</clipPath>
</defs>
</svg>
